<?xml version="1.0" encoding="utf-8"?><svg xmlns="http://www.w3.org/2000/svg" xmlns:xlink="http://www.w3.org/1999/xlink"><symbol viewBox="0 0 30 30" id="cart" xmlns="http://www.w3.org/2000/svg">
    <path d="M1.54971 0.887918L1.54935 0.888004C1.40478 0.922602 1.2807 1.00518 1.14799 1.13329L1.14621 1.13503C0.995477 1.28546 0.897114 1.4555 0.863135 1.6446C0.829182 1.83357 0.862066 2.02733 0.949375 2.22101L1.08612 2.15936M1.54971 0.887918L28.2922 26.8495M1.54971 0.887918C1.57546 0.881823 1.61246 0.878643 1.64648 0.876284C1.68514 0.873602 1.73523 0.871147 1.79533 0.868893C1.91573 0.864378 2.08011 0.860538 2.28138 0.857525C2.68413 0.85149 3.23736 0.848715 3.88765 0.850567H3.88774L6.0391 0.857969L6.077 0.858101L6.11029 0.876217L6.28451 0.971067L1.54971 0.887918ZM1.08612 2.15936L0.949175 2.22056C1.04333 2.43127 1.22126 2.60992 1.42431 2.70297M1.08612 2.15936C0.930907 1.81506 0.985052 1.50777 1.25217 1.24121L3.39631 2.61844C2.3856 2.60733 1.5265 2.58512 1.4868 2.56661M1.08612 2.15936C1.16554 2.33707 1.31714 2.48886 1.4868 2.56661M1.42431 2.70297L1.4868 2.56661M1.42431 2.70297C1.42401 2.70284 1.42371 2.7027 1.42342 2.70256L1.4868 2.56661M1.42431 2.70297C1.44165 2.71092 1.45748 2.7142 1.46217 2.71517L1.46243 2.71523C1.46997 2.71679 1.47735 2.71792 1.48353 2.71876C1.49606 2.72046 1.51081 2.7219 1.52653 2.72319C1.55834 2.7258 1.60109 2.72832 1.65263 2.73078C1.7561 2.73572 1.9 2.74061 2.07342 2.74524C2.42051 2.75453 2.88879 2.76287 3.39466 2.76843L3.3948 2.76843L5.11786 2.78576L5.2246 3.24433C5.22461 3.24439 5.22462 3.24446 5.22464 3.24452C5.24291 3.32414 5.27664 3.47149 5.32193 3.6693C5.45571 4.25363 5.69032 5.27832 5.92489 6.29873C6.12635 7.17859 6.37278 8.25681 6.64678 9.45571C7.13365 11.586 7.70759 14.0973 8.27116 16.5538L8.27119 16.554C8.39567 17.0943 8.50841 17.5901 8.59001 17.9535C8.63081 18.1353 8.66379 18.2837 8.68654 18.388C8.69303 18.4177 8.69866 18.4438 8.70339 18.4659C8.69972 18.4682 8.69588 18.4706 8.69187 18.473C8.6356 18.5075 8.55636 18.5517 8.46893 18.5966C7.78194 18.9375 7.25593 19.4771 6.93483 20.1706L6.93481 20.1707C6.37628 21.3783 6.58574 22.8426 7.46525 23.8034C7.46539 23.8036 7.46554 23.8037 7.46568 23.8039L7.59167 23.9439L7.53315 24.0098C7.5331 24.0098 7.53305 24.0099 7.533 24.0099C6.93321 24.6797 6.63424 25.6687 6.77109 26.5576L6.7711 26.5576C6.96782 27.8342 7.85553 28.8234 9.10214 29.1421C9.30011 29.1929 9.56261 29.2144 9.81958 29.2116C10.0769 29.2087 10.3421 29.1812 10.546 29.1269L10.5465 29.1268C11.6146 28.8383 12.4477 27.9817 12.7352 26.8876L12.7352 26.8876C12.8914 26.2926 12.8344 25.4809 12.6014 24.9077H17.6401H22.6843L22.6808 24.9163L22.6806 24.9169C22.5105 25.3434 22.4606 25.6253 22.4606 26.109C22.4606 26.6527 22.5411 27.0195 22.7786 27.5069C23.3296 28.6562 24.5744 29.3457 25.8295 29.2013L25.8299 29.2013C27.0887 29.0531 28.0932 28.159 28.4369 26.8891M28.4369 26.8891C28.4369 26.889 28.4369 26.8888 28.437 26.8887L28.2922 26.8495M28.4369 26.8891C28.4368 26.8893 28.4368 26.8894 28.4367 26.8896L28.2922 26.8495M28.4369 26.8891C28.4938 26.6833 28.5233 26.4038 28.5274 26.134C28.5316 25.8646 28.5108 25.5882 28.459 25.3899L28.4589 25.3898C28.2032 24.4139 27.6201 23.6802 26.7574 23.2709L26.7571 23.2708C26.724 23.2551 26.6928 23.2387 26.6616 23.2222C26.5785 23.1784 26.4948 23.1342 26.3716 23.1039C26.2036 23.0627 25.9473 23.0392 25.4392 23.0237C24.5815 22.9976 22.9664 22.9941 19.7563 22.9871C19.1415 22.9857 18.4683 22.9842 17.7307 22.9825M28.2922 26.8495C28.3969 26.4719 28.4077 25.787 28.3138 25.4278C28.0684 24.4912 27.5125 23.7952 26.6931 23.4064C26.6145 23.3693 26.5608 23.3377 26.5049 23.3106C26.1425 23.1348 25.6866 23.1517 17.7303 23.1325M17.7307 22.9825L17.7303 23.1325M17.7307 22.9825C17.7307 22.9825 17.7307 22.9825 17.7307 22.9825L17.7303 23.1325M17.7307 22.9825C13.7236 22.9714 11.666 22.9649 10.5903 22.9528C10.0515 22.9468 9.76222 22.9394 9.59822 22.9296C9.44003 22.9202 9.41328 22.909 9.39751 22.9023M17.7303 23.1325C9.71684 23.1102 9.49665 23.1065 9.33782 23.0399M9.33782 23.0399L9.39867 22.9028C9.39828 22.9026 9.39789 22.9025 9.39751 22.9023M9.33782 23.0399C8.96242 22.8733 8.65921 22.5845 8.48594 22.2217L8.49677 20.937C8.70974 20.478 9.14651 20.1374 9.63021 20.0559M9.33782 23.0399L9.39586 22.9016C9.39636 22.9018 9.39687 22.902 9.39739 22.9022C9.39743 22.9022 9.39747 22.9023 9.39751 22.9023M9.39751 22.9023C9.05387 22.7495 8.77831 22.4859 8.6213 22.1571L8.62124 22.157C8.574 22.0582 8.55549 22.01 8.54507 21.9466C8.53346 21.8759 8.53126 21.7827 8.53126 21.5923C8.53126 21.398 8.53352 21.3067 8.54613 21.2352C8.55773 21.1694 8.57876 21.1166 8.63282 21.0002L8.63284 21.0002C8.82549 20.5849 9.22052 20.2781 9.65219 20.2043M9.65219 20.2043C9.6519 20.2044 9.6517 20.2044 9.65157 20.2044C9.65137 20.2044 9.65134 20.2044 9.65146 20.2044L9.63021 20.0559M9.65219 20.2043C9.65355 20.2042 9.65676 20.2039 9.66244 20.2035C9.6703 20.2029 9.68084 20.2023 9.69432 20.2017C9.72125 20.2004 9.7578 20.1991 9.80433 20.1979C9.89727 20.1954 10.0276 20.193 10.1956 20.1907C10.5314 20.1862 11.0156 20.1823 11.6474 20.1791C12.9109 20.1726 14.7633 20.1689 17.1961 20.1689C19.786 20.1689 21.6345 20.1661 22.8523 20.1596C23.4611 20.1564 23.9128 20.1522 24.2209 20.147C24.3748 20.1444 24.4936 20.1415 24.5786 20.1383C24.621 20.1367 24.6559 20.135 24.6829 20.1331C24.7058 20.1316 24.7327 20.1293 24.7536 20.1248L9.63021 20.0559M9.65219 20.2043C9.65316 20.2042 9.65414 20.204 9.65511 20.2038L9.63021 20.0559M29.2931 6.27482L29.2934 6.27208C29.376 5.41261 28.8017 4.55195 27.9775 4.28983M29.2931 6.27482L6.91935 2.90351C6.55477 1.32266 6.53672 1.27083 6.21546 1.10423L6.28716 0.972475L6.28582 0.971746C6.36555 1.01311 6.44574 1.05668 6.51619 1.1277C6.58848 1.20057 6.64161 1.29263 6.69091 1.41902C6.78622 1.66342 6.88477 2.08611 7.06551 2.8698L7.06564 2.87038C7.13015 3.15528 7.1908 3.4219 7.24185 3.64632C7.26078 3.72951 7.27839 3.8069 7.29438 3.87727C7.32393 4.0073 7.348 4.11346 7.36469 4.18785L7.36584 4.19303M29.2931 6.27482C29.2847 6.34793 29.2261 6.62605 29.142 7.00136C29.0565 7.38255 28.9418 7.87655 28.8171 8.3918C28.5717 9.42079 28.2866 10.6014 28.1854 11.0202L29.2931 6.27482ZM27.9775 4.28983C27.9772 4.28974 27.9769 4.28965 27.9766 4.28956L27.9312 4.43253L27.9783 4.29012C27.9781 4.29002 27.9778 4.28992 27.9775 4.28983ZM27.9775 4.28983C27.9038 4.2655 27.8359 4.25061 27.6257 4.23991C27.4173 4.22931 27.0574 4.22236 26.3936 4.21774C25.0649 4.20848 22.5066 4.20848 17.4771 4.20848H17.474C14.6603 4.20848 12.103 4.20663 10.2491 4.20339C9.32211 4.20177 8.57111 4.19981 8.05191 4.19755C7.79227 4.19642 7.59081 4.19523 7.45435 4.19396C7.42079 4.19365 7.39126 4.19334 7.36584 4.19303M7.36584 4.19303L7.38409 4.27524L7.38948 4.30058L7.39136 4.31024L7.39246 4.31683L7.39329 4.32321C7.39347 4.32489 7.39422 4.33152 7.39422 4.33997C7.38561 4.28992 7.34332 4.22741 7.32307 4.21241C7.31247 4.20644 7.29506 4.19891 7.28865 4.19677C7.27804 4.1935 7.2695 4.19223 7.2679 4.19198L7.26142 4.19115L7.25907 4.19093L7.25884 4.19092C7.25884 4.19091 7.26012 4.19099 7.26332 4.19111C7.2707 4.19139 7.28279 4.19171 7.30012 4.19204C7.31758 4.19237 7.33951 4.1927 7.36584 4.19303ZM9.35587 27.3715C8.93715 27.2086 8.67003 26.9161 8.54009 26.483C8.32712 25.7795 8.70974 25.0465 9.42085 24.8096M9.35587 27.3715L9.41019 27.2317M9.35587 27.3715C9.59411 27.4641 10.0128 27.4604 10.2475 27.3641L10.2559 25.012M9.35587 27.3715L9.41026 27.2317C9.41024 27.2317 9.41021 27.2317 9.41019 27.2317M9.41019 27.2317C9.03531 27.0858 8.80065 26.8295 8.68376 26.4399L8.68365 26.4395C8.49469 25.8154 8.83267 25.1637 9.46826 24.9519M9.41019 27.2317C9.5054 27.2687 9.64896 27.2899 9.80175 27.2886C9.95453 27.2873 10.097 27.2637 10.1904 27.2254C11.1658 26.8224 11.2039 25.4589 10.2559 25.012M9.46826 24.9519C9.46818 24.9519 9.46811 24.9519 9.46803 24.952L9.42085 24.8096M9.46826 24.9519L9.42085 24.8096M9.46826 24.9519C9.5599 24.9216 9.70139 24.9091 9.85526 24.9203C10.0083 24.9315 10.1549 24.9648 10.2559 25.012M9.42085 24.8096C9.65547 24.7318 10.0742 24.7614 10.3197 24.8762L10.2557 25.0119C10.2558 25.0119 10.2559 25.012 10.2559 25.012M25.9787 25.0244L25.9787 25.0243C26.2148 25.1295 26.4324 25.3554 26.5567 25.6272L26.5567 25.6272C26.5961 25.7133 26.6146 25.7649 26.6253 25.8246C26.6367 25.8879 26.6406 25.9667 26.6406 26.109C26.6406 26.3082 26.6167 26.4548 26.5646 26.5822C26.5127 26.7094 26.4283 26.8282 26.2912 26.9654C26.2911 26.9655 26.2911 26.9655 26.291 26.9656M25.9787 25.0244L26.3971 27.0716L26.291 26.9656M25.9787 25.0244L25.9768 25.0235C25.3327 24.7258 24.5987 25.06 24.3895 25.752C24.3161 25.9985 24.3085 26.135 24.356 26.3462C24.4435 26.728 24.6739 27.0195 25.0218 27.1882C25.124 27.2369 25.1813 27.2592 25.2391 27.2716C25.298 27.2841 25.3653 27.2881 25.4904 27.2881M25.9787 25.0244L25.4904 27.2881M26.291 26.9656C26.17 27.0863 26.0574 27.1638 25.9355 27.2129C25.8131 27.2622 25.6724 27.2864 25.4904 27.2881M26.291 26.9656L25.4904 27.2881M26.2301 18.934C26.23 18.9343 26.2298 18.9346 26.2297 18.9349L26.0939 18.8712L26.2305 18.9332C26.2304 18.9335 26.2302 18.9337 26.2301 18.934ZM8.71993 18.5464L8.71983 18.5458C8.72016 18.5483 8.72033 18.5488 8.71993 18.5464ZM27.4517 6.14623C27.4513 6.14614 27.4509 6.14603 27.4502 6.1459L27.4517 6.14623ZM27.4023 6.17599C27.4051 6.16263 27.4077 6.15081 27.4098 6.14058C27.3663 6.13632 27.2963 6.1322 27.1857 6.12847C26.9516 6.12056 26.5497 6.11478 25.8674 6.11062C24.5035 6.10229 22.026 6.10044 17.5462 6.10044C12.8407 6.10044 10.3651 6.10137 9.0658 6.10969C8.41535 6.11386 8.06235 6.11987 7.87231 6.1284C7.85122 6.12935 7.8325 6.13032 7.8159 6.13128C7.82905 6.19431 7.8466 6.27566 7.86764 6.37127C7.91667 6.59412 7.98423 6.89253 8.05815 7.21244C8.13213 7.53076 8.19982 7.82233 8.24902 8.03527C8.27133 8.13185 8.28986 8.21236 8.30346 8.2719C8.32477 8.27208 8.34893 8.27225 8.37591 8.27243C8.50163 8.27324 8.68721 8.27399 8.92631 8.27468C9.40445 8.27607 10.096 8.27723 10.9497 8.27815C12.657 8.28 15.0122 8.28093 17.604 8.28093H26.9052L26.9124 8.25297L26.9127 8.25181C26.9625 8.06373 27.0892 7.53391 27.204 7.04315C27.2613 6.79831 27.3153 6.56417 27.355 6.38862C27.3749 6.30078 27.3911 6.22799 27.4023 6.17599ZM26.4364 10.2439C26.4383 10.2359 26.4401 10.228 26.4419 10.2205C26.436 10.2204 26.43 10.2203 26.4239 10.2203C26.2922 10.2189 26.0987 10.2178 25.852 10.2167C25.3587 10.2146 24.6539 10.213 23.8079 10.2119C22.116 10.2097 19.86 10.2094 17.6041 10.2108C15.3481 10.2122 13.0921 10.2152 11.4002 10.2195C10.5543 10.2216 9.84942 10.2241 9.35614 10.2268C9.10945 10.2282 8.91593 10.2296 8.78418 10.2311C8.77758 10.2312 8.77114 10.2313 8.76486 10.2314C8.77498 10.2767 8.787 10.3304 8.80082 10.3918C8.84883 10.6054 8.91829 10.9122 9.00401 11.2896C9.17545 12.0443 9.41186 13.0808 9.67175 14.2174L9.67176 14.2174L10.5909 18.2399H17.4704H24.4049L24.4761 18.1647L24.476 18.1646L24.4794 18.1613C24.4995 18.1413 24.5109 18.1279 24.5253 18.0995C24.5424 18.0656 24.5639 18.0092 24.5954 17.9014C24.6581 17.6862 24.7508 17.3005 24.9264 16.5597L24.9265 16.5592C25.0294 16.1317 25.1647 15.568 25.3001 15.0044L25.3032 14.9915C25.4375 14.4322 25.5716 13.8739 25.6737 13.4496C25.9606 12.2501 26.1628 11.4024 26.2931 10.8523C26.3583 10.5772 26.4055 10.3767 26.4364 10.2439Z" stroke-width="0.3"/>
</symbol><symbol viewBox="0 0 66 66" id="cart-pluses" xmlns="http://www.w3.org/2000/svg">
    <path d="M31.5825 0.103432C29.9641 0.497295 28.4889 1.7863 27.8659 3.35458C27.2715 4.86558 27.3503 6.36942 28.1166 8.02364C28.3815 8.58937 28.3958 8.66814 28.3027 8.78272C28.2455 8.84717 26.6199 10.7091 24.6935 12.9147C21.3851 16.7029 19.4659 18.9229 18.8357 19.7034C18.4705 20.1546 18.4132 20.5914 18.6495 21.0784C18.8286 21.4508 19.2869 21.7945 19.6879 21.8733C20.1964 21.9664 20.8409 21.4078 22.9605 19.0303C23.9345 17.9275 29.5846 11.4681 30.2577 10.6733L30.5155 10.3653L31.0813 10.5515C32.2843 10.9311 33.4874 10.9382 34.7191 10.5587L35.292 10.3797L35.5426 10.6804C35.6859 10.8451 36.2373 11.4753 36.7672 12.0912C37.3043 12.6999 38.6434 14.2323 39.7391 15.4927C44.8378 21.3433 45.4823 21.9878 46.0982 21.8733C46.979 21.7086 47.5519 20.6917 47.1723 19.9899C47.0148 19.7106 45.2173 17.6124 40.892 12.6641C39.0874 10.5945 37.5549 8.84717 37.4976 8.77556C37.3974 8.66098 37.4189 8.59653 37.6838 8.02364C38.0992 7.1285 38.2782 6.49832 38.3212 5.71776C38.4143 4.12799 37.8199 2.61699 36.6813 1.52134C35.9079 0.776579 35.0342 0.311106 33.9815 0.0891094C33.38 -0.032629 32.134 -0.032629 31.5825 0.103432ZM33.4946 2.74589C34.3754 2.97504 34.9769 3.462 35.3421 4.24257C35.9938 5.63182 35.3923 7.27172 33.9815 7.93054C33.6378 8.08809 33.4874 8.11673 32.9002 8.11673C32.3416 8.11673 32.1554 8.08809 31.869 7.95203C30.4869 7.31469 29.8496 5.77505 30.3866 4.3643C30.6588 3.63387 31.3176 3.04666 32.1698 2.77453C32.6782 2.61699 32.9646 2.60983 33.4946 2.74589Z"/>
    <path d="M11.8839 24.7011C3.41949 24.7512 4.15709 24.7011 2.93254 25.3241C2.40978 25.5891 2.15914 25.7824 1.60057 26.341C1.00619 26.9282 0.870133 27.1144 0.583688 27.7016C0.40466 28.074 0.196987 28.5896 0.132537 28.8474C-0.0393303 29.4848 -0.0464914 30.8024 0.125376 31.4254C0.268598 31.9697 0.648138 32.8004 0.948905 33.23C1.55044 34.1037 2.54584 34.8699 3.62717 35.2853C4.14993 35.4858 4.25018 35.5502 4.28599 35.7149C4.40057 36.252 5.81847 43.2341 6.11924 44.7451C7.74481 52.916 8.94788 58.7308 9.29878 60.1415C9.71412 61.8101 9.92896 62.1252 11.0031 62.7267L11.5975 63.0633L28.7054 63.1062L45.8205 63.142L46.4292 63.5646C47.5893 64.3666 49.3008 65.14 50.7187 65.4981C51.4563 65.6842 51.5494 65.6914 53.4185 65.6914C55.0297 65.6914 55.4522 65.6699 55.9607 65.5553C58.5602 64.9896 60.9663 63.6004 62.6921 61.674C63.9668 60.249 65.0481 58.1794 65.485 56.3318C65.9504 54.3482 65.843 51.5482 65.2272 49.6863C64.9622 48.8771 64.0384 47.0868 63.5013 46.3206C62.9213 45.5042 61.5965 44.1579 60.7586 43.5277C60.4221 43.2771 60.1213 43.0551 60.0926 43.0264C60.0568 42.9978 60.2287 42.0096 60.4722 40.8351C61.4318 36.1732 61.5607 35.5431 61.5678 35.5359C61.575 35.5359 61.8543 35.4213 62.1909 35.2853C64.1602 34.4904 65.442 32.9293 65.7714 30.9241C65.9504 29.8356 65.6568 28.3891 65.0481 27.3722C64.5612 26.5559 63.5801 25.6464 62.7279 25.2096C62.0405 24.8587 61.6251 24.7799 60.1929 24.7298C58.4957 24.6653 22.1244 24.6438 11.8839 24.7011ZM57.3571 27.408L61.1525 27.451L61.532 27.6658C62.7279 28.3175 63.351 29.6495 63.0144 30.8239C62.7781 31.6474 62.2983 32.1917 61.4246 32.6356L60.9806 32.8576H32.8947H4.81591L4.31463 32.5927C3.69878 32.2704 3.18318 31.762 2.91822 31.2177C2.73919 30.8668 2.7177 30.7379 2.72486 30.1722C2.72486 29.6423 2.76067 29.4561 2.91105 29.1339C3.11873 28.6755 3.51259 28.1814 3.89929 27.9021C4.49366 27.4653 4.41489 27.4725 8.94788 27.4152C14.5049 27.3507 52.5663 27.3436 57.3571 27.408ZM57.7008 35.629L58.6962 35.6576L58.6461 35.9584C58.51 36.8249 57.529 41.63 57.486 41.673C57.4502 41.6945 57.0277 41.6229 56.5336 41.5011C55.6456 41.2863 55.6241 41.2863 53.4901 41.2791L51.3418 41.272L50.6328 41.4725C49.1576 41.895 47.5249 42.6183 46.5152 43.3129C45.6558 43.8929 43.8584 45.6904 43.307 46.5282C42.5837 47.6096 41.8175 49.3784 41.4522 50.7963C41.2517 51.5625 41.2446 51.6413 41.2446 53.3385C41.2517 55.2218 41.3162 55.8449 41.6169 56.8116C41.8246 57.4848 42.2972 58.6019 42.7914 59.583L43.1423 60.2848H27.6026C15.2354 60.2848 12.0487 60.2633 12.0272 60.1988C12.0057 60.1487 11.5402 57.8643 10.9888 55.1287C9.39903 47.2229 7.65172 38.5865 7.3796 37.2617C7.23637 36.5957 7.1218 35.9584 7.1218 35.851V35.6576L8.21745 35.6362C9.85019 35.6004 56.5551 35.6004 57.7008 35.629ZM54.9223 44.0004C58.5816 44.5947 61.4891 47.0653 62.6563 50.5671C62.9643 51.4909 63.0502 52.1426 63.0502 53.4817C63.0502 54.8208 62.9643 55.4725 62.6563 56.3891C62.019 58.3154 60.8088 59.984 59.1689 61.2229C58.4528 61.7528 56.9489 62.5047 56.0896 62.7482C54.7218 63.142 52.3372 63.142 50.9909 62.7553C50.2175 62.5333 49.086 62.0392 48.5776 61.6955C48.3484 61.5451 48.0691 61.273 47.9331 61.0725C47.7397 60.7789 47.5822 60.6571 47.1597 60.4423C46.3576 60.0413 45.62 59.1318 44.8609 57.628C43.5648 55.0715 43.5863 51.8489 44.9111 49.2208C45.7847 47.4735 46.9233 46.2418 48.5847 45.2607C49.9382 44.4587 51.2487 44.0433 53.0246 43.8571C53.3898 43.8213 54.1847 43.8786 54.9223 44.0004Z"/>
    <path d="M20.4765 41.1504C19.8034 41.2721 19.4238 41.5801 19.2806 42.1171C19.209 42.4107 19.1875 43.6568 19.1875 48.2471V53.9975L19.567 54.3483C20.2832 55.0072 20.942 54.9785 21.6438 54.2481L21.8801 54.0046L21.9231 48.82C21.9589 43.1269 21.9231 42.1816 21.6581 41.7877C21.3788 41.3795 20.8274 41.0788 20.4765 41.1504Z"/>
    <path d="M28.3983 41.2361C27.7323 41.4581 27.5676 41.7087 27.453 42.7113C27.3456 43.635 27.41 53.009 27.5318 53.6964C27.632 54.2693 27.7394 54.4412 28.119 54.6345C28.7062 54.9353 29.365 54.7849 29.8949 54.2407L30.1456 53.9757V48.1251V42.2744L29.9737 41.9307C29.6658 41.3005 29.0284 41.0212 28.3983 41.2361Z"/>
    <path d="M36.6339 41.2358C35.9608 41.4578 35.7961 41.7156 35.6958 42.7181C35.617 43.4772 35.617 49.9867 35.6958 52.4143C35.7531 54.133 35.8104 54.3335 36.326 54.6199C36.9204 54.9422 37.5935 54.7989 38.1306 54.2332L38.3812 53.9754V48.1248V42.2741L38.2094 41.9304C37.9014 41.3002 37.2641 41.0209 36.6339 41.2358Z"/>
    <path d="M57.7872 49.484C57.7084 49.5269 56.4695 50.73 55.0301 52.1551C53.5907 53.5801 52.3447 54.7832 52.2588 54.8262C52.1227 54.9049 52.0081 54.8119 51.0056 53.8594C49.2511 52.1909 48.9647 52.0047 48.3703 52.1837C47.4823 52.4487 47.1099 53.3939 47.5897 54.1674C47.826 54.5541 50.6117 57.3397 51.2634 57.8482C51.6358 58.1346 51.7289 58.1704 52.137 58.1919C52.5524 58.2205 52.6168 58.2062 52.889 58.0057C53.7196 57.3899 59.2624 51.797 59.5202 51.3101C59.6562 51.0451 59.6562 50.4006 59.513 50.1285C59.2194 49.5627 58.2741 49.2119 57.7872 49.484Z"/>
</symbol><symbol viewBox="0 0 90 68" id="delivery" xmlns="http://www.w3.org/2000/svg">
    <path d="M1.03223 0.431396C0.759184 0.52063 0.291109 1.00023 0.207524 1.28464C0.00691997 1.97616 0.279964 2.66767 0.89292 2.9967L1.11581 3.11939L27.9744 3.14727C54.0307 3.17516 54.8386 3.18073 55.0281 3.28112C55.3011 3.42611 55.5742 3.69379 55.7135 3.9559L55.8361 4.17897L55.8528 23.1789L55.8639 42.1845H30.7885H5.71299V35.7545V29.3301L5.57925 29.0513C5.27277 28.3988 4.57066 28.0976 3.85183 28.3095C3.54535 28.3988 3.08285 28.8616 2.99369 29.1684C2.94354 29.3412 2.92682 30.9641 2.92682 35.9162V42.4354L2.65935 42.5414C1.50588 43.0098 0.58087 44.1029 0.252102 45.3855C0.146228 45.8094 0.140656 45.999 0.140656 50.5329C0.140656 55.7862 0.129511 55.6412 0.530719 56.4888C1.07123 57.6544 2.0854 58.4853 3.33917 58.8032C3.7571 58.9091 3.96885 58.9147 7.57972 58.9147H11.3745L11.4748 59.4278C11.7088 60.6435 12.3608 62.1548 13.0963 63.1809C14.5674 65.2276 16.7183 66.6218 19.2036 67.1237C19.7497 67.2352 20.006 67.252 21.0369 67.252C22.0678 67.252 22.3241 67.2352 22.8702 67.1237C24.9375 66.7054 26.8265 65.6459 28.2141 64.1234C29.3898 62.8352 30.287 61.0785 30.599 59.4278L30.6993 58.9147H46.1124H61.5254L61.6257 59.4278C61.8598 60.6435 62.5117 62.1548 63.2473 63.1809C64.7184 65.2276 66.8693 66.6218 69.3546 67.1237C69.9007 67.2352 70.157 67.252 71.1879 67.252C72.2187 67.252 72.4751 67.2352 73.0211 67.1237C75.0885 66.7054 76.9775 65.6459 78.365 64.1234C79.5408 62.8352 80.4379 61.0785 80.75 59.4278L80.8503 58.9147H83.2519C85.4809 58.9147 85.6926 58.9091 86.0994 58.8032C87.6429 58.4072 88.802 57.2528 89.1865 55.7137C89.2924 55.2898 89.2979 55.0835 89.2979 50.5496C89.2979 45.999 89.2924 45.8094 89.1865 45.3855C88.8577 44.1029 87.9327 43.0098 86.7792 42.5414L86.5118 42.4354V39.3069C86.5118 35.8828 86.5006 35.6932 86.1774 34.6949C86.0883 34.4161 85.9155 33.9922 85.8041 33.7636C85.6146 33.39 76.5094 19.1581 75.4005 17.5074C74.4477 16.0853 73.1549 15.0927 71.6448 14.6131C70.8201 14.3565 70.3019 14.3008 68.5856 14.3008H67.0086V12.7504C67.0086 11.3172 66.9975 11.1889 66.8916 10.9547C66.5907 10.2855 65.8774 9.97321 65.1475 10.1851C64.841 10.2744 64.3785 10.7372 64.2893 11.0439C64.2447 11.2001 64.2224 11.7633 64.2224 12.7895V14.3008H61.4363H58.6501V9.15343C58.6501 4.19012 58.6445 3.98378 58.5387 3.55995C58.221 2.30518 57.3908 1.29021 56.2262 0.749275C55.3179 0.319862 58.0594 0.358902 28.1026 0.364479C8.67746 0.370056 1.17154 0.386787 1.03223 0.431396ZM70.0957 17.1449C71.1488 17.3011 72.124 17.8476 72.7648 18.6506C73.1159 19.0968 83.1962 34.8065 83.3355 35.1299C83.4024 35.2805 83.5083 35.5816 83.5696 35.7991C83.6866 36.1728 83.6922 36.3178 83.7145 39.1842L83.7312 42.1845H71.1934H58.6501V29.6368V17.0891H64.1834C67.5324 17.0891 69.8616 17.1114 70.0957 17.1449ZM85.7038 45.1234C85.9657 45.2628 86.2331 45.5361 86.378 45.8094C86.4783 45.9934 86.4839 46.222 86.4839 50.5496C86.4839 54.8772 86.4783 55.1058 86.378 55.2898C86.2331 55.5631 85.9657 55.8364 85.7038 55.9758C85.4865 56.0929 85.414 56.0985 83.1684 56.1152L80.8503 56.1319L80.75 55.6133C80.5159 54.3976 79.864 52.8863 79.1284 51.8601C77.6573 49.8079 75.5064 48.4193 73.0211 47.9174C72.4751 47.8058 72.2187 47.7891 71.1879 47.7891C70.157 47.7891 69.9007 47.8058 69.3546 47.9174C66.8637 48.4249 64.7184 49.8079 63.2473 51.8601C62.5117 52.8863 61.8598 54.3976 61.6257 55.6077L61.5254 56.1263H46.1124H30.6993L30.599 55.6077C30.365 54.3976 29.713 52.8863 28.9775 51.8601C27.5064 49.8079 25.3554 48.4193 22.8702 47.9174C22.3241 47.8058 22.0678 47.7891 21.0369 47.7891C20.006 47.7891 19.7497 47.8058 19.2036 47.9174C16.7128 48.4249 14.5674 49.8079 13.0963 51.8601C12.3608 52.8863 11.7088 54.3976 11.4748 55.6133L11.3745 56.1319L7.6633 56.1152C3.98556 56.0985 3.9577 56.0985 3.73481 55.9758C3.47291 55.8364 3.19986 55.5631 3.06056 55.2898C2.97697 55.1337 2.95468 54.9273 2.93797 54.2135L2.91568 53.338H3.0717C3.28902 53.338 3.7571 53.1093 3.94098 52.9141C4.02457 52.8249 4.14159 52.6409 4.20288 52.5015C4.30876 52.2672 4.3199 52.139 4.3199 50.5496C4.3199 48.9602 4.30876 48.832 4.20288 48.5977C4.14159 48.4583 4.02457 48.2743 3.94098 48.1851C3.7571 47.9899 3.28902 47.7612 3.0717 47.7612H2.91568L2.93797 46.8801C2.96025 45.9209 2.99926 45.7926 3.33917 45.4302C3.52863 45.2238 3.7571 45.09 4.01342 45.023C4.10815 45.0007 22.4746 44.9896 44.8307 44.9952L85.4809 45.0007L85.7038 45.1234ZM22.4523 50.7225C25.1437 51.269 27.2612 53.3993 27.8407 56.1263C27.9354 56.5781 27.9633 56.8959 27.9633 57.5205C27.9633 58.1451 27.9354 58.463 27.8407 58.9147C27.2612 61.6529 25.166 63.7498 22.4244 64.3297C21.6108 64.5026 20.4629 64.5026 19.6494 64.3297C16.9078 63.7498 14.8126 61.6529 14.2331 58.9147C14.0603 58.0949 14.0603 56.9461 14.2331 56.1319C14.8628 53.1595 17.2366 50.9902 20.2679 50.6054C20.8307 50.5385 21.7947 50.5886 22.4523 50.7225ZM72.6032 50.7225C75.2947 51.269 77.4121 53.3993 77.9917 56.1263C78.0864 56.5781 78.1143 56.8959 78.1143 57.5205C78.1143 58.1451 78.0864 58.463 77.9917 58.9147C77.4121 61.6529 75.317 63.7498 72.5754 64.3297C71.7618 64.5026 70.6139 64.5026 69.8003 64.3297C67.0588 63.7498 64.9636 61.6529 64.384 58.9147C64.2113 58.0949 64.2113 56.9461 64.384 56.1319C65.0137 53.1595 67.3875 50.9902 70.4189 50.6054C70.9817 50.5385 71.9457 50.5886 72.6032 50.7225Z"/>
    <path d="M63.3878 20.0067C62.4517 20.3246 61.7997 20.9994 61.5267 21.9363C61.4486 22.2039 61.4375 22.7951 61.4375 26.855C61.4375 31.2996 61.4431 31.4781 61.5489 31.8183C61.8387 32.7552 62.552 33.4522 63.4937 33.7311C63.7612 33.8092 64.4243 33.8203 69.2388 33.8203C74.0811 33.8203 74.7108 33.8092 74.9838 33.7311C75.9924 33.4299 76.7837 32.5934 76.9899 31.6063C77.0734 31.1769 77.0233 30.4687 76.8784 30.0839C76.8171 29.911 75.5355 27.803 74.0365 25.3994C71.1111 20.7094 70.9717 20.5142 70.3421 20.1963C69.7235 19.884 69.679 19.8784 66.5919 19.8784L66.5843 19.8785C63.8001 19.884 63.7441 19.8841 63.3878 20.0067ZM71.6014 26.8159C73.0279 29.0968 74.1981 30.9762 74.1981 30.9985C74.1981 31.0152 71.9525 31.0319 69.2109 31.0319H64.2237V26.8494V22.6668H66.6142H69.0047L71.6014 26.8159Z"/>
    <path d="M63.3878 20.0067C62.4517 20.3246 61.7997 20.9994 61.5267 21.9363C61.4486 22.2039 61.4375 22.7951 61.4375 26.855C61.4375 31.2996 61.4431 31.4781 61.5489 31.8183C61.8387 32.7552 62.552 33.4522 63.4937 33.7311C63.7612 33.8092 64.4243 33.8203 69.2388 33.8203C74.0811 33.8203 74.7108 33.8092 74.9838 33.7311C75.9924 33.4299 76.7837 32.5934 76.9899 31.6063C77.0734 31.1769 77.0233 30.4687 76.8784 30.0839C76.8171 29.911 75.5355 27.803 74.0365 25.3994C71.1111 20.7094 70.9717 20.5142 70.3421 20.1963C69.7235 19.884 69.679 19.8784 66.5919 19.8784L66.5843 19.8785C63.8001 19.884 63.7441 19.8841 63.3878 20.0067ZM71.6014 26.8159C73.0279 29.0968 74.1981 30.9762 74.1981 30.9985C74.1981 31.0152 71.9525 31.0319 69.2109 31.0319H64.2237V26.8494V22.6668H66.6142H69.0047L71.6014 26.8159Z"/>
    <path d="M62.3293 36.6809C62.0563 36.7701 61.5882 37.2497 61.5046 37.5341C61.2928 38.2535 61.5938 38.9562 62.2457 39.2629C62.5188 39.3912 62.5522 39.3967 64.2239 39.3967C65.8956 39.3967 65.929 39.3912 66.2021 39.2629C66.7092 39.0231 67.0101 38.5602 67.0101 38.0025C67.0101 37.4449 66.7092 36.982 66.2021 36.7422C65.929 36.6139 65.9012 36.6084 64.2239 36.6139C63.154 36.6195 62.4519 36.6418 62.3293 36.6809Z"/>
    <path d="M62.3293 36.6809C62.0563 36.7701 61.5882 37.2497 61.5046 37.5341C61.2928 38.2535 61.5938 38.9562 62.2457 39.2629C62.5188 39.3912 62.5522 39.3967 64.2239 39.3967C65.8956 39.3967 65.929 39.3912 66.2021 39.2629C66.7092 39.0231 67.0101 38.5602 67.0101 38.0025C67.0101 37.4449 66.7092 36.982 66.2021 36.7422C65.929 36.6139 65.9012 36.6084 64.2239 36.6139C63.154 36.6195 62.4519 36.6418 62.3293 36.6809Z"/>
    <path d="M9.39157 47.8333C9.11853 47.9225 8.65045 48.4021 8.56687 48.6865C8.52229 48.8483 8.5 49.4338 8.5 50.5826C8.5 52.1386 8.51114 52.2668 8.61702 52.501C8.76747 52.8357 8.97365 53.0476 9.30799 53.2037C10.0157 53.5383 10.8404 53.226 11.1691 52.501C11.275 52.2668 11.2862 52.1386 11.2862 50.5492C11.2862 48.8762 11.2806 48.8427 11.1524 48.5694C10.9964 48.2348 10.7847 48.0285 10.4503 47.8779C10.1717 47.7497 9.71477 47.7329 9.39157 47.8333Z"/>
    <path d="M9.39157 47.8333C9.11853 47.9225 8.65045 48.4021 8.56687 48.6865C8.52229 48.8483 8.5 49.4338 8.5 50.5826C8.5 52.1386 8.51114 52.2668 8.61702 52.501C8.76747 52.8357 8.97365 53.0476 9.30799 53.2037C10.0157 53.5383 10.8404 53.226 11.1691 52.501C11.275 52.2668 11.2862 52.1386 11.2862 50.5492C11.2862 48.8762 11.2806 48.8427 11.1524 48.5694C10.9964 48.2348 10.7847 48.0285 10.4503 47.8779C10.1717 47.7497 9.71477 47.7329 9.39157 47.8333Z"/>
    <path d="M31.6806 47.8333C31.4076 47.9225 30.9395 48.4021 30.8559 48.6865C30.8114 48.8483 30.7891 49.4338 30.7891 50.5826C30.7891 52.1386 30.8002 52.2668 30.9061 52.501C31.0565 52.8357 31.2627 53.0476 31.5971 53.2037C32.3047 53.5383 33.1294 53.226 33.4582 52.501C33.5641 52.2668 33.5752 52.1386 33.5752 50.5492C33.5752 48.8762 33.5697 48.8427 33.4415 48.5694C33.2855 48.2348 33.0737 48.0285 32.7394 47.8779C32.4608 47.7497 32.0038 47.7329 31.6806 47.8333Z"/>
    <path d="M31.6806 47.8333C31.4076 47.9225 30.9395 48.4021 30.8559 48.6865C30.8114 48.8483 30.7891 49.4338 30.7891 50.5826C30.7891 52.1386 30.8002 52.2668 30.9061 52.501C31.0565 52.8357 31.2627 53.0476 31.5971 53.2037C32.3047 53.5383 33.1294 53.226 33.4582 52.501C33.5641 52.2668 33.5752 52.1386 33.5752 50.5492C33.5752 48.8762 33.5697 48.8427 33.4415 48.5694C33.2855 48.2348 33.0737 48.0285 32.7394 47.8779C32.4608 47.7497 32.0038 47.7329 31.6806 47.8333Z"/>
    <path d="M38.6455 47.8335C38.3724 47.9228 37.9044 48.4024 37.8208 48.6868C37.7762 48.8485 37.7539 49.4341 37.7539 50.5829C37.7539 52.1388 37.7651 52.2671 37.8709 52.5013C38.0214 52.8359 38.2276 53.0478 38.5619 53.204C39.2696 53.5386 40.0943 53.2263 40.4231 52.5013C40.5289 52.2671 40.5401 52.1388 40.5401 50.5494C40.5401 48.8764 40.5345 48.8429 40.4063 48.5697C40.2503 48.2351 40.0386 48.0287 39.7042 47.8782C39.4256 47.7499 38.9687 47.7332 38.6455 47.8335Z"/>
    <path d="M38.6455 47.8335C38.3724 47.9228 37.9044 48.4024 37.8208 48.6868C37.7762 48.8485 37.7539 49.4341 37.7539 50.5829C37.7539 52.1388 37.7651 52.2671 37.8709 52.5013C38.0214 52.8359 38.2276 53.0478 38.5619 53.204C39.2696 53.5386 40.0943 53.2263 40.4231 52.5013C40.5289 52.2671 40.5401 52.1388 40.5401 50.5494C40.5401 48.8764 40.5345 48.8429 40.4063 48.5697C40.2503 48.2351 40.0386 48.0287 39.7042 47.8782C39.4256 47.7499 38.9687 47.7332 38.6455 47.8335Z"/>
    <path d="M45.6103 47.8333C45.3373 47.9225 44.8692 48.4021 44.7856 48.6865C44.741 48.8483 44.7188 49.4338 44.7188 50.5826C44.7188 52.1386 44.7299 52.2668 44.8358 52.501C44.9862 52.8357 45.1924 53.0476 45.5267 53.2037C46.2344 53.5383 47.0591 53.226 47.3879 52.501C47.4938 52.2668 47.5049 52.1386 47.5049 50.5492C47.5049 48.8762 47.4993 48.8427 47.3712 48.5694C47.2151 48.2348 47.0034 48.0285 46.6691 47.8779C46.3904 47.7497 45.9335 47.7329 45.6103 47.8333Z"/>
    <path d="M45.6103 47.8333C45.3373 47.9225 44.8692 48.4021 44.7856 48.6865C44.741 48.8483 44.7188 49.4338 44.7188 50.5826C44.7188 52.1386 44.7299 52.2668 44.8358 52.501C44.9862 52.8357 45.1924 53.0476 45.5267 53.2037C46.2344 53.5383 47.0591 53.226 47.3879 52.501C47.4938 52.2668 47.5049 52.1386 47.5049 50.5492C47.5049 48.8762 47.4993 48.8427 47.3712 48.5694C47.2151 48.2348 47.0034 48.0285 46.6691 47.8779C46.3904 47.7497 45.9335 47.7329 45.6103 47.8333Z"/>
    <path d="M52.5752 47.8333C52.3021 47.9225 51.834 48.4021 51.7505 48.6865C51.7059 48.8483 51.6836 49.4338 51.6836 50.5826C51.6836 52.1386 51.6947 52.2668 51.8006 52.501C51.9511 52.8357 52.1572 53.0476 52.4916 53.2037C53.1993 53.5383 54.024 53.226 54.3528 52.501C54.4586 52.2668 54.4698 52.1386 54.4698 50.5492C54.4698 48.8762 54.4642 48.8427 54.336 48.5694C54.18 48.2348 53.9683 48.0285 53.6339 47.8779C53.3553 47.7497 52.8984 47.7329 52.5752 47.8333Z"/>
    <path d="M52.5752 47.8333C52.3021 47.9225 51.834 48.4021 51.7505 48.6865C51.7059 48.8483 51.6836 49.4338 51.6836 50.5826C51.6836 52.1386 51.6947 52.2668 51.8006 52.501C51.9511 52.8357 52.1572 53.0476 52.4916 53.2037C53.1993 53.5383 54.024 53.226 54.3528 52.501C54.4586 52.2668 54.4698 52.1386 54.4698 50.5492C54.4698 48.8762 54.4642 48.8427 54.336 48.5694C54.18 48.2348 53.9683 48.0285 53.6339 47.8779C53.3553 47.7497 52.8984 47.7329 52.5752 47.8333Z"/>
    <path d="M59.54 47.8333C59.267 47.9225 58.7989 48.4021 58.7153 48.6865C58.6707 48.8483 58.6484 49.4338 58.6484 50.5826C58.6484 52.1386 58.6596 52.2668 58.7655 52.501C58.9159 52.8357 59.1221 53.0476 59.4564 53.2037C60.1641 53.5383 60.9888 53.226 61.3176 52.501C61.4235 52.2668 61.4346 52.1386 61.4346 50.5492C61.4346 48.8762 61.4291 48.8427 61.3009 48.5694C61.1449 48.2348 60.9331 48.0285 60.5988 47.8779C60.3202 47.7497 59.8632 47.7329 59.54 47.8333Z"/>
    <path d="M59.54 47.8333C59.267 47.9225 58.7989 48.4021 58.7153 48.6865C58.6707 48.8483 58.6484 49.4338 58.6484 50.5826C58.6484 52.1386 58.6596 52.2668 58.7655 52.501C58.9159 52.8357 59.1221 53.0476 59.4564 53.2037C60.1641 53.5383 60.9888 53.226 61.3176 52.501C61.4235 52.2668 61.4346 52.1386 61.4346 50.5492C61.4346 48.8762 61.4291 48.8427 61.3009 48.5694C61.1449 48.2348 60.9331 48.0285 60.5988 47.8779C60.3202 47.7497 59.8632 47.7329 59.54 47.8333Z"/>
    <path d="M81.8291 47.8333C81.556 47.9225 81.088 48.4021 81.0044 48.6865C80.9598 48.8483 80.9375 49.4338 80.9375 50.5826C80.9375 52.1386 80.9486 52.2668 81.0545 52.501C81.205 52.8357 81.4111 53.0476 81.7455 53.2037C82.4532 53.5383 83.2779 53.226 83.6066 52.501C83.7125 52.2668 83.7237 52.1386 83.7237 50.5492C83.7237 48.8762 83.7181 48.8427 83.5899 48.5694C83.4339 48.2348 83.2222 48.0285 82.8878 47.8779C82.6092 47.7497 82.1523 47.7329 81.8291 47.8333Z"/>
    <path d="M81.8291 47.8333C81.556 47.9225 81.088 48.4021 81.0044 48.6865C80.9598 48.8483 80.9375 49.4338 80.9375 50.5826C80.9375 52.1386 80.9486 52.2668 81.0545 52.501C81.205 52.8357 81.4111 53.0476 81.7455 53.2037C82.4532 53.5383 83.2779 53.226 83.6066 52.501C83.7125 52.2668 83.7237 52.1386 83.7237 50.5492C83.7237 48.8762 83.7181 48.8427 83.5899 48.5694C83.4339 48.2348 83.2222 48.0285 82.8878 47.8779C82.6092 47.7497 82.1523 47.7329 81.8291 47.8333Z"/>
    <path d="M20.2003 54.8601C18.9967 55.2728 18.25 56.2878 18.25 57.5202C18.25 59.065 19.4926 60.3086 21.0417 60.3086C22.5741 60.3086 23.8223 59.0594 23.8223 57.5202C23.8223 56.2599 23.0032 55.1836 21.7661 54.8211C21.3204 54.6928 20.6461 54.7095 20.2003 54.8601Z"/>
    <path d="M20.2003 54.8601C18.9967 55.2728 18.25 56.2878 18.25 57.5202C18.25 59.065 19.4926 60.3086 21.0417 60.3086C22.5741 60.3086 23.8223 59.0594 23.8223 57.5202C23.8223 56.2599 23.0032 55.1836 21.7661 54.8211C21.3204 54.6928 20.6461 54.7095 20.2003 54.8601Z"/>
    <path d="M70.3488 54.8601C69.1451 55.2728 68.3984 56.2878 68.3984 57.5202C68.3984 59.065 69.6411 60.3086 71.1902 60.3086C72.7226 60.3086 73.9708 59.0594 73.9708 57.5202C73.9708 56.2599 73.1516 55.1836 71.9146 54.8211C71.4688 54.6928 70.7945 54.7095 70.3488 54.8601Z"/>
    <path d="M70.3488 54.8601C69.1451 55.2728 68.3984 56.2878 68.3984 57.5202C68.3984 59.065 69.6411 60.3086 71.1902 60.3086C72.7226 60.3086 73.9708 59.0594 73.9708 57.5202C73.9708 56.2599 73.1516 55.1836 71.9146 54.8211C71.4688 54.6928 70.7945 54.7095 70.3488 54.8601Z"/>
    <path d="M1.03242 6.00874C0.759379 6.09796 0.291304 6.57756 0.207719 6.86198C-0.00402971 7.58138 0.296876 8.28405 0.948839 8.59077L1.22746 8.72461H4.3201C7.31244 8.72461 7.41831 8.71903 7.6635 8.6075C7.99784 8.45693 8.20958 8.25059 8.36561 7.91598C8.69995 7.20774 8.3879 6.38238 7.6635 6.05335C7.41831 5.94181 7.31801 5.93624 4.3201 5.94181C2.23047 5.94739 1.16616 5.9697 1.03242 6.00874Z"/>
    <path d="M1.03242 6.00874C0.759379 6.09796 0.291304 6.57756 0.207719 6.86198C-0.00402971 7.58138 0.296876 8.28405 0.948839 8.59077L1.22746 8.72461H4.3201C7.31244 8.72461 7.41831 8.71903 7.6635 8.6075C7.99784 8.45693 8.20958 8.25059 8.36561 7.91598C8.69995 7.20774 8.3879 6.38238 7.6635 6.05335C7.41831 5.94181 7.31801 5.93624 4.3201 5.94181C2.23047 5.94739 1.16616 5.9697 1.03242 6.00874Z"/>
    <path d="M12.177 6.00873C11.9039 6.09796 11.4358 6.57756 11.3523 6.86198C11.1405 7.58138 11.4414 8.28405 12.0934 8.59077L12.372 8.72461H28.0024C43.6049 8.72461 43.6327 8.72461 43.8835 8.6075C44.2178 8.45693 44.4296 8.25059 44.5856 7.91598C44.9199 7.20773 44.6079 6.38238 43.8835 6.05335C43.6327 5.93624 43.6105 5.93624 28.0024 5.94181C16.7741 5.94739 12.3163 5.96412 12.177 6.00873Z"/>
    <path d="M12.177 6.00873C11.9039 6.09796 11.4358 6.57756 11.3523 6.86198C11.1405 7.58138 11.4414 8.28405 12.0934 8.59077L12.372 8.72461H28.0024C43.6049 8.72461 43.6327 8.72461 43.8835 8.6075C44.2178 8.45693 44.4296 8.25059 44.5856 7.91598C44.9199 7.20773 44.6079 6.38238 43.8835 6.05335C43.6327 5.93624 43.6105 5.93624 28.0024 5.94181C16.7741 5.94739 12.3163 5.96412 12.177 6.00873Z"/>
    <path d="M1.03242 11.5849C0.759379 11.6741 0.291304 12.1537 0.207719 12.4381C-0.00402971 13.1575 0.296876 13.8602 0.948839 14.1669L1.22746 14.3008H16.8578C32.4604 14.3008 32.4882 14.3008 32.739 14.1837C33.4634 13.8546 33.7754 13.0293 33.4411 12.321C33.2851 11.9864 33.0733 11.7801 32.739 11.6295C32.4882 11.5124 32.4659 11.5124 16.8578 11.518C5.6296 11.5236 1.17173 11.5403 1.03242 11.5849Z"/>
    <path d="M1.03242 11.5849C0.759379 11.6741 0.291304 12.1537 0.207719 12.4381C-0.00402971 13.1575 0.296876 13.8602 0.948839 14.1669L1.22746 14.3008H16.8578C32.4604 14.3008 32.4882 14.3008 32.739 14.1837C33.4634 13.8546 33.7754 13.0293 33.4411 12.321C33.2851 11.9864 33.0733 11.7801 32.739 11.6295C32.4882 11.5124 32.4659 11.5124 16.8578 11.518C5.6296 11.5236 1.17173 11.5403 1.03242 11.5849Z"/>
    <path d="M1.03242 17.163C0.759379 17.2523 0.291304 17.7319 0.207719 18.0163C-0.00402969 18.7357 0.296876 19.4383 0.948839 19.7451L1.22746 19.8789H11.2855H21.3436L21.6222 19.7451C22.1293 19.5053 22.4302 19.0424 22.4302 18.4847C22.4302 17.927 22.1293 17.4642 21.6222 17.2244L21.3436 17.0905L11.2855 17.0961C4.11949 17.1017 1.17173 17.1184 1.03242 17.163Z"/>
    <path d="M1.03242 17.163C0.759379 17.2523 0.291304 17.7319 0.207719 18.0163C-0.00402969 18.7357 0.296876 19.4383 0.948839 19.7451L1.22746 19.8789H11.2855H21.3436L21.6222 19.7451C22.1293 19.5053 22.4302 19.0424 22.4302 18.4847C22.4302 17.927 22.1293 17.4642 21.6222 17.2244L21.3436 17.0905L11.2855 17.0961C4.11949 17.1017 1.17173 17.1184 1.03242 17.163Z"/>
    <path d="M1.03242 22.7373C0.759379 22.8265 0.291304 23.3061 0.207719 23.5905C-0.00402968 24.3099 0.296876 25.0126 0.948839 25.3193L1.22745 25.4531H5.71318C10.1042 25.4531 10.2045 25.4475 10.4497 25.336C10.784 25.1854 10.9957 24.9791 11.1518 24.6445C11.4861 23.9363 11.1741 23.1109 10.4497 22.7819C10.2045 22.6703 10.1097 22.6648 5.71318 22.6703C2.60939 22.6759 1.16616 22.6926 1.03242 22.7373Z"/>
    <path d="M1.03242 22.7373C0.759379 22.8265 0.291304 23.3061 0.207719 23.5905C-0.00402968 24.3099 0.296876 25.0126 0.948839 25.3193L1.22745 25.4531H5.71318C10.1042 25.4531 10.2045 25.4475 10.4497 25.336C10.784 25.1854 10.9957 24.9791 11.1518 24.6445C11.4861 23.9363 11.1741 23.1109 10.4497 22.7819C10.2045 22.6703 10.1097 22.6648 5.71318 22.6703C2.60939 22.6759 1.16616 22.6926 1.03242 22.7373Z"/>
</symbol><symbol viewBox="0 0 80 82" id="gear" xmlns="http://www.w3.org/2000/svg">
    <path d="M34.7709 0.1017C33.6602 0.363777 32.4372 1.3996 32.1002 2.34808C32.0129 2.58519 31.4638 4.68181 30.8772 7.01554C30.2907 9.34927 29.779 11.346 29.7416 11.4584C29.7166 11.5707 29.4171 11.7579 29.0926 11.8827C28.7681 12.0075 28.0193 12.332 27.4203 12.594L26.3345 13.0932L22.4658 10.772C20.3442 9.48655 18.335 8.32593 17.998 8.17616C17.5986 8.00145 17.1369 7.91409 16.5753 7.90161C15.1152 7.88913 14.5785 8.25105 11.5834 11.2837C8.58819 14.3163 8.41347 14.5783 8.42595 16.1258C8.42595 17.3364 8.31364 17.0993 11.3213 22.0912L13.5552 25.8102L12.9437 27.2703C12.6067 28.0691 12.2822 28.8428 12.2323 28.9801C12.145 29.1922 11.4211 29.4044 7.7146 30.3404C5.28103 30.9394 3.03466 31.5509 2.6977 31.6882C2.33578 31.8505 1.86155 32.2124 1.48715 32.6242C0.501245 33.6975 0.463806 33.9346 0.513725 38.5521L0.551165 42.4583L0.91308 43.1198C1.32492 43.8561 1.87403 44.3927 2.58538 44.7546C2.83498 44.8794 5.09383 45.5034 7.60228 46.1399C10.1107 46.7639 12.1574 47.288 12.1699 47.3005C12.1699 47.313 12.3571 47.7997 12.5942 48.3863C12.8189 48.9728 13.1433 49.7216 13.3056 50.0461C13.5053 50.4454 13.5677 50.695 13.4928 50.7949C13.4179 50.8822 13.0061 51.5561 12.5568 52.3174C12.12 53.0662 11.0467 54.8633 10.1856 56.286C8.51331 59.0565 8.2762 59.6681 8.38851 60.8037C8.50083 61.9394 8.83779 62.4011 11.6333 65.2091C14.7782 68.3665 15.0278 68.5412 16.5878 68.5412C17.8607 68.5412 17.4988 68.7035 22.6405 65.6334C25.9726 63.6366 26.4094 63.412 26.6341 63.5493C26.7713 63.6366 27.5077 63.9486 28.2564 64.2482C29.0177 64.5477 29.6542 64.7973 29.6667 64.8098C29.6916 64.8347 30.2407 66.9189 30.8772 69.4647C32.0878 74.282 32.2999 74.8685 33.0737 75.5175C34.0221 76.3162 34.3217 76.4035 36.568 76.441L38.6397 76.4909L38.7021 77.6016C38.7894 78.9744 39.1638 79.823 40.0499 80.6217C41.1981 81.6576 39.7504 81.5952 59.3937 81.5577L76.8031 81.5203L77.477 81.1459C78.2507 80.7216 78.9496 79.9478 79.2616 79.1741C79.4613 78.6874 79.4738 77.4768 79.4738 62.5384C79.4863 44.1556 79.5861 45.7156 78.3755 44.505C77.8764 44.0183 77.4895 43.7438 77.0402 43.594L76.3913 43.3818L76.6658 42.8577C76.9154 42.3585 76.9279 42.1713 76.9279 38.2776C76.9279 34.3839 76.9154 34.1967 76.6533 33.6351C76.3039 32.8863 75.5052 32.0127 74.9062 31.7381C74.6441 31.6258 72.3852 31.0018 69.8768 30.3654L65.3341 29.2172L65.0346 28.4684C64.8723 28.0691 64.5479 27.3078 64.3107 26.7961L63.874 25.8601L66.3699 21.7043C68.9907 17.3239 69.2278 16.8122 69.0656 15.714C68.8784 14.4161 68.5289 13.9169 65.8458 11.2213C62.9005 8.26353 62.3764 7.91409 60.9037 7.91409C59.793 7.91409 59.5559 8.02641 54.9134 10.8094L51.132 13.0932L50.0463 12.594C49.4597 12.3195 48.7359 12.02 48.4364 11.9326C48.1493 11.8452 47.8623 11.7204 47.7999 11.6456C47.7375 11.5707 47.2009 9.51151 46.6018 7.07794C46.0028 4.64436 45.3788 2.39799 45.2166 2.086C44.8547 1.34969 44.1308 0.675774 43.3571 0.313858C42.758 0.039299 42.6083 0.0268173 38.9891 0.00186157C36.9299 -0.0106201 35.033 0.0268173 34.7709 0.1017ZM42.5209 2.78487C42.6707 2.8847 42.8579 3.08438 42.9328 3.22166C43.0076 3.37142 43.5692 5.48051 44.1807 7.92657C44.7923 10.3851 45.4038 12.619 45.5535 12.9185C45.878 13.5425 46.2025 13.7921 47.2258 14.1915C47.6377 14.3537 48.5362 14.7406 49.2226 15.0401C50.246 15.5018 50.6079 15.6142 51.1819 15.6017C51.8933 15.6017 51.9557 15.5767 56.1988 13.0308C58.882 11.4084 60.6167 10.4475 60.8289 10.4475C61.4029 10.4475 61.7773 10.7595 64.1735 13.1556C66.4074 15.4145 66.5072 15.5393 66.5072 16.0135C66.5072 16.4254 66.1453 17.0993 64.186 20.369C62.913 22.4906 61.7649 24.4499 61.6276 24.6995C61.3031 25.336 61.3156 26.3968 61.6525 27.0831C61.7898 27.3702 62.1517 28.2188 62.4637 28.9676C63.1626 30.7023 63.3872 31.0517 63.9738 31.3762C64.2359 31.526 66.5322 32.1624 69.0656 32.7989C73.1215 33.8098 73.7206 33.997 74.0326 34.2965L74.3695 34.6335V38.2401C74.3695 42.1588 74.357 42.2212 73.6582 42.4958C73.471 42.5707 72.6223 42.8078 71.7862 43.0199L70.2636 43.3943H63.0628H55.8744L55.9368 43.0449C55.9867 42.8577 56.1115 42.2836 56.2363 41.7719C56.5483 40.4366 56.5483 36.1435 56.2488 34.7208C55.0133 29.0175 51.3941 24.4499 46.2274 22.0538C44.9295 21.4423 43.2822 20.9306 42.6582 20.9306C41.5725 20.9306 41.0233 22.3034 41.8096 23.0397C41.9593 23.1645 42.5584 23.4266 43.1449 23.6138C48.5861 25.2985 52.4923 29.5791 53.7278 35.22C53.8901 35.9314 53.9525 36.7925 53.9525 38.2152C53.965 40.2244 53.8776 40.8734 53.3909 42.5457L53.1413 43.3943H47.4879C42.6332 43.3943 41.7597 43.4193 41.248 43.594C40.4493 43.8686 39.4134 44.842 39.039 45.6657L38.7395 46.3271L38.7021 60.1423L38.6771 73.97H37.0547C35.32 73.97 34.9207 73.8826 34.6337 73.4458C34.5338 73.2836 33.9348 71.137 33.3108 68.666C32.0753 63.7864 32.0254 63.6117 31.6135 63.125C31.3265 62.7755 31.1019 62.6632 28.4686 61.565C26.7214 60.8287 26.1474 60.7288 25.411 61.0408C25.1864 61.1282 23.2271 62.2763 21.0556 63.5867C18.8841 64.8846 16.9622 65.9829 16.7875 66.0328C16.6252 66.0702 16.3631 66.0577 16.2259 66.0078C16.0761 65.9579 14.8406 64.7973 13.4678 63.4245C11.0592 61.0284 10.9718 60.916 10.9718 60.4418C10.9718 60.03 11.3462 59.3186 13.4928 55.7619C15.9014 51.7433 16.0137 51.5312 16.0636 50.8198C16.1011 50.1584 16.0636 49.9462 15.6518 49.0727C15.4022 48.5235 15.0278 47.625 14.8156 47.0759C14.3664 45.9028 13.9795 45.3412 13.4304 45.0541C13.2057 44.9418 10.897 44.3178 8.30116 43.6564C3.88329 42.5332 3.54633 42.4334 3.30921 42.1089C3.05962 41.7719 3.04714 41.6097 3.04714 38.1902V34.6335L3.43401 34.2965C3.75849 33.997 4.45736 33.7848 8.40099 32.7989C10.9344 32.1749 13.1433 31.5759 13.3305 31.4885C13.9296 31.1765 14.3164 30.6649 14.7283 29.629C14.9529 29.0674 15.3523 28.1065 15.6268 27.495C16.0511 26.534 16.1135 26.2969 16.0636 25.6729C16.0137 24.999 15.8639 24.712 13.6301 20.9805C10.7846 16.2132 10.9718 16.5626 10.9718 15.9761C10.9718 15.5268 11.0966 15.377 13.5177 12.9559L16.0636 10.4101L16.6127 10.4725C17.0246 10.5224 18.0729 11.0965 21.2927 13.0308C23.9759 14.6532 25.5982 15.5518 25.9102 15.6017C26.5342 15.7015 27.0085 15.5767 28.506 14.9153C29.1924 14.6033 30.0535 14.2539 30.4155 14.1166C31.1268 13.867 31.8257 13.2555 32.0503 12.7188C32.1252 12.5316 32.6868 10.3352 33.3108 7.82673C34.3591 3.60854 34.4714 3.24662 34.8084 2.92215L35.1828 2.58519H38.7146C41.6973 2.58519 42.2838 2.61015 42.5209 2.78487ZM76.566 46.3146C76.9653 46.714 76.9903 46.7888 76.9903 47.5626V48.3863H75.4677C74.6191 48.3863 66.7194 48.3863 57.8961 48.3987C49.0728 48.3987 41.7347 48.3987 41.5849 48.3987C41.3229 48.3863 41.2979 48.3363 41.2979 47.6C41.3104 46.7514 41.4851 46.3146 41.9344 46.065C42.184 45.9277 45.3538 45.9028 59.1815 45.8903H76.1417L76.566 46.3146ZM76.9653 64.6725L76.9279 78.3379L76.5784 78.6749L76.2415 79.0243H59.1316H42.0217L41.6598 78.6125L41.2979 78.2131V64.6101V51.007H59.1441H76.9903L76.9653 64.6725Z"/>
    <path d="M35.4671 20.6936C33.8696 21.0056 32.9212 21.3425 32.6216 21.7044C32.0725 22.3659 32.2722 23.202 33.0834 23.6263C33.4328 23.801 33.5327 23.801 34.4187 23.5764C34.9429 23.4266 35.7042 23.2519 36.116 23.177C37.077 23.0023 37.4014 22.8276 37.6261 22.4033C37.9131 21.8542 37.8382 21.4423 37.3765 20.9806C36.9147 20.5188 36.5653 20.4689 35.4671 20.6936Z"/>
    <path d="M26.3595 25.448C25.9851 25.6227 25.6606 26.359 25.7605 26.7709C25.8603 27.2201 28.0193 29.3792 28.531 29.5539C29.2299 29.7785 30.066 29.142 30.066 28.3808C30.066 27.8192 29.7915 27.4198 28.6433 26.3216C27.6824 25.3981 27.5326 25.2982 27.1083 25.3107C26.8462 25.3107 26.5093 25.3731 26.3595 25.448Z"/>
    <path d="M36.8019 28.2329C35.0048 28.5948 32.9332 29.6556 31.6478 30.8911C30.4747 32.0267 29.314 33.9861 28.8647 35.596C28.5528 36.7441 28.4904 39.1777 28.74 40.3258C29.3639 43.0839 30.9863 45.4176 33.2951 46.8653C34.6679 47.7264 35.4666 47.664 35.8784 46.6906C35.9907 46.416 36.0032 46.1789 35.9283 45.9043C35.8035 45.4426 35.6164 45.2429 35.0548 44.9559C33.2202 44.0199 31.6977 41.9482 31.2359 39.7892C30.4622 36.1076 32.5962 32.3512 36.2528 31.0159C36.8019 30.8162 37.3635 30.7288 38.4618 30.6914C39.7846 30.6415 40.0342 30.6789 40.9702 30.9659C42.8671 31.5525 44.4271 32.8005 45.3756 34.5102C46.037 35.7083 46.2866 36.6568 46.3241 38.1543C46.349 38.8782 46.4364 39.5895 46.5113 39.7393C46.9356 40.513 47.8341 40.6254 48.4831 39.9764C48.9074 39.5521 48.9074 39.5521 48.9074 38.354C48.9074 35.5211 47.8716 33.0002 45.8873 31.0159C43.5535 28.6821 39.9968 27.5964 36.8019 28.2329Z"/>
    <path d="M22.5685 30.9027C22.1567 31.3145 22.0943 31.8387 22.3938 32.4003C22.5311 32.6749 22.893 32.8995 24.0287 33.3987C24.8274 33.7481 25.6136 34.0352 25.7884 34.0352C26.8491 34.0352 27.4731 32.7497 26.7992 31.9885C26.4248 31.5766 23.9913 30.5408 23.3922 30.5408C23.0553 30.5408 22.8431 30.6406 22.5685 30.9027Z"/>
    <path d="M37.9415 35.8434C35.9822 36.4674 35.5828 39.1256 37.2801 40.3237C37.8791 40.748 38.8775 40.8853 39.5764 40.6607C40.425 40.3736 41.2861 39.213 41.2986 38.3269C41.2986 37.7903 40.9741 36.9167 40.6372 36.5548C39.9757 35.8434 38.8526 35.5439 37.9415 35.8434Z"/>
    <path d="M21.3663 37.2545C21.2166 37.3668 21.0294 37.6538 20.942 37.866C20.8297 38.203 20.8422 38.3527 21.0418 38.7396C21.1666 39.0017 21.4038 39.2762 21.5785 39.3636C21.9778 39.5633 24.8607 39.5757 25.2351 39.3885C26.0213 38.9892 26.196 38.0033 25.5845 37.3918L25.2226 37.0299H23.4255C21.9279 37.0299 21.591 37.0673 21.3663 37.2545Z"/>
    <path d="M23.9626 42.8324C22.5024 43.4314 22.0781 43.7933 22.0781 44.4547C22.0781 45.0039 22.5648 45.5904 23.1264 45.6902C23.4634 45.7526 23.8503 45.6528 24.961 45.1911C26.5834 44.5296 26.6707 44.4797 26.9078 43.9181C27.0451 43.5812 27.0451 43.4564 26.8953 43.0944C26.496 42.121 25.8221 42.0586 23.9626 42.8324Z"/>
    <path d="M28.2562 47.0129C27.7695 47.2125 25.8601 49.2967 25.7602 49.7335C25.6604 50.2327 25.9849 50.8691 26.4965 51.1063C27.158 51.4307 27.5573 51.2311 28.8552 49.8957C29.8661 48.8848 30.0658 48.6103 30.0658 48.2858C30.0658 47.25 29.1797 46.626 28.2562 47.0129Z"/>
    <path d="M32.4554 50.2229C32.0061 50.6472 31.0577 52.8687 31.0327 53.5426C31.0202 53.9419 31.0826 54.0917 31.4196 54.3912C31.9562 54.8779 32.5553 54.8779 33.0544 54.4037C33.5162 53.9794 34.4772 51.7455 34.4896 51.084C34.4896 50.6972 34.4148 50.5349 34.0903 50.2479C33.5536 49.7612 32.9546 49.7612 32.4554 50.2229Z"/>
    <path d="M54.7132 56.2609C54.5759 56.3358 53.5026 57.3591 52.317 58.5322L50.1705 60.6663L49.3219 59.7927C48.1363 58.5572 47.7619 58.3949 47.0381 58.8317C46.6137 59.0689 46.4141 59.4807 46.4141 60.0548C46.4141 60.4167 46.5763 60.6413 47.6995 61.7645C49.4342 63.5242 49.7087 63.7363 50.2579 63.7363C50.6822 63.7363 50.8943 63.5616 53.6149 60.8285C56.5103 57.9457 56.5227 57.9207 56.5227 57.3841C56.5227 56.4231 55.5493 55.8116 54.7132 56.2609Z"/>
    <path d="M59.94 58.7442C59.1288 59.0686 58.9042 60.1045 59.5032 60.7659L59.8651 61.1777L65.2689 61.2152C69.1751 61.2401 70.7725 61.2027 71.0346 61.1028C71.9082 60.7409 72.1328 59.7925 71.5088 59.0936L71.1469 58.6818L65.6683 58.6568C62.6606 58.6443 60.0773 58.6818 59.94 58.7442Z"/>
    <path d="M54.9628 66.3695C54.7132 66.4443 53.8271 67.2306 52.4044 68.6533L50.2329 70.8372L49.2844 69.9137C48.7603 69.4145 48.1862 68.9528 47.999 68.9153C47.1629 68.7032 46.4141 69.2773 46.4141 70.1134C46.4141 70.6251 46.4765 70.7 47.999 72.2475C49.7087 73.9697 50.0457 74.1694 50.7321 73.8074C50.9318 73.6951 52.317 72.3847 53.8146 70.8872L56.5227 68.1541V67.5925C56.5227 67.293 56.4354 66.9435 56.348 66.8312C56.086 66.4818 55.3871 66.2571 54.9628 66.3695Z"/>
    <path d="M59.7801 69.0284C59.0687 69.4277 58.9314 70.4136 59.5055 70.9877L59.8674 71.3496H62.9499H66.0325L66.3944 70.9877C66.9934 70.3762 66.8686 69.4277 66.1323 69.0408C65.6331 68.7788 60.2418 68.7663 59.7801 69.0284Z"/>
</symbol><symbol viewBox="0 0 75 81" id="guarantees" xmlns="http://www.w3.org/2000/svg">
    <path d="M32.4056 0.135002C31.5511 0.36805 30.8519 0.885941 30.0104 1.89582C26.8771 5.66346 23.6144 7.72207 18.6168 9.09447C15.1858 10.0267 12.3115 10.3763 6.80895 10.5057C2.8471 10.6093 2.54932 10.6481 1.85017 11.3214C1.64301 11.5156 1.34523 11.904 1.20281 12.1889L0.917969 12.7067V27.2076C0.930916 42.8349 0.930916 42.9773 1.63007 46.4731C3.19668 54.2285 7.37863 61.5954 13.1142 66.7096C14.0853 67.5641 24.5207 75.7467 28.1071 78.4527C30.7742 80.4854 34.6973 80.7961 37.8046 79.2554C38.3484 78.9835 40.0445 77.7794 41.883 76.3423C43.6308 74.9828 45.068 73.8823 45.0809 73.8823C45.1068 73.8823 44.9644 74.219 44.7831 74.6203C43.8898 76.5754 44.7313 78.8411 46.7123 79.8251L47.5021 80.2265H59.5818C71.3767 80.2265 71.6874 80.2265 72.3607 79.9675C74.2639 79.2554 75.3386 76.9767 74.7171 74.9828C74.4711 74.206 73.5648 73.0667 72.9174 72.73L72.5808 72.5488V58.1644V43.7801L73.0987 43.4823C73.7719 43.1068 74.4711 42.1617 74.73 41.2683C75.3386 39.2485 74.2381 37.0863 72.2442 36.3354C71.558 36.0894 71.2602 36.0765 64.3593 36.0765H57.1736V28.6577C57.1736 21.6662 57.1607 21.226 56.9276 20.7081C56.5133 19.8018 55.9825 19.5558 53.7426 19.2451C46.9712 18.287 41.4557 16.5391 36.6652 13.8073C33.9463 12.2536 33.299 12.2665 30.334 13.9108C27.5374 15.4516 25.8543 16.1766 22.8635 17.1476C19.8856 18.1057 16.5323 18.8567 13.1272 19.2969C11.3534 19.5299 10.9521 19.6982 10.4601 20.4362L10.1105 20.98V26.379C10.1105 31.6744 10.1105 31.8039 10.3824 32.0628C10.5248 32.2052 10.8614 32.3606 11.1204 32.4124C11.5217 32.4771 11.6383 32.4254 11.9878 32.0887L12.3763 31.7003V26.7156V21.7439L13.9688 21.5238C20.8696 20.5528 26.7865 18.6495 31.7064 15.827C33.6097 14.7265 33.6356 14.7395 35.8496 15.9953C40.6141 18.7272 47.6315 20.8894 54.1051 21.6533L54.8431 21.731V28.9037V36.0765H51.3733C47.4114 36.0765 46.9842 36.1541 45.9225 36.9828C44.9903 37.7208 44.4465 38.8731 44.4465 40.1289C44.4465 41.5531 45.1586 42.8479 46.3756 43.5988L46.8158 43.8707V56.7143V69.5709L42.3361 73.0537C39.8632 74.9699 37.5197 76.7307 37.1184 76.9638C35.0857 78.142 32.5351 78.2326 30.4506 77.1968C29.6478 76.7955 16.4287 66.5413 14.7068 64.9876C11.1463 61.7637 8.01304 57.4523 6.22633 53.2963C4.4914 49.2826 3.59804 45.5409 3.3132 41.1129C3.119 38.0703 3.18373 13.2376 3.39089 13.0304C3.48152 12.9398 5.04813 12.8492 7.79294 12.7715C14.0594 12.5902 17.089 12.1241 21.2451 10.6999C25.5177 9.22395 28.8192 7.00997 31.331 3.91559C32.3538 2.67265 32.8846 2.28424 33.5838 2.28424C34.3865 2.28424 34.749 2.54318 35.9402 3.96738C37.3773 5.68935 38.3354 6.56977 40.0704 7.73502C42.4785 9.35342 45.301 10.5964 48.4213 11.412C52.163 12.3831 54.1051 12.6161 59.4394 12.7715C63.2329 12.888 63.7249 12.9268 63.8673 13.1211C63.9968 13.2894 64.0356 15.3868 64.0356 22.5466V31.765L64.3334 32.0369C64.7736 32.4512 65.5764 32.4254 65.9907 31.9851L66.3014 31.6485V22.1841C66.3014 12.7197 66.3014 12.7067 66.0166 12.1889C65.8742 11.904 65.5764 11.5156 65.3692 11.3214C64.683 10.6611 64.3593 10.6093 60.6046 10.5187C55.2574 10.3892 52.5256 10.0785 49.2111 9.22395C44.0322 7.87743 40.0833 5.53399 37.5586 2.28424C36.8077 1.3132 36.0308 0.626999 35.3058 0.303314C34.5678 -0.0203629 33.2342 -0.0980453 32.4056 0.135002ZM71.7651 38.6659C72.9692 39.391 72.788 41.1518 71.4544 41.7215C71.1048 41.8768 69.0203 41.9027 59.7372 41.9027C52.3314 41.9027 48.2659 41.8509 47.9552 41.7732C47.4373 41.6179 46.9065 41.0482 46.777 40.4656C46.6087 39.7923 47.1266 38.8083 47.7869 38.5364C47.9293 38.4717 53.2895 38.4199 59.6983 38.4199C71.0401 38.407 71.3638 38.4199 71.7651 38.6659ZM68.1529 46.3954C68.0752 48.7518 67.881 49.8782 67.2724 51.3542C66.2885 53.7365 64.2428 55.8598 62.2489 56.559C61.8476 56.7014 61.3944 56.8956 61.239 56.9862C60.6305 57.3746 60.514 58.5658 61.0578 59.0578C61.1873 59.1743 61.6793 59.4203 62.1454 59.5886C64.7218 60.5208 66.7675 62.9419 67.7385 66.2046C68.0493 67.2404 68.0752 67.5641 68.1011 69.7392L68.114 72.1345L59.6724 72.1733L51.2179 72.1992V70.0629C51.2179 67.6547 51.3992 66.4895 52.0077 64.9746C52.4349 63.9 53.2506 62.5924 54.0533 61.6861C54.7525 60.8963 56.3321 59.8475 57.2513 59.5498C58.2482 59.239 58.5978 58.8636 58.5978 58.0997C58.5978 57.3487 58.2094 56.9344 57.2384 56.6107C54.5324 55.7303 52.1372 52.7136 51.4121 49.2826C51.2826 48.6871 51.2179 47.6383 51.2179 46.2918V44.2332H59.7113H68.2176L68.1529 46.3954ZM70.2374 58.1126V66.3082L69.8748 65.2077C69.3569 63.654 69.0462 62.9937 68.2564 61.7767C67.4796 60.5855 66.0684 59.1096 65.1621 58.5269C64.8254 58.3198 64.5535 58.1256 64.5535 58.0867C64.5535 58.0479 64.7995 57.8796 65.0973 57.6983C65.9648 57.1675 67.4667 55.6138 68.2564 54.3968C68.9944 53.2574 69.7195 51.6649 70.0173 50.5385C70.0949 50.2019 70.1856 49.93 70.2115 49.93C70.2374 49.93 70.2503 53.6199 70.2374 58.1126ZM50.1951 52.9208L50.467 53.4516L49.9879 54.1508C49.1205 55.3937 49.1463 55.4326 49.1463 52.636V50.1242L49.5348 51.2635C49.7419 51.885 50.0397 52.636 50.1951 52.9208ZM52.7068 56.4036C53.1341 56.8438 53.7556 57.3746 54.1051 57.5947C54.4418 57.8019 54.7136 58.0349 54.7136 58.0867C54.7136 58.1385 54.4677 58.3457 54.1699 58.5399C52.2148 59.8346 50.3116 62.4888 49.4571 65.13L49.1593 66.0493V62.424L49.1463 58.7988L50.0009 57.8278C50.467 57.2969 51.0625 56.5849 51.3215 56.2353C51.5804 55.8986 51.8264 55.6268 51.8653 55.6268C51.9041 55.6268 52.2796 55.9763 52.7068 56.4036ZM71.6745 74.698C72.1535 74.9311 72.5808 75.6561 72.5808 76.2128C72.5808 76.7696 72.1535 77.4946 71.6745 77.7277C71.4156 77.8571 68.7484 77.896 59.6336 77.896C48.3177 77.896 47.9034 77.883 47.515 77.65C46.9453 77.3004 46.6087 76.3941 46.8029 75.7985C46.9842 75.2806 47.1654 75.0476 47.5927 74.7498C47.8905 74.5426 48.7968 74.5297 59.6336 74.5297C68.7484 74.5297 71.4156 74.5685 71.6745 74.698Z"/>
    <path d="M33.0164 6.47961C31.4498 7.16582 31.9029 9.53516 33.6119 9.53516C34.5182 9.53516 35.1656 8.84895 35.1656 7.87791C35.1656 7.26939 34.7901 6.73856 34.1816 6.47961C33.6508 6.25951 33.5343 6.25951 33.0164 6.47961Z"/>
    <path d="M6.71827 16.0726C5.94144 16.4093 5.55302 17.458 5.94144 18.2089C6.16154 18.6491 6.89953 19.1152 7.37858 19.1152C8.28489 19.1152 9.12646 18.1183 8.93225 17.2638C8.80278 16.6682 8.54383 16.3186 8.03889 16.0856C7.521 15.8396 7.26206 15.8266 6.71827 16.0726Z"/>
    <path d="M59.0491 16.0592C58.4664 16.3182 58.1816 16.7066 58.1169 17.328C58.0521 18.0013 58.2593 18.4286 58.8419 18.817C59.6576 19.3737 60.6675 19.0759 61.1077 18.1567C61.4831 17.3669 61.1465 16.4606 60.3438 16.0851C59.8259 15.8391 59.5669 15.8262 59.0491 16.0592Z"/>
    <path d="M42.2828 24.0741C41.9462 24.1647 41.4801 24.3719 41.2341 24.5273C40.9363 24.7085 38.567 27.6216 34.5663 32.6969C31.1612 37.0472 28.3128 40.5818 28.2351 40.5559C28.1704 40.543 26.798 38.808 25.1795 36.7106C22.4218 33.1113 22.2146 32.8782 21.5025 32.5157C20.8681 32.192 20.5962 32.1273 19.8971 32.1402C18.8872 32.1532 18.2916 32.3862 17.5536 33.0465C16.7121 33.8104 16.4531 34.406 16.4531 35.623C16.4531 36.3869 16.5179 36.7753 16.6991 37.1119C16.9451 37.5651 24.3509 47.3273 25.4126 48.5961C26.1894 49.5283 27.0439 49.9297 28.2221 49.9297C29.1673 49.9297 29.8535 49.6966 30.462 49.1917C30.8763 48.8421 46.0116 29.6285 46.3353 29.0199C46.7367 28.2819 46.7367 26.6506 46.3353 25.8997C46.0116 25.2782 45.1442 24.4755 44.5615 24.2295C43.9142 23.9576 42.9302 23.8928 42.2828 24.0741ZM44.0695 26.7024C44.691 27.4145 44.6133 27.5698 41.5189 31.5058C30.0736 46.0585 28.999 47.392 28.6235 47.5474C27.7819 47.884 27.7302 47.8322 23.0562 41.7341C19.2886 36.8012 18.7189 35.9985 18.7189 35.6101C18.7189 34.7944 19.6381 34.1988 20.3632 34.5484C20.5833 34.652 21.9557 36.3351 23.9884 38.9893C25.7881 41.3457 27.3806 43.3654 27.5359 43.482C27.8596 43.7539 28.5458 43.7798 28.8695 43.5467C28.999 43.4561 32.0804 39.5978 35.7315 34.9757C39.3697 30.3406 42.5029 26.4823 42.6712 26.3917C43.1114 26.1715 43.707 26.301 44.0695 26.7024Z"/>
    <path d="M10.6898 35.8566C10.0683 36.1673 10.0165 36.4392 10.0942 39.2488C10.1719 42.1619 10.379 43.7933 11.0134 46.2403C11.9845 50.0209 13.7841 53.6072 16.2571 56.7275C17.9532 58.8638 19.5457 60.2492 26.084 65.3245C29.5798 68.0434 32.5835 70.3221 32.7648 70.3868C33.2568 70.5681 34.0724 70.5422 34.5515 70.3351C34.7845 70.2315 36.9985 68.5483 39.4844 66.6063C42.8636 63.965 44.0418 62.981 44.1324 62.6962C44.3784 61.9323 43.5498 61.039 42.773 61.2461C42.6046 61.2849 40.4943 62.8645 38.0731 64.7548C35.652 66.6321 33.6322 68.1729 33.5804 68.147C33.5157 68.134 30.8486 66.0754 27.6247 63.5896C21.6949 58.9933 19.6751 57.2454 18.1603 55.3681C15.9204 52.5974 14.1467 49.1016 13.2663 45.7224C12.6707 43.4307 12.4894 42.0195 12.4117 39.1193L12.3341 36.4133L11.9715 36.0508C11.5831 35.6624 11.1947 35.5977 10.6898 35.8566Z"/>
    <path d="M33.0104 72.3296C32.1041 72.6921 31.7545 74.0256 32.376 74.7636C33.0751 75.5922 34.0721 75.6311 34.7583 74.8413C35.4574 74.0645 35.2373 72.8345 34.331 72.4072C33.852 72.1871 33.4377 72.1612 33.0104 72.3296Z"/>
</symbol><symbol viewBox="0 0 30 28" id="heart" xmlns="http://www.w3.org/2000/svg">
    <path d="M10.8739 23.6408L10.8747 23.6414C11.8573 24.4915 12.9705 25.4547 14.1251 26.4797C14.4491 26.7678 14.8652 26.9266 15.2968 26.9266C15.7283 26.9266 16.1446 26.7678 16.4684 26.4801C17.6256 25.4527 18.7405 24.4879 19.7249 23.6366L19.7249 23.6365L19.7312 23.6311C22.6066 21.1433 25.0992 18.9867 26.8354 16.8597C28.7811 14.4763 29.6937 12.2074 29.6937 9.72409C29.6937 7.31656 28.8807 5.09126 27.3996 3.46024L27.3256 3.52746L27.3996 3.46023C25.9004 1.80947 23.8423 0.9 21.606 0.9C19.9325 0.9 18.3993 1.43766 17.0517 2.4958C16.4057 3.00294 15.8183 3.61732 15.2969 4.32919C14.7756 3.61731 14.188 3.00293 13.5423 2.49581L13.5423 2.49581C12.1946 1.43766 10.6614 0.9 8.98787 0.9C6.75142 0.9 4.6935 1.80947 3.19432 3.46023L3.19432 3.46024C1.71323 5.09125 0.9 7.31655 0.9 9.72409C0.9 12.2074 1.81283 14.4763 3.75852 16.8599L3.83598 16.7967L3.75852 16.8599C5.4952 18.9873 7.98888 21.1447 10.8657 23.6335L10.8689 23.6363L10.8697 23.637L10.8739 23.6408ZM5.20295 15.6484L5.12548 15.7117L5.20295 15.6484C3.51829 13.5848 2.77476 11.7597 2.77476 9.72409C2.77476 7.78885 3.41564 6.02248 4.57364 4.74724C5.71403 3.49168 7.28091 2.80048 8.98787 2.80048C10.2355 2.80048 11.3808 3.20267 12.3941 3.99813C13.299 4.70864 13.9311 5.60868 14.3025 6.24069L14.3025 6.24071C14.513 6.5988 14.885 6.81382 15.2968 6.81382C15.7087 6.81382 16.0807 6.5988 16.2912 6.24071L16.205 6.19003L16.2912 6.24071C16.6628 5.60868 17.2949 4.70863 18.1996 3.99812C19.2129 3.20267 20.3582 2.80048 21.606 2.80048C23.312 2.80048 24.7059 3.39304 26.0223 4.74966C27.457 6.22808 27.8189 7.7829 27.8189 9.72409C27.8189 11.7597 27.0754 13.5848 25.391 15.6484C23.7598 17.6467 21.3317 19.7476 18.5089 22.1901L18.5076 22.1912C17.5381 23.0297 16.4416 23.9785 15.2946 24.9918C14.1542 23.9805 13.0595 23.0332 12.092 22.1961L12.0911 22.1954L12.0867 22.1917C12.0866 22.1915 12.0864 22.1914 12.0863 22.1913C9.26293 19.7485 6.83427 17.6469 5.20295 15.6484Z" stroke-width="0.2"/>
</symbol><symbol viewBox="0 0 24 24" id="heart-line" xmlns="http://www.w3.org/2000/svg">
    <path d="M12.001 4.52853C14.35 2.42 17.98 2.49 20.2426 4.75736C22.5053 7.02472 22.583 10.637 20.4786 12.993L11.9999 21.485L3.52138 12.993C1.41705 10.637 1.49571 7.01901 3.75736 4.75736C6.02157 2.49315 9.64519 2.41687 12.001 4.52853ZM18.827 6.1701C17.3279 4.66794 14.9076 4.60701 13.337 6.01687L12.0019 7.21524L10.6661 6.01781C9.09098 4.60597 6.67506 4.66808 5.17157 6.17157C3.68183 7.66131 3.60704 10.0473 4.97993 11.6232L11.9999 18.6543L19.0201 11.6232C20.3935 10.0467 20.319 7.66525 18.827 6.1701Z"/>
</symbol><symbol viewBox="0 0 24 24" id="id-card-line" xmlns="http://www.w3.org/2000/svg">
    <path d="M3 6H21V18H3V6ZM2 4C1.44772 4 1 4.44772 1 5V19C1 19.5523 1.44772 20 2 20H22C22.5523 20 23 19.5523 23 19V5C23 4.44772 22.5523 4 22 4H2ZM13 8H19V10H13V8ZM18 12H13V14H18V12ZM10.5 10C10.5 11.3807 9.38071 12.5 8 12.5C6.61929 12.5 5.5 11.3807 5.5 10C5.5 8.61929 6.61929 7.5 8 7.5C9.38071 7.5 10.5 8.61929 10.5 10ZM8 13.5C6.067 13.5 4.5 15.067 4.5 17H11.5C11.5 15.067 9.933 13.5 8 13.5Z"/>
</symbol><symbol viewBox="0 0 76 85" id="quality" xmlns="http://www.w3.org/2000/svg">
    <path d="M36.4678 0.163254C35.7989 0.404465 35.5468 0.579895 33.7815 2.00523C31.0953 4.17614 30.7664 4.43929 30.5252 4.55989C30.1962 4.74628 29.67 4.72435 28.2008 4.48314C24.7799 3.92397 23.7274 3.7924 23.0147 3.83625C22.0279 3.913 21.2385 4.30771 20.493 5.10809C19.9557 5.68919 19.8461 5.91945 19.0457 7.98071C18.5742 9.21966 18.037 10.6121 17.8506 11.0836C17.6752 11.5441 17.412 12.0484 17.2695 12.1909C17.127 12.3335 16.5239 12.6186 15.9428 12.8378C13.8816 13.5834 11.6887 14.4496 11.1186 14.7346C10.373 15.1074 9.72614 15.7762 9.33143 16.5876C8.83804 17.5853 8.81611 18.1445 9.19986 20.4799C9.85771 24.4928 9.91253 24.9204 9.72614 25.326C9.63842 25.5234 8.7284 26.7075 7.70873 27.9684C6.6781 29.2183 5.73518 30.4024 5.61457 30.5998C5.25276 31.1919 5.02251 32.2773 5.09926 33.0229C5.23083 34.2618 5.42818 34.5688 8.75033 38.6036C9.97831 40.0838 9.94542 39.9522 9.66035 41.849C9.52878 42.7262 9.29854 44.1844 9.14504 45.0944C8.83804 46.9693 8.85997 47.7149 9.26564 48.603C9.7371 49.6336 10.6581 50.434 11.8861 50.8945C12.1711 51.0041 12.4014 51.1028 12.4014 51.1138C12.4014 51.1467 12.2479 51.4208 10.0441 55.2363C9.33143 56.4752 8.03766 58.7119 7.16052 60.225C6.29435 61.7271 5.01155 63.9528 4.30984 65.1589C0.209239 72.2636 0.428522 71.8689 0.406594 72.3404C0.395629 72.7899 0.647805 73.2395 1.05348 73.5026C1.31662 73.678 1.71133 73.678 6.6781 73.5026C9.6165 73.4039 12.3685 73.3272 12.8071 73.3272H13.5855L14.3311 74.7196C14.7368 75.4981 15.4165 76.7919 15.8551 77.6032C16.2827 78.4145 17.2256 80.1798 17.9383 81.5174C18.7497 83.0524 19.3308 84.0282 19.5062 84.1378C20.2846 84.6532 21.085 84.3462 21.6661 83.3046C22.0499 82.6358 23.1024 80.8047 26.1614 75.52C28.4749 71.529 30.9857 67.1653 32.3562 64.7751C32.8605 63.898 33.3101 63.1415 33.3539 63.0866C33.3978 63.0318 33.957 63.4156 34.5929 63.9199C36.2375 65.2356 37.323 65.5645 38.7702 65.1698C39.5377 64.9725 39.8338 64.797 41.0069 63.8541C41.5771 63.3936 42.0704 63.0208 42.1033 63.0208C42.1472 63.0208 42.8708 64.2488 43.7151 65.74C44.5703 67.2311 45.7434 69.2595 46.3136 70.2572C46.8947 71.2549 48.9121 74.7525 50.8089 78.0418C53.7363 83.0962 54.3174 84.0392 54.6244 84.2146C55.1068 84.4777 55.7537 84.401 56.1155 84.0501C56.3568 83.798 57.7492 81.2543 60.5012 76.0134C61.2029 74.6867 61.8388 73.5245 61.9266 73.4258C62.0033 73.3272 62.1897 73.2614 62.3213 73.2833C62.4528 73.3052 65.1391 73.4039 68.2858 73.5026C74.5792 73.7 74.5134 73.7109 74.9081 73.064C75.3138 72.3952 75.2261 72.1211 73.735 69.5336C72.9675 68.2179 71.7833 66.1456 71.0816 64.9396C70.3909 63.7335 69.5686 62.2972 69.2506 61.76C68.3735 60.2688 63.7795 52.2979 63.4396 51.6839C63.2752 51.3988 63.1874 51.1247 63.2423 51.0809C63.2861 51.037 63.6699 50.8616 64.0755 50.6862C65.0075 50.3024 65.8079 49.5568 66.2135 48.6907C66.685 47.671 66.674 46.8048 66.1368 43.6033C65.6324 40.5882 65.6105 40.1715 65.8846 39.7549C65.9833 39.6014 66.8604 38.494 67.8253 37.3099C69.8646 34.81 70.1278 34.4263 70.3032 33.7136C70.4786 32.9681 70.3799 31.6085 70.1058 31.0055C69.9852 30.7314 68.9327 29.3389 67.7814 27.9136C65.9285 25.6001 65.6873 25.2602 65.6873 24.9094C65.6873 24.6901 65.8846 23.2428 66.1368 21.6969C66.685 18.2212 66.685 17.4976 66.1258 16.4451C65.9175 16.0503 65.5228 15.546 65.2268 15.2828C64.6786 14.8004 64.6786 14.8004 59.9749 12.9804C59.0868 12.6405 58.2865 12.2677 58.1878 12.1581C58.0123 11.9717 57.5847 10.9191 56.3239 7.59696C55.4467 5.29449 54.8656 4.57085 53.4513 4.03361C52.596 3.71564 51.8724 3.74854 48.7696 4.25289C47.2675 4.4941 45.8312 4.69146 45.557 4.69146C45.0417 4.69146 45.1733 4.79014 40.7767 1.21581C39.6035 0.272896 39.0992 0.0536118 37.9479 0.009758C37.2572 -0.0231323 36.8734 0.0207214 36.4678 0.163254ZM38.2111 2.7179C38.3646 2.77273 39.5925 3.71564 40.9302 4.81207C42.2788 5.90848 43.6493 6.92815 43.9782 7.09261C44.8553 7.50925 45.9737 7.46539 49.3945 6.89526C52.3329 6.40187 52.5741 6.40187 53.0565 6.91718C53.1771 7.04875 53.7034 8.26578 54.2187 9.62534C55.7428 13.6053 55.9182 13.9233 56.894 14.5373C57.3216 14.8114 59.4158 15.6666 62.7598 16.9165C63.308 17.1248 63.7795 17.5744 63.8891 18.0129C63.9549 18.2651 63.8891 18.7366 63.2094 22.892C62.8804 24.8875 62.9133 25.5015 63.3738 26.5102C63.4944 26.7843 64.5031 28.1329 65.6324 29.5034C66.7508 30.8849 67.6937 32.1348 67.7266 32.2773C67.8472 32.7707 67.6608 33.2531 67.0359 34.0206C63.2752 38.6475 63.1436 38.8449 62.9901 39.9632C62.9462 40.336 63.0778 41.4434 63.4506 43.8226L63.9659 47.1667L63.7576 47.5504C63.4944 48.0438 63.1874 48.1973 60.3696 49.2608C57.4203 50.3682 56.6638 50.7629 56.0827 51.4646C55.6222 52.0457 55.5235 52.276 54.0104 56.2231C53.6048 57.2756 53.1771 58.2514 53.0456 58.394C52.618 58.8545 52.3219 58.8545 49.4493 58.383C47.6841 58.087 46.4013 57.9335 45.6777 57.9335C44.647 57.9225 44.5374 57.9444 43.8686 58.2843C43.4519 58.4926 42.191 59.4356 40.7986 60.5649C39.5048 61.6284 38.3207 62.5384 38.1672 62.6042C37.619 62.8125 37.2352 62.6152 35.3494 61.0802C34.3297 60.2579 33.1785 59.3259 32.7838 59.008C31.2488 57.758 30.6129 57.6703 27.0386 58.2405C25.6461 58.4707 24.2537 58.69 23.9247 58.7448C23.4423 58.8325 23.2559 58.8216 22.8722 58.6461C22.324 58.4049 22.3788 58.5146 21.0741 55.0828C19.8899 52.0238 19.7912 51.8045 19.2321 51.2563C18.6181 50.6313 18.1905 50.423 15.3069 49.3156C12.0615 48.0767 12.0505 48.0767 11.8093 47.66C11.5352 47.1996 11.5572 46.9145 12.0615 43.8445C12.5439 40.928 12.5988 40.1167 12.3466 39.2615C12.1492 38.6036 11.7326 38.0116 9.50686 35.2925C7.93898 33.3518 7.86223 33.2422 7.81837 32.7049L7.77452 32.1457L9.34239 30.1941C11.8203 27.1351 12.1602 26.6637 12.3466 26.0497C12.5878 25.2054 12.5549 24.405 12.1163 21.7956C11.5791 18.5502 11.5462 17.9581 11.8422 17.5415C12.0944 17.1796 12.2918 17.0919 15.8003 15.7543C19.6706 14.2741 19.4294 14.5592 21.5784 8.85784C22.2801 6.99393 22.3788 6.80754 22.8941 6.59922C23.3107 6.41283 23.1463 6.40187 27.532 7.10358C29.955 7.49828 30.6019 7.48732 31.5229 7.07069C31.8628 6.90622 33.1785 5.94138 34.6367 4.7682C36.0182 3.64986 37.2462 2.7179 37.3559 2.68501C37.7067 2.5973 37.926 2.60827 38.2111 2.7179ZM16.0086 52.4514C17.4888 53.0215 17.3462 52.8242 18.4865 55.8393C20.0654 59.9838 20.3066 60.3894 21.699 61.0692C22.3678 61.3982 22.4994 61.431 23.4752 61.4201C24.0563 61.4091 25.2733 61.2775 26.2163 61.1131C29.7029 60.521 30.0208 60.4772 30.4155 60.6526C30.6019 60.7403 30.887 60.9048 31.0295 61.0254L31.2927 61.2337L30.7445 62.2095C30.4375 62.7467 28.5516 66.025 26.5452 69.4897C24.5387 72.9544 22.3349 76.7809 21.6332 77.9869C20.9425 79.193 20.3614 80.1907 20.3504 80.2127C20.3175 80.2456 19.6049 78.9299 17.0063 74.0727C16.0305 72.2198 15.3288 71.0357 15.1205 70.8602C14.7258 70.5313 14.6819 70.5313 8.50912 70.7506C6.16278 70.8273 4.22213 70.8822 4.18923 70.8602C4.14538 70.8054 4.45237 70.2572 8.10344 63.9528C9.09022 62.2534 11.1186 58.7448 13.3443 54.8745C14.5833 52.7255 15.0109 52.0676 15.1424 52.1225C15.2302 52.1554 15.6249 52.3089 16.0086 52.4514ZM61.6415 53.9644C62.091 54.7539 62.8366 56.0367 63.2971 56.8261C64.3496 58.6352 69.6453 67.8122 70.6321 69.5336C71.0487 70.2572 71.3777 70.8602 71.3557 70.8712C71.3448 70.8822 69.0533 70.8273 66.2684 70.7287C63.4835 70.6409 61.0275 70.5971 60.8192 70.63C60.3258 70.7287 60.1175 71.0028 59.1636 72.8338C58.7579 73.6122 58.111 74.8293 57.7382 75.52C57.3655 76.2107 56.6528 77.5593 56.1484 78.5132C55.6441 79.4671 55.1946 80.2017 55.1507 80.1579C55.1068 80.114 54.1639 78.4913 53.0565 76.5616C51.9382 74.6319 50.3813 71.9128 49.5809 70.5313C48.7696 69.1389 47.4648 66.8693 46.6644 65.4878C45.864 64.0953 45.0088 62.6152 44.7567 62.1876C44.5155 61.76 44.3071 61.3543 44.3071 61.2885C44.3071 61.124 44.954 60.6526 45.2939 60.5758C45.568 60.5101 46.2588 60.5978 49.3507 61.124C50.2936 61.2775 51.5106 61.4091 52.0917 61.4201C53.0237 61.4201 53.1991 61.3982 53.7802 61.1131C55.0191 60.5101 55.6222 59.6658 56.4774 57.2976C57.3435 54.9512 58.0452 53.2627 58.2645 53.0654C58.3961 52.9448 58.9553 52.6707 59.4925 52.4624C60.6547 52.0019 60.4135 51.8374 61.6415 53.9644Z"/>
    <path d="M36.0793 11.2929C25.9813 12.0714 17.6376 20.0862 16.5083 30.0746C16.3109 31.7959 16.3 33.7256 16.4754 34.3177C16.6399 34.8659 17.0784 35.1948 17.6924 35.1948C18.6682 35.2167 19.1397 34.5041 19.0191 33.2213C18.8765 31.6315 19.3699 28.4519 20.0716 26.4564C20.4992 25.2613 21.5518 23.1562 22.2425 22.1584C25.0603 18.003 29.3802 15.1742 34.336 14.2204C35.2899 14.034 36.0903 13.9682 37.7459 13.9463C40.158 13.9024 40.3005 13.8695 40.6295 13.1678C40.9584 12.4771 40.6075 11.6109 39.8839 11.4026C39.3795 11.2381 37.4279 11.1943 36.0793 11.2929Z"/>
    <path d="M45.3461 13.0677C44.7102 13.3418 44.4141 14.0984 44.6882 14.7452C44.8856 15.2167 44.9294 15.2496 46.289 15.9623C46.8701 16.2583 47.6486 16.7188 48.0213 16.971C48.9204 17.574 49.2384 17.6836 49.7208 17.5192C50.2909 17.3328 50.6637 16.8394 50.6637 16.2693C50.6637 16.0171 50.587 15.6991 50.4883 15.5676C49.9839 14.8549 46.5741 12.9033 45.8504 12.9142C45.7518 12.9252 45.5215 12.991 45.3461 13.0677Z"/>
    <path d="M52.4832 18.0785C51.7815 18.2759 51.3101 19.0872 51.5184 19.7122C51.5842 19.8876 51.8912 20.3481 52.2091 20.7209C53.4261 22.1901 54.38 23.8018 55.1475 25.7096C56.1124 28.1107 56.4194 29.8212 56.4194 32.7047C56.4084 35.9611 55.9589 37.9346 54.5335 41.0046C54.0621 42.0243 54.084 42.43 54.6761 42.9453C54.9721 43.2084 55.1585 43.2852 55.5313 43.2852C56.2439 43.2852 56.529 42.9891 57.1978 41.5857C58.667 38.4719 59.4126 34.4371 59.1166 31.0711C58.7328 26.6196 57.143 22.5958 54.4239 19.1969C53.5468 18.1005 53.163 17.8812 52.4832 18.0785Z"/>
    <path d="M38.6394 22.0139C38.2776 22.1674 34.1879 24.9194 34.0235 25.1167C33.8042 25.3799 33.7384 26.1254 33.8919 26.5092C33.9686 26.6846 34.1879 26.9368 34.3853 27.0574C34.9993 27.4302 35.3611 27.3534 36.5671 26.564C37.1702 26.1693 37.6745 25.8513 37.6965 25.8513C37.7074 25.8513 37.7293 28.8884 37.7293 32.5943V39.3373H36.2492C35.1308 39.3373 34.6813 39.3811 34.4401 39.5017C33.8371 39.8087 33.6068 40.653 33.9467 41.3108C34.2976 41.9906 34.166 41.9687 39.1328 41.9687H43.6719L44.0447 41.5959C44.3517 41.2889 44.4175 41.1354 44.4175 40.7736C44.4175 40.5214 44.3407 40.1705 44.253 39.9951C43.968 39.4359 43.6061 39.3373 41.9506 39.3373H40.4704V31.2238C40.4704 22.4415 40.4814 22.573 39.8893 22.1783C39.5494 21.9591 38.9573 21.8713 38.6394 22.0139Z"/>
    <path d="M19.7462 40.5995C18.1893 41.2244 17.8494 41.4876 17.7288 42.1125C17.5863 42.8252 18.3209 43.6804 19.0664 43.6475C19.6695 43.6256 22.1474 42.573 22.5201 42.1783C23.0684 41.5863 22.8381 40.4569 22.1035 40.1499C21.5334 39.9197 21.347 39.9526 19.7462 40.5995Z"/>
    <path d="M24.3264 45.5653C24.0084 45.7736 22.5173 47.2757 22.0787 47.8239C21.6292 48.405 21.8265 49.3589 22.4844 49.6988C22.6598 49.7865 23.0107 49.8633 23.2628 49.8633C23.7014 49.8633 23.7781 49.8085 24.9294 48.6792C25.5872 48.0323 26.2012 47.3415 26.2889 47.1442C26.4534 46.7604 26.3986 46.2012 26.1793 45.9162C25.7627 45.357 24.8855 45.2035 24.3264 45.5653Z"/>
    <path d="M47.2703 45.4447C46.9633 45.5544 46.6234 45.9491 46.5028 46.3109C46.2945 46.9468 46.5028 47.3086 47.8733 48.6463C49.0904 49.8414 49.1232 49.8633 49.6276 49.8633C49.9127 49.8633 50.2526 49.7865 50.4061 49.6879C50.9323 49.337 51.1626 48.5147 50.8775 47.9665C50.6911 47.6156 48.8053 45.7079 48.4544 45.5215C48.1584 45.368 47.5883 45.3351 47.2703 45.4447Z"/>
    <path d="M29.4481 48.9663C29.2726 49.0759 29.0643 49.2952 28.9876 49.4377C28.549 50.3258 27.8254 52.1568 27.7815 52.4858C27.6828 53.2862 28.5051 54.0317 29.3275 53.8782C30.0182 53.7467 30.2265 53.4177 31.2243 50.9727C31.5642 50.1285 31.5203 49.6351 31.0598 49.1746C30.6322 48.758 29.9305 48.6593 29.4481 48.9663Z"/>
    <path d="M41.6971 49.0974C40.9625 49.5469 40.9515 50.128 41.6861 51.9371C42.322 53.5488 42.7277 54.0312 43.3856 54.0312C44.1311 54.0312 44.7451 53.4392 44.7451 52.7155C44.7451 52.3647 44.2298 50.9284 43.6926 49.7991C43.2759 48.9219 42.4536 48.6369 41.6971 49.0974Z"/>
    <path d="M35.62 50.3363C35.1376 50.7419 35.0938 50.9612 35.0938 52.7155C35.0938 54.5026 35.1705 54.8316 35.6858 55.1715C36.0696 55.4236 36.859 55.4017 37.1989 55.1276C37.6813 54.7548 37.7471 54.4149 37.7032 52.4962L37.6703 50.72L37.3085 50.402C36.848 49.9854 36.0696 49.9525 35.62 50.3363Z"/>
</symbol><symbol viewBox="0 0 27 27" id="search" xmlns="http://www.w3.org/2000/svg">
    <circle cx="11.1515" cy="11.1515" r="10.1515" stroke-width="2"/>
    <line x1="25.0116" y1="25.4531" x2="18.4258" y2="18.8673" stroke-width="2" stroke-linecap="square"/>
</symbol><symbol viewBox="0 0 24 24" id="search-line" xmlns="http://www.w3.org/2000/svg">
    <path d="M18.031 16.6168L22.3137 20.8995L20.8995 22.3137L16.6168 18.031C15.0769 19.263 13.124 20 11 20C6.032 20 2 15.968 2 11C2 6.032 6.032 2 11 2C15.968 2 20 6.032 20 11C20 13.124 19.263 15.0769 18.031 16.6168ZM16.0247 15.8748C17.2475 14.6146 18 12.8956 18 11C18 7.1325 14.8675 4 11 4C7.1325 4 4 7.1325 4 11C4 14.8675 7.1325 18 11 18C12.8956 18 14.6146 17.2475 15.8748 16.0247L16.0247 15.8748Z"/>
</symbol><symbol viewBox="0 0 24 24" id="user" xmlns="http://www.w3.org/2000/svg">
    <path d="M18.5588 19.5488C17.5654 16.8918 15.0036 15 12 15C8.99638 15 6.4346 16.8918 5.44117 19.5488M18.5588 19.5488C20.6672 17.7154 22 15.0134 22 12C22 6.47715 17.5228 2 12 2C6.47715 2 2 6.47715 2 12C2 15.0134 3.33285 17.7154 5.44117 19.5488M18.5588 19.5488C16.8031 21.0756 14.5095 22 12 22C9.49052 22 7.19694 21.0756 5.44117 19.5488M15 9C15 10.6569 13.6569 12 12 12C10.3431 12 9 10.6569 9 9C9 7.34315 10.3431 6 12 6C13.6569 6 15 7.34315 15 9Z" stroke-width="1.5" stroke-linejoin="round"/>
</symbol><symbol viewBox="0 0 24 24" id="user-star-line" xmlns="http://www.w3.org/2000/svg">
    <path d="M12 14V16C8.68629 16 6 18.6863 6 22H4C4 17.5817 7.58172 14 12 14ZM12 13C8.685 13 6 10.315 6 7C6 3.685 8.685 1 12 1C15.315 1 18 3.685 18 7C18 10.315 15.315 13 12 13ZM12 11C14.21 11 16 9.21 16 7C16 4.79 14.21 3 12 3C9.79 3 8 4.79 8 7C8 9.21 9.79 11 12 11ZM18 21.5L15.0611 23.0451L15.6224 19.7725L13.2447 17.4549L16.5305 16.9775L18 14L19.4695 16.9775L22.7553 17.4549L20.3776 19.7725L20.9389 23.0451L18 21.5Z"/>
</symbol><symbol viewBox="0 0 67 67" id="wallet" xmlns="http://www.w3.org/2000/svg">
    <path d="M44.5748 0.120178C44.3717 0.167564 39.9108 1.77186 34.6579 3.68078L25.1133 7.15338L22.6087 7.41738C21.2346 7.55953 17.4709 7.95214 14.2488 8.2906C6.26111 9.12999 4.12205 9.36014 3.70236 9.44814C1.94236 9.8069 0.602061 11.7361 0.202678 14.498C0.107909 15.1546 0.10114 17.7539 0.114678 39.1243L0.134986 63.0196L0.283908 63.4596C0.717137 64.7322 1.73929 65.7476 3.0119 66.1876L3.45189 66.3365L30.989 66.3568C55.1889 66.3704 58.5803 66.3568 59.0135 66.2688C60.408 65.9777 61.6129 64.8947 62.0935 63.4934L62.2763 62.9519L62.2966 54.3076L62.3101 45.6701L63.5827 45.6431C64.6996 45.6228 64.8892 45.6024 65.1599 45.4738C65.5864 45.2775 66.0061 44.8849 66.2227 44.4788L66.4055 44.1335V39.4289V34.7243L66.243 34.4062C66.0399 33.9933 65.6473 33.5939 65.2344 33.3976C64.9433 33.2487 64.8147 33.2351 63.6166 33.2148L62.3101 33.1877V24.7871C62.3101 19.2567 62.283 16.2309 62.2356 15.9466C62.0867 14.9989 61.4707 13.9564 60.7261 13.381C60.0763 12.8801 59.0677 12.4875 58.4246 12.4875H58.2012L58.1606 9.99644C58.1335 7.7626 58.1132 7.45799 57.9846 6.98415C57.5649 5.41369 56.4615 4.45247 54.8098 4.22231C54.3631 4.15462 54.0111 4.17493 52.2578 4.3577C51.1409 4.47277 50.1662 4.56754 50.0917 4.56754C49.9766 4.56754 49.9022 4.41185 49.6246 3.63339C49.4419 3.1257 49.1914 2.50294 49.0628 2.25247C48.3994 0.966324 47.0523 0.126945 45.5563 0.0592499C45.1976 0.0457153 44.7914 0.0727921 44.5748 0.120178ZM46.4093 2.38109C47.0929 2.76017 47.0929 2.76693 48.9274 7.80999C49.848 10.3349 50.5994 12.4198 50.5994 12.4469C50.5994 12.4672 49.1779 12.4807 47.4449 12.474L44.2905 12.4537L44.128 12.0611C43.7083 11.0254 42.5779 9.75275 41.5693 9.17737C40.5539 8.59522 39.64 8.3583 38.4487 8.3583C36.4382 8.3583 34.7459 9.19091 33.5004 10.802C33.2025 11.1946 32.7152 12.0611 32.6475 12.3318L32.6068 12.4875H24.626C20.0906 12.4875 16.6925 12.4604 16.7534 12.4266C16.8075 12.3927 20.4223 11.0727 24.7749 9.48198C29.1342 7.89799 35.4499 5.59646 38.821 4.36447L44.9471 2.13063L45.4954 2.15094C45.9557 2.17124 46.0979 2.20509 46.4093 2.38109ZM55.1686 6.44261C55.5206 6.62538 55.7034 6.82846 55.8929 7.24138C56.0418 7.57307 56.0486 7.64076 56.0689 10.0303L56.0892 12.4875H54.4714C53.2326 12.4875 52.84 12.4672 52.8129 12.3995C52.2781 10.978 50.7348 6.64569 50.7551 6.61861C50.7754 6.60507 51.4388 6.51707 52.2375 6.42907C53.9704 6.23954 54.776 6.23954 55.1686 6.44261ZM16.8211 10.1657C16.7669 10.186 15.3115 10.7207 13.5854 11.3435L10.4513 12.4875H7.08019C4.31158 12.4875 3.6482 12.5078 3.33005 12.589C3.11343 12.6432 2.9239 12.6906 2.90359 12.6906C2.8359 12.6906 3.0999 12.2574 3.33005 12.0069C3.80389 11.4857 3.75651 11.4924 7.78418 11.0592C16.1577 10.1454 17.1257 10.0506 16.8211 10.1657ZM39.2745 10.4974C40.2154 10.6869 41.1022 11.242 41.6979 12.0001C41.8671 12.21 42.0025 12.4063 42.0025 12.4334C42.0025 12.4672 40.405 12.4875 38.4487 12.4875H34.8881L34.9693 12.3318C35.1115 12.0543 35.6395 11.4857 35.9711 11.242C36.973 10.5041 38.0967 10.2537 39.2745 10.4974ZM58.9323 14.6943C59.3655 14.8973 59.7784 15.29 59.995 15.6961L60.1778 16.0413L60.1981 24.6179L60.2117 33.2013L51.6689 33.2148L43.1194 33.2351L42.7336 33.4247C42.2597 33.6548 41.8468 34.1083 41.6843 34.5754C41.5693 34.9003 41.5625 35.2659 41.5625 39.4628V43.9981L41.7385 44.3705C41.989 44.912 42.2259 45.1489 42.7336 45.3994L43.1871 45.6228L51.696 45.6431L60.2117 45.6566V54.1181C60.2117 62.4171 60.2117 62.5796 60.0763 62.9384C59.9003 63.4122 59.5686 63.7845 59.1218 64.035L58.7563 64.2381L31.2801 64.2584L3.80389 64.2719L3.45866 64.1162C2.95774 63.8861 2.61251 63.5544 2.38913 63.0873L2.19959 62.6811V39.456C2.19959 13.3946 2.14544 15.8992 2.72082 15.2629C3.05928 14.8838 3.41128 14.674 3.84451 14.586C4.0002 14.5589 16.3878 14.5386 31.3749 14.5453L58.6209 14.5521L58.9323 14.6943ZM63.8535 35.4351C63.9753 35.5096 64.131 35.6653 64.2055 35.7871C64.3341 36.0037 64.3409 36.1391 64.3409 39.4357V42.8609L64.1852 43.0911C64.1039 43.2197 63.9279 43.3754 63.7993 43.4363C63.5759 43.5514 62.9667 43.5581 53.9908 43.5581H44.4259L44.1619 43.4092C43.9926 43.3145 43.8505 43.1588 43.7625 42.9828C43.6339 42.712 43.6271 42.5631 43.6271 39.4019C43.6271 36.2203 43.6339 36.0985 43.7625 35.8345C43.8437 35.6856 43.9994 35.5028 44.1213 35.4351C44.3311 35.2997 44.5274 35.2997 53.984 35.2997C63.4879 35.2997 63.6301 35.2997 63.8535 35.4351Z"/>
    <path d="M4.72719 18.8507C4.61212 18.9319 4.44965 19.1283 4.36842 19.2975C4.18566 19.663 4.23304 20.0421 4.4835 20.3467C4.80165 20.719 4.91673 20.7461 6.34503 20.7461C7.52964 20.7461 7.67179 20.7326 7.87487 20.6107C8.23364 20.3941 8.37579 20.103 8.34195 19.6427C8.32164 19.2975 8.28779 19.223 8.07118 18.9996L7.82072 18.7492L6.37888 18.7289C5.02504 18.7153 4.93027 18.7221 4.72719 18.8507Z"/>
    <path d="M10.9241 18.8778C10.6736 19.047 10.457 19.4532 10.457 19.7443C10.457 20.0286 10.721 20.4482 10.9918 20.5972C11.2355 20.7393 11.3438 20.7461 12.5623 20.7461C14.0312 20.7461 14.1733 20.7055 14.4509 20.2587C14.7352 19.7916 14.5659 19.135 14.0989 18.8507C13.8958 18.7289 13.7536 18.7153 12.5216 18.7153C11.1949 18.7153 11.161 18.7221 10.9241 18.8778Z"/>
    <path d="M17.1608 18.8643C16.7005 19.1824 16.5651 19.751 16.8427 20.2316C17.1067 20.6987 17.2827 20.7461 18.7516 20.7461C20.1596 20.7461 20.3626 20.6987 20.6334 20.3264C20.8365 20.0556 20.8636 19.487 20.6876 19.2027C20.3965 18.7492 20.2611 18.7153 18.7448 18.7153C17.4451 18.7153 17.3707 18.7221 17.1608 18.8643Z"/>
    <path d="M23.3834 18.871C22.7335 19.3043 22.7945 20.3061 23.4849 20.6378C23.6745 20.7258 23.952 20.7461 24.9809 20.7461C26.0098 20.7461 26.2874 20.7258 26.4769 20.6378C27.1674 20.3061 27.2283 19.3043 26.5784 18.871C26.3551 18.7221 26.2874 18.7153 24.9809 18.7153C23.6745 18.7153 23.6068 18.7221 23.3834 18.871Z"/>
    <path d="M29.628 18.8507C29.276 19.0673 29.1271 19.3652 29.1609 19.7849C29.188 20.1978 29.3505 20.455 29.6889 20.6242C29.8852 20.7258 30.1154 20.7461 31.2052 20.7461C32.6742 20.7461 32.8502 20.6987 33.1142 20.2316C33.3917 19.751 33.2563 19.1824 32.796 18.8643C32.5862 18.7221 32.5117 18.7153 31.212 18.7153C29.9732 18.7153 29.8311 18.7289 29.628 18.8507Z"/>
    <path d="M35.8546 18.8507C35.55 19.0403 35.3672 19.3652 35.3672 19.7307C35.3672 20.0963 35.55 20.4212 35.8546 20.6107C36.0576 20.7326 36.1998 20.7461 37.3979 20.7461C38.5555 20.7461 38.7518 20.7326 38.9549 20.6175C39.2121 20.4821 39.4964 20.015 39.4964 19.7375C39.4896 19.4396 39.2595 19.0132 39.009 18.8643C38.7856 18.7221 38.6841 18.7153 37.425 18.7153C36.1998 18.7153 36.0576 18.7289 35.8546 18.8507Z"/>
    <path d="M42.0947 18.8439C41.7359 19.0606 41.5938 19.3043 41.5938 19.6901C41.5938 20.0963 41.763 20.4144 42.0811 20.6107C42.2842 20.7326 42.4264 20.7461 43.6313 20.7461C44.8971 20.7461 44.9716 20.7393 45.1814 20.5904C45.5402 20.3467 45.6824 20.1098 45.6824 19.7443C45.6824 19.3652 45.5064 19.0335 45.2085 18.8439C45.019 18.7289 44.8633 18.7153 43.6516 18.7153C42.4534 18.7153 42.2842 18.7289 42.0947 18.8439Z"/>
    <path d="M48.3995 18.7763C47.77 19.0335 47.5872 19.9609 48.0746 20.4212C48.413 20.7326 48.4943 20.7461 49.8752 20.7461C51.1275 20.7461 51.2019 20.7393 51.4118 20.5904C51.7773 20.3467 51.9127 20.1098 51.9127 19.7375C51.9127 19.4938 51.8653 19.3381 51.7435 19.1621C51.4659 18.7492 51.317 18.7153 49.8413 18.7221C49.1238 18.7221 48.474 18.7492 48.3995 18.7763Z"/>
    <path d="M54.4772 18.8507C54.3621 18.9319 54.1997 19.1283 54.1184 19.2975C53.9357 19.663 53.983 20.0421 54.2335 20.3467C54.5517 20.719 54.6667 20.7461 56.095 20.7461C57.2796 20.7461 57.4218 20.7326 57.6249 20.6107C57.9498 20.4144 58.1122 20.103 58.1122 19.6766C58.1122 19.3516 58.0852 19.2907 57.8483 19.0335L57.5775 18.7492L56.1356 18.7289C54.775 18.7153 54.6803 18.7221 54.4772 18.8507Z"/>
    <path d="M4.69457 58.2743C4.21396 58.606 4.11242 59.3032 4.47795 59.7432C4.79611 60.1155 4.91118 60.1426 6.30564 60.1426C7.38194 60.1426 7.6121 60.1223 7.81517 60.0207C8.16717 59.8447 8.35671 59.5198 8.35671 59.0731C8.35671 58.7278 8.3364 58.6872 8.05886 58.4097L7.76779 58.1118H6.35302C4.95857 58.1118 4.93149 58.1118 4.69457 58.2743Z"/>
    <path d="M10.9447 58.2472C10.8093 58.3352 10.6671 58.5044 10.5791 58.7007C10.3558 59.2084 10.4979 59.6484 10.9988 59.9869C11.2087 60.1358 11.2831 60.1426 12.5151 60.1426C13.6117 60.1426 13.8419 60.1223 14.045 60.0207C14.6948 59.6958 14.776 58.8429 14.2142 58.3149C14.0382 58.1457 14.0247 58.1457 12.6031 58.1254C11.2561 58.1118 11.1545 58.1186 10.9447 58.2472Z"/>
    <path d="M17.1527 58.2675C16.7059 58.5654 16.5637 59.134 16.8277 59.601C17.0985 60.0817 17.3083 60.1426 18.7502 60.1426C19.7791 60.1426 20.0566 60.1223 20.2462 60.0343C20.9569 59.6958 21.0043 58.6601 20.3274 58.2472C20.1243 58.1254 19.9822 58.1118 18.7434 58.1118C17.4437 58.1118 17.3693 58.1186 17.1527 58.2675Z"/>
    <path d="M23.3834 58.2677C22.7335 58.7009 22.7945 59.7027 23.4849 60.0344C23.8234 60.1969 26.1384 60.1969 26.4769 60.0344C27.1674 59.7027 27.2283 58.7009 26.5784 58.2677C26.3551 58.1187 26.2874 58.112 24.9809 58.112C23.6745 58.112 23.6068 58.1187 23.3834 58.2677Z"/>
    <path d="M29.6293 58.2472C28.9524 58.6601 28.9998 59.6958 29.7106 60.0343C29.9001 60.1223 30.1776 60.1426 31.1998 60.1426C32.6552 60.1426 32.8515 60.0884 33.1222 59.6146C33.393 59.134 33.2576 58.5721 32.8041 58.2675C32.5875 58.1186 32.513 58.1118 31.2133 58.1118C29.9746 58.1118 29.8324 58.1254 29.6293 58.2472Z"/>
    <path d="M35.8559 58.2472C35.179 58.6601 35.2129 59.6755 35.9101 60.0207C36.1132 60.1223 36.3433 60.1426 37.4264 60.1426C38.611 60.1426 38.7193 60.129 38.963 59.9937C39.2541 59.8312 39.4978 59.4183 39.4978 59.0866C39.4978 58.8091 39.2879 58.4435 39.0239 58.2608C38.8141 58.1186 38.7396 58.1118 37.4399 58.1118C36.2012 58.1118 36.059 58.1254 35.8559 58.2472Z"/>
    <path d="M41.8916 58.4097C41.6141 58.6872 41.5938 58.7278 41.5938 59.0731C41.5938 59.5198 41.7833 59.8447 42.1353 60.0207C42.3384 60.1223 42.5685 60.1426 43.6448 60.1426C45.0393 60.1426 45.1543 60.1155 45.4725 59.7432C45.8448 59.2964 45.7297 58.5654 45.2356 58.2608C45.0122 58.1186 44.9107 58.1118 43.5907 58.1118H42.1827L41.8916 58.4097Z"/>
    <path d="M48.2654 58.2404C47.7713 58.5721 47.6359 59.249 47.9811 59.6958C48.2993 60.1155 48.4076 60.1426 49.8697 60.1426C51.122 60.1426 51.1965 60.1358 51.4063 59.9869C52.0494 59.5537 52.0629 58.6331 51.4334 58.2404C51.2439 58.1254 51.0882 58.1118 49.8426 58.1118C48.5971 58.1118 48.4414 58.1254 48.2654 58.2404Z"/>
    <path d="M54.4446 58.2743C53.964 58.606 53.8624 59.3032 54.228 59.7432C54.5461 60.1155 54.6612 60.1426 56.0556 60.1426C57.1319 60.1426 57.3621 60.1223 57.5652 60.0207C57.9172 59.8447 58.1067 59.5198 58.1067 59.0731C58.1067 58.7278 58.0864 58.6872 57.8089 58.4097L57.5178 58.1118H56.103C54.7086 58.1118 54.6815 58.1118 54.4446 58.2743Z"/>
    <path d="M47.3283 37.398C46.665 37.5673 46.0287 38.1426 45.8188 38.7654C45.5683 39.5236 45.8188 40.4306 46.4348 40.9722C47.2403 41.6829 48.5806 41.6152 49.2914 40.83C49.684 40.3968 49.8194 40.0177 49.8126 39.3949C49.8126 38.7451 49.6299 38.3186 49.1763 37.9125C48.6686 37.4522 47.9308 37.2491 47.3283 37.398Z"/>
</symbol><symbol id="website" enable-background="new 0 0 497 497" viewBox="0 0 497 497" xmlns="http://www.w3.org/2000/svg">
    <g>
        <path d="m497 128.5v312c0 11.046-8.954 20-20 20h-457c-11.046 0-20-8.954-20-20v-312z"/>
        <g>
            <path d="m290.498 294.5c0-23.196-18.804-42-42-42-7.031 0-13.659 1.728-19.482 4.782-13.386 7.021-19.327 21.053-19.327 37.218 0 23.196 15.613 36.457 38.809 36.457 16.214 0 30.282-3.645 37.282-17.099 3.014-5.792 4.718-12.376 4.718-19.358z"/>
            <path d="m286.468 312.47c-6.73 14.21-21.2 24.03-37.97 24.03-23.2 0-42-18.8-42-42 0-16.77 9.82-31.24 24.03-37.97-2.59 5.45-4.03 11.54-4.03 17.97 0 23.2 18.8 42 42 42 6.43 0 12.52-1.44 17.97-4.03z"/>
        </g>
        <g>
            <path d="m429.496 294.5c0-23.196-18.804-42-42-42-7.031 0-13.659 1.728-19.482 4.782-13.386 7.021-19.327 21.053-19.327 37.218 0 23.196 15.613 36.457 38.809 36.457 16.214 0 30.282-3.645 37.282-17.099 3.014-5.792 4.718-12.376 4.718-19.358z"/>
            <path d="m425.466 312.47c-6.73 14.21-21.2 24.03-37.97 24.03-23.2 0-42-18.8-42-42 0-16.77 9.82-31.24 24.03-37.97-2.59 5.45-4.03 11.54-4.03 17.97 0 23.2 18.8 42 42 42 6.43 0 12.52-1.44 17.97-4.03z"/>
        </g>
        <path d="m497 148.5v-20l-276.011-12.798-220.989 12.798v20 292c0 11.046 8.954 20 20 20h15c-8.28 0-15-6.72-15-15v-291c0-3.314 2.686-6 6-6z"/>
        <g>
            <path d="m497 56.5v72.5h-497v-72.5c0-11.046 8.954-20 20-20h457c11.046 0 20 8.954 20 20z"/>
            <g>
                <path d="m227.758 108.5c-8.255 0-14.947-6.716-14.947-15s6.692-15 14.947-15h208.315c8.255 0 14.947 6.716 14.947 15s-6.692 15-14.947 15z"/>
                <ellipse cx="160.869" cy="93.5" rx="14.947" ry="15"/>
                <path d="m171.361 104.184 12.874-12.869-13.139 1.179z"/>
                <path d="m150.592 82.608 12.562-12.516-2.693 10.408z"/>
                <ellipse cx="98.034" cy="93.5" rx="14.947" ry="15"/>
                <path d="m108.553 104.157 12.382-12.499-12.674.836z"/>
                <path d="m87.757 82.608 12.371-12.459-2.502 10.351z"/>
                <ellipse cx="32.947" cy="93.5" rx="14.947" ry="15"/>
                <path d="m43.769 103.846 12.721-13.186-13.139 1.381z"/>
                <path d="m22.67 82.608 11.622-12.038-1.753 9.93z"/>
            </g>
            <ellipse cx="173.849" cy="80.5" rx="14.947" ry="15"/>
            <path d="m217.514 82.577 12.971-12.991-3.025 14.276z"/>
            <path d="m446.83 103.915 13.149-13.179-10.185 3.381z"/>
            <ellipse cx="110.946" cy="80.5" rx="14.947" ry="15"/>
            <ellipse cx="45.495" cy="80.5" rx="14.947" ry="15"/>
            <path d="m240.737 95.5c-8.255 0-14.947-6.716-14.947-15s6.692-15 14.947-15h208.315c8.255 0 14.947 6.716 14.947 15s-6.692 15-14.947 15z"/>
        </g>
        <path d="m135.893 215 226.628 2c5.523 0 10-4.477 10-10l3.479-7v-30c0-5.523-4.477-10-10-10h-224l-6.107 5c-5.523 0-10 4.477-10 10v30c0 5.523 4.477 10 10 10z"/>
        <path d="m376 200v10c0 5.523-4.477 10-10 10h-234c-5.523 0-10-4.477-10-10v-40c0-5.523 4.477-10 10-10h10v33c0 3.866 3.134 7 7 7z"/>
        <g>
            <path d="m151.5 294.5c0-23.196-18.804-42-42-42-7.031 0-13.659 1.728-19.482 4.782-13.386 7.021-19.327 21.053-19.327 37.218 0 23.196 15.613 36.457 38.809 36.457 16.214 0 30.282-3.645 37.282-17.099 3.014-5.792 4.718-12.376 4.718-19.358z"/>
            <path d="m147.47 312.47c-6.73 14.21-21.2 24.03-37.97 24.03-23.2 0-42-18.8-42-42 0-16.77 9.82-31.24 24.03-37.97-2.59 5.45-4.03 11.54-4.03 17.97 0 23.2 18.8 42 42 42 6.43 0 12.52-1.44 17.97-4.03z"/>
        </g>
        <g>
            <g>
                <path d="m149.5 374h-70c-4.142 0-7.5-3.358-7.5-7.5s3.358-7.5 7.5-7.5h70c4.142 0 7.5 3.358 7.5 7.5s-3.358 7.5-7.5 7.5z"/>
            </g>
            <g>
                <path d="m149.5 404h-80c-4.142 0-7.5-3.358-7.5-7.5s3.358-7.5 7.5-7.5h80c4.142 0 7.5 3.358 7.5 7.5s-3.358 7.5-7.5 7.5z"/>
            </g>
            <g>
                <path d="m149.5 434h-80c-4.142 0-7.5-3.358-7.5-7.5s3.358-7.5 7.5-7.5h80c4.142 0 7.5 3.358 7.5 7.5s-3.358 7.5-7.5 7.5z"/>
            </g>
        </g>
        <g>
            <g>
                <path d="m288.5 374h-70c-4.142 0-7.5-3.358-7.5-7.5s3.358-7.5 7.5-7.5h70c4.143 0 7.5 3.358 7.5 7.5s-3.357 7.5-7.5 7.5z"/>
            </g>
            <g>
                <path d="m288.5 404h-80c-4.142 0-7.5-3.358-7.5-7.5s3.358-7.5 7.5-7.5h80c4.143 0 7.5 3.358 7.5 7.5s-3.357 7.5-7.5 7.5z"/>
            </g>
            <g>
                <path d="m288.5 434h-80c-4.142 0-7.5-3.358-7.5-7.5s3.358-7.5 7.5-7.5h80c4.143 0 7.5 3.358 7.5 7.5s-3.357 7.5-7.5 7.5z"/>
            </g>
        </g>
        <g>
            <g>
                <path d="m427.5 374h-70c-4.143 0-7.5-3.358-7.5-7.5s3.357-7.5 7.5-7.5h70c4.143 0 7.5 3.358 7.5 7.5s-3.357 7.5-7.5 7.5z"/>
            </g>
            <g>
                <path d="m427.5 404h-80c-4.143 0-7.5-3.358-7.5-7.5s3.357-7.5 7.5-7.5h80c4.143 0 7.5 3.358 7.5 7.5s-3.357 7.5-7.5 7.5z"/>
            </g>
            <g>
                <path d="m427.5 434h-80c-4.143 0-7.5-3.358-7.5-7.5s3.357-7.5 7.5-7.5h80c4.143 0 7.5 3.358 7.5 7.5s-3.357 7.5-7.5 7.5z"/>
            </g>
        </g>
    </g>
</symbol></svg>