<?xml version="1.0" encoding="utf-8"?><svg viewBox="0 0 512 512" xmlns="http://www.w3.org/2000/svg" xmlns:xlink="http://www.w3.org/1999/xlink"><style>:root>svg{display:none}:root>svg:target{display:block}</style><svg fill="none" viewBox="0 0 30 30" id="cart" xmlns="http://www.w3.org/2000/svg">
    <path d="M1.55.888c-.145.035-.27.117-.402.245l-.002.002a.96.96 0 0 0-.283.51.971.971 0 0 0 .086.576l.137-.062M1.55.888 28.292 26.85M1.55.887a.673.673 0 0 1 .096-.012 22.865 22.865 0 0 1 .635-.019C2.684.852 3.237.85 3.888.852l2.151.007h.038l.033.018.175.095L1.55.888Zm-.464 1.271-.137.062c.094.21.272.389.475.482m-.338-.544c-.155-.344-.1-.651.166-.918l2.144 1.377c-1.01-.01-1.87-.033-1.91-.051m-.4-.408c.08.178.231.33.4.408m-.062.136.063-.136m-.063.136.063-.136m-.063.136a.178.178 0 0 0 .038.012 3.93 3.93 0 0 0 .19.016 88.608 88.608 0 0 0 1.742.038l1.724.017.107.458.097.425c.134.585.368 1.61.603 2.63l.722 3.157c.487 2.13 1.06 4.641 1.624 7.098a270.488 270.488 0 0 1 .432 1.912 3.264 3.264 0 0 0-1.769 1.705c-.558 1.207-.348 2.672.531 3.632l.127.14-.059.067c-.6.67-.899 1.659-.762 2.548.197 1.276 1.085 2.265 2.331 2.584.198.05.46.072.718.07.257-.003.522-.03.726-.085 1.069-.289 1.902-1.145 2.19-2.24.155-.594.098-1.406-.135-1.98h10.083l-.003.01c-.17.426-.22.708-.22 1.192 0 .544.08.91.318 1.398a3.032 3.032 0 0 0 3.05 1.694c1.26-.148 2.264-1.042 2.608-2.312m0 0-.145-.04m.145.04-.145-.04m.145.04c.057-.206.086-.485.09-.755a2.988 2.988 0 0 0-.068-.744c-.256-.976-.839-1.71-1.702-2.12a2.43 2.43 0 0 1-.095-.048c-.084-.044-.167-.088-.29-.118-.168-.041-.425-.065-.933-.08-.858-.026-2.473-.03-5.683-.037l-2.025-.004m10.561 3.866c.105-.377.116-1.062.022-1.421-.246-.937-.802-1.633-1.62-2.022-.08-.037-.133-.068-.19-.095-.362-.176-.817-.16-8.774-.178m0-.15v.15m0-.15v.15m0-.15c-4.006-.012-6.064-.018-7.14-.03a24.04 24.04 0 0 1-.992-.023c-.158-.01-.185-.021-.2-.028m8.332.23c-8.013-.022-8.233-.026-8.392-.092m0 0 .06-.137m-.06.137a1.705 1.705 0 0 1-.852-.818l.01-1.285c.214-.459.65-.8 1.134-.881m-.292 2.984.058-.138h.001m0 0a1.554 1.554 0 0 1-.776-.745.726.726 0 0 1-.076-.21 2.417 2.417 0 0 1-.014-.355c0-.194.003-.285.015-.357A.909.909 0 0 1 8.633 21a1.417 1.417 0 0 1 1.02-.796m0 0h-.001l-.022-.148m.022.148h.01l.032-.002a31.622 31.622 0 0 1 .501-.011c.336-.005.82-.009 1.452-.012 1.264-.006 3.116-.01 5.55-.01 2.589 0 4.438-.003 5.655-.01.61-.003 1.06-.007 1.369-.012a18.367 18.367 0 0 0 .462-.014.526.526 0 0 0 .07-.008l-15.123-.07m.022.15a.03.03 0 0 0 .003-.001l-.025-.148M29.293 6.275v-.003c.083-.86-.491-1.72-1.316-1.982m1.316 1.985L6.92 2.904c-.364-1.581-.382-1.633-.704-1.8l.072-.132h-.001c.08.041.16.085.23.156a.819.819 0 0 1 .175.291c.095.244.194.667.375 1.45v.001l.176.776a795.404 795.404 0 0 1 .123.542v.005m21.928 2.082c-.008.073-.067.351-.151.726-.085.382-.2.876-.325 1.39-.245 1.03-.53 2.21-.632 2.63l1.108-4.746ZM27.977 4.29l-.046.143.047-.143Zm0 0c-.073-.024-.141-.04-.351-.05-.209-.01-.569-.018-1.232-.022-1.33-.01-3.887-.01-8.917-.01h-.003a4398.926 4398.926 0 0 1-9.422-.01 132.026 132.026 0 0 1-.686-.005m0 0 .018.082.005.026.002.01.001.006.001.006.001.017a.262.262 0 0 0-.07-.128.269.269 0 0 0-.035-.015l-.021-.005H7.26L7.26 4.19h.004a2.15 2.15 0 0 0 .103.002Zm1.99 23.178a1.3 1.3 0 0 1-.816-.888 1.346 1.346 0 0 1 .88-1.673m-.064 2.562.054-.14m-.054.14c.238.092.657.088.892-.008l.008-2.352m-.9 2.36.054-.14m0 0a1.151 1.151 0 0 1-.726-.792 1.196 1.196 0 0 1 .784-1.488m-.058 2.28c.095.037.239.058.392.057a1.12 1.12 0 0 0 .388-.064c.976-.403 1.014-1.766.066-2.213m-.788-.06-.047-.142m.047.142-.047-.142m.047.142c.092-.03.233-.043.387-.032.153.011.3.045.4.092m-.834-.202c.234-.078.653-.049.899.066l-.064.136m15.723.012c.236.105.453.331.578.603a.78.78 0 0 1 .068.198c.012.063.016.142.016.284 0 .2-.024.346-.076.473a1.165 1.165 0 0 1-.274.383m-.312-1.94.418 2.047-.106-.106m-.312-1.942h-.002c-.644-.298-1.378.036-1.587.728-.074.247-.082.383-.034.594.087.382.318.674.666.842.102.049.16.071.217.084.059.012.126.016.251.016m.489-2.264-.489 2.264m.801-.322a1.06 1.06 0 0 1-.355.247c-.123.05-.264.073-.446.075m.801-.322-.8.322m.74-8.354h-.001l-.136-.063.136.062v.001ZM8.72 18.546c0 .002 0 .003 0 0Zm18.732-12.4h-.002.002Zm-.05.03.008-.035a3.844 3.844 0 0 0-.224-.013 55.184 55.184 0 0 0-1.319-.017c-1.364-.009-3.841-.01-8.32-.01-4.706 0-7.182 0-8.481.009a37.597 37.597 0 0 0-1.25.021 86.774 86.774 0 0 0 .242 1.081 721.528 721.528 0 0 1 .245 1.06 42.04 42.04 0 0 0 .623.003l2.024.003c1.707.002 4.062.003 6.654.003h9.301l.007-.028v-.001a94.978 94.978 0 0 0 .49-2.076Zm-.966 4.068.006-.024h-.018l-.572-.003a3451.188 3451.188 0 0 0-16.496.01 110.545 110.545 0 0 0-.591.004l.036.16.203.899c.171.754.408 1.79.668 2.927l.919 4.023h13.814l.071-.075.003-.004a.208.208 0 0 0 .046-.062c.017-.033.039-.09.07-.198.063-.215.156-.6.331-1.341l.374-1.556.003-.012.37-1.542a1360.863 1360.863 0 0 0 .763-3.206Z" fill="#444" stroke="#444" stroke-width=".3"/>
</svg><svg fill="none" viewBox="0 0 66 66" id="cart-pluses" xmlns="http://www.w3.org/2000/svg">
    <path d="M31.582.103c-1.618.394-3.093 1.683-3.716 3.252-.595 1.51-.516 3.014.25 4.669.265.565.28.644.187.759-.058.064-1.683 1.926-3.61 4.132-3.308 3.788-5.227 6.008-5.857 6.788-.365.452-.423.888-.186 1.375.179.373.637.716 1.038.795.508.093 1.153-.465 3.273-2.843.974-1.103 6.624-7.562 7.297-8.357l.258-.308.565.187a5.953 5.953 0 0 0 3.638.007l.573-.18.25.301c.144.165.695.795 1.225 1.411a819.81 819.81 0 0 1 2.972 3.402c5.099 5.85 5.743 6.495 6.36 6.38.88-.164 1.453-1.181 1.073-1.883-.157-.28-1.955-2.378-6.28-7.326-1.805-2.07-3.337-3.817-3.394-3.888-.1-.115-.08-.18.186-.752.415-.895.594-1.526.637-2.306a5.348 5.348 0 0 0-1.64-4.197 5.364 5.364 0 0 0-2.7-1.432c-.601-.122-1.847-.122-2.399.014Zm1.913 2.643c.88.229 1.482.716 1.847 1.497.652 1.389.05 3.029-1.36 3.688-.344.157-.495.186-1.082.186-.558 0-.745-.029-1.031-.165-1.382-.637-2.02-2.177-1.482-3.588.272-.73.93-1.317 1.783-1.59.508-.157.795-.164 1.325-.028ZM11.884 24.701c-8.465.05-7.727 0-8.951.623-.523.265-.774.458-1.332 1.017-.595.587-.73.773-1.017 1.36-.18.373-.387.889-.451 1.146-.172.638-.18 1.955-.008 2.578.144.545.523 1.375.824 1.805.601.874 1.597 1.64 2.678 2.055.523.2.623.265.659.43.115.537 1.532 7.52 1.833 9.03 1.626 8.171 2.829 13.986 3.18 15.397.415 1.668.63 1.983 1.704 2.585l.595.336 17.107.043 17.116.036.608.423c1.16.802 2.872 1.575 4.29 1.933.737.186.83.193 2.7.193 1.61 0 2.033-.021 2.542-.136 2.6-.565 5.005-1.955 6.731-3.881 1.275-1.425 2.356-3.495 2.793-5.342.465-1.984.358-4.784-.258-6.646-.265-.809-1.189-2.6-1.726-3.365-.58-.817-1.904-2.163-2.742-2.793-.337-.25-.638-.473-.666-.502-.036-.028.136-1.016.38-2.19.959-4.663 1.088-5.293 1.095-5.3.007 0 .286-.115.623-.25 1.97-.796 3.251-2.357 3.58-4.362.18-1.088-.114-2.535-.723-3.552-.487-.816-1.468-1.726-2.32-2.162-.688-.351-1.103-.43-2.535-.48-1.697-.065-38.069-.086-48.31-.029Zm45.473 2.707 3.796.043.379.215c1.196.651 1.819 1.983 1.482 3.158-.236.823-.716 1.368-1.59 1.812l-.443.222H4.815l-.5-.265c-.616-.323-1.132-.831-1.397-1.375-.179-.351-.2-.48-.193-1.046 0-.53.036-.716.186-1.038.208-.459.602-.953.988-1.232.595-.437.516-.43 5.049-.487 5.557-.064 43.618-.071 48.41-.007Zm.344 8.221.995.029-.05.3c-.136.867-1.117 5.672-1.16 5.715-.036.021-.458-.05-.952-.172-.888-.215-.91-.215-3.044-.222l-2.148-.007-.71.2c-1.474.423-3.107 1.146-4.117 1.84-.86.58-2.657 2.378-3.208 3.216-.723 1.082-1.49 2.85-1.855 4.268-.2.767-.207.845-.207 2.543.007 1.883.071 2.506.372 3.473.208.673.68 1.79 1.174 2.771l.351.702h-15.54c-12.367 0-15.553-.022-15.575-.086-.021-.05-.487-2.335-1.038-5.07a8893.122 8893.122 0 0 0-3.61-17.867c-.143-.666-.257-1.304-.257-1.411v-.193l1.095-.022c1.633-.036 48.338-.036 49.484-.007ZM54.922 44c3.66.595 6.567 3.065 7.734 6.567.308.924.394 1.576.394 2.915s-.086 1.99-.394 2.907a9.973 9.973 0 0 1-3.487 4.834c-.716.53-2.22 1.282-3.08 1.525-1.367.394-3.752.394-5.098.007-.773-.222-1.905-.716-2.413-1.06a2.674 2.674 0 0 1-.645-.623c-.193-.293-.35-.415-.773-.63-.802-.4-1.54-1.31-2.3-2.814-1.295-2.556-1.274-5.78.051-8.407.874-1.747 2.012-2.98 3.674-3.96 1.353-.802 2.664-1.218 4.44-1.404.365-.036 1.16.022 1.897.143Z" fill="#1CA342"/>
    <path d="M20.477 41.15c-.674.122-1.053.43-1.196.967-.072.294-.093 1.54-.093 6.13v5.75l.379.351c.716.66 1.375.63 2.077-.1l.236-.243.043-5.185c.036-5.693 0-6.638-.265-7.032-.28-.408-.83-.71-1.181-.638ZM28.398 41.236c-.666.222-.83.473-.945 1.475-.107.924-.043 10.298.079 10.985.1.573.207.745.587.939.587.3 1.246.15 1.776-.394l.25-.265V42.274l-.171-.343c-.308-.63-.946-.91-1.576-.695ZM36.634 41.236c-.673.222-.838.48-.938 1.482-.079.76-.079 7.269 0 9.696.057 1.719.114 1.92.63 2.206.594.322 1.267.179 1.805-.387l.25-.258v-11.7l-.172-.345c-.308-.63-.945-.91-1.575-.694ZM57.787 49.484c-.079.043-1.318 1.246-2.757 2.671-1.44 1.425-2.685 2.628-2.771 2.671-.136.079-.25-.014-1.253-.967-1.755-1.668-2.041-1.854-2.636-1.675-.888.265-1.26 1.21-.78 1.983.236.387 3.022 3.173 3.673 3.681.373.287.466.322.874.344.415.029.48.014.752-.186.83-.616 6.373-6.209 6.631-6.696.136-.265.136-.91-.007-1.181-.294-.566-1.239-.917-1.726-.645Z" fill="#1CA342"/>
</svg><svg fill="none" viewBox="0 0 90 68" id="delivery" xmlns="http://www.w3.org/2000/svg">
    <path d="M1.032.431c-.273.09-.74.57-.824.854-.201.691.072 1.383.685 1.712l.223.122 26.858.028c26.057.028 26.865.034 27.054.134.273.145.546.413.686.675l.122.223.017 19 .01 19.006H5.714V29.33l-.134-.279c-.306-.652-1.008-.953-1.727-.741-.307.089-.77.552-.858.858-.05.173-.067 1.796-.067 6.748v6.52l-.268.105C1.506 43.01.581 44.103.252 45.386c-.106.423-.111.613-.111 5.147 0 5.253-.011 5.108.39 5.956a4.193 4.193 0 0 0 2.808 2.314c.418.106.63.112 4.24.112h3.795l.1.513c.235 1.216.887 2.727 1.622 3.753a9.879 9.879 0 0 0 6.108 3.943c.546.111.802.128 1.833.128 1.03 0 1.287-.017 1.833-.128 2.067-.419 3.956-1.478 5.344-3 1.176-1.289 2.073-3.045 2.385-4.696l.1-.513h30.826l.1.513c.235 1.216.887 2.727 1.622 3.753a9.879 9.879 0 0 0 6.108 3.943c.546.111.802.128 1.833.128 1.03 0 1.287-.017 1.833-.128 2.067-.419 3.957-1.478 5.344-3 1.176-1.289 2.073-3.045 2.385-4.696l.1-.513h2.402c2.229 0 2.44-.006 2.847-.112 1.544-.396 2.703-1.55 3.087-3.09.106-.423.112-.63.112-5.163 0-4.551-.006-4.74-.112-5.164-.328-1.283-1.253-2.376-2.407-2.845l-.267-.106v-3.128c0-3.424-.011-3.614-.335-4.612a8.522 8.522 0 0 0-.373-.931c-.19-.374-9.295-14.606-10.404-16.257-.952-1.422-2.245-2.414-3.755-2.894-.825-.256-1.343-.312-3.06-.312H67.01v-1.55c0-1.434-.011-1.562-.117-1.796-.301-.67-1.015-.982-1.745-.77-.306.09-.769.552-.858.859-.044.156-.067.72-.067 1.745v1.512H58.65V9.153c0-4.963-.005-5.17-.111-5.593A4.195 4.195 0 0 0 56.226.75C55.318.32 58.06.358 28.103.363 8.677.37 1.172.387 1.033.431Zm69.064 16.714c1.053.156 2.028.703 2.669 1.506.35.446 10.431 16.155 10.57 16.479a6.1 6.1 0 0 1 .235.67c.117.373.122.518.145 3.384l.016 3H58.65V17.09h5.533c3.35 0 5.679.022 5.913.056Zm15.608 27.978c.262.14.53.413.674.686.1.184.106.413.106 4.74 0 4.328-.006 4.557-.106 4.74a1.772 1.772 0 0 1-.674.687c-.217.117-.29.123-2.536.14l-2.318.016-.1-.519c-.234-1.215-.886-2.727-1.622-3.753a9.856 9.856 0 0 0-6.107-3.943c-.546-.111-.802-.128-1.833-.128s-1.287.017-1.833.128a9.864 9.864 0 0 0-6.108 3.943c-.735 1.026-1.387 2.538-1.621 3.748l-.1.518H30.698l-.1-.518c-.234-1.21-.886-2.722-1.622-3.748a9.856 9.856 0 0 0-6.107-3.943c-.546-.111-.802-.128-1.833-.128s-1.287.017-1.833.128a9.864 9.864 0 0 0-6.108 3.943c-.735 1.026-1.387 2.538-1.621 3.753l-.1.519-3.712-.017c-3.677-.017-3.705-.017-3.928-.14a1.735 1.735 0 0 1-.674-.685c-.084-.156-.106-.363-.123-1.076l-.022-.876h.156c.217 0 .685-.229.869-.424.084-.09.2-.273.262-.413.106-.234.117-.362.117-1.951 0-1.59-.011-1.718-.117-1.952a1.746 1.746 0 0 0-.262-.413c-.184-.195-.652-.424-.87-.424h-.155l.022-.88c.022-.96.061-1.088.401-1.45.19-.207.418-.341.674-.408.095-.022 18.462-.033 40.818-.028l40.65.006.223.122Zm-63.252 5.6c2.692.546 4.81 2.676 5.389 5.403.094.452.122.77.122 1.395 0 .624-.028.942-.122 1.394a6.973 6.973 0 0 1-5.417 5.415c-.813.173-1.961.173-2.775 0a6.973 6.973 0 0 1-5.416-5.415c-.173-.82-.173-1.969 0-2.783.63-2.972 3.004-5.142 6.035-5.527.563-.066 1.527-.016 2.184.117Zm50.151 0c2.692.546 4.81 2.676 5.389 5.403.094.452.122.77.122 1.395 0 .624-.028.942-.122 1.394a6.973 6.973 0 0 1-5.417 5.415c-.813.173-1.961.173-2.775 0a6.973 6.973 0 0 1-5.416-5.415c-.173-.82-.173-1.969 0-2.783.63-2.972 3.004-5.142 6.035-5.527.563-.066 1.527-.016 2.184.117Z" fill="#1CA342"/>
    <path d="M63.388 20.007c-.936.318-1.588.992-1.861 1.93-.078.267-.09.858-.09 4.918 0 4.445.006 4.623.112 4.963a2.852 2.852 0 0 0 1.945 1.913c.267.078.93.09 5.745.09 4.842 0 5.472-.012 5.745-.09 1.008-.301 1.8-1.138 2.006-2.125.083-.43.033-1.137-.112-1.522-.06-.173-1.343-2.281-2.841-4.685-2.926-4.69-3.065-4.885-3.695-5.203-.618-.312-.663-.318-3.75-.318h-.008c-2.784.006-2.84.006-3.196.129Zm8.213 6.809c1.427 2.28 2.597 4.16 2.597 4.183 0 .016-2.245.033-4.987.033h-4.987v-8.365h4.78l2.597 4.149Z" fill="#1CA342"/>
    <path d="M63.388 20.007c-.936.318-1.588.992-1.861 1.93-.078.267-.09.858-.09 4.918 0 4.445.006 4.623.112 4.963a2.852 2.852 0 0 0 1.945 1.913c.267.078.93.09 5.745.09 4.842 0 5.472-.012 5.745-.09 1.008-.301 1.8-1.138 2.006-2.125.083-.43.033-1.137-.112-1.522-.06-.173-1.343-2.281-2.841-4.685-2.926-4.69-3.065-4.885-3.695-5.203-.618-.312-.663-.318-3.75-.318h-.008c-2.784.006-2.84.006-3.196.129Zm8.213 6.809c1.427 2.28 2.597 4.16 2.597 4.183 0 .016-2.245.033-4.987.033h-4.987v-8.365h4.78l2.597 4.149Z" stroke="#1CA342"/>
    <path d="M62.33 36.68c-.274.09-.742.57-.825.854-.212.72.089 1.422.74 1.729.274.128.307.134 1.979.134 1.672 0 1.705-.006 1.978-.134a1.36 1.36 0 0 0 .808-1.26c0-.558-.3-1.021-.808-1.26-.273-.13-.3-.135-1.978-.13-1.07.007-1.772.029-1.895.068Z" fill="#1CA342"/>
    <path d="M62.33 36.68c-.274.09-.742.57-.825.854-.212.72.089 1.422.74 1.729.274.128.307.134 1.979.134 1.672 0 1.705-.006 1.978-.134a1.36 1.36 0 0 0 .808-1.26c0-.558-.3-1.021-.808-1.26-.273-.13-.3-.135-1.978-.13-1.07.007-1.772.029-1.895.068Z" stroke="#1CA342"/>
    <path d="M9.392 47.833c-.273.09-.742.57-.825.854-.045.161-.067.747-.067 1.896 0 1.556.011 1.684.117 1.918.15.335.357.547.691.703.708.334 1.532.022 1.861-.703.106-.234.117-.362.117-1.952 0-1.673-.005-1.706-.134-1.98a1.311 1.311 0 0 0-.702-.691c-.278-.128-.735-.145-1.058-.045Z" fill="#1CA342"/>
    <path d="M9.392 47.833c-.273.09-.742.57-.825.854-.045.161-.067.747-.067 1.896 0 1.556.011 1.684.117 1.918.15.335.357.547.691.703.708.334 1.532.022 1.861-.703.106-.234.117-.362.117-1.952 0-1.673-.005-1.706-.134-1.98a1.311 1.311 0 0 0-.702-.691c-.278-.128-.735-.145-1.058-.045Z" stroke="#1CA342"/>
    <path d="M31.68 47.833c-.272.09-.74.57-.824.854-.045.161-.067.747-.067 1.896 0 1.556.011 1.684.117 1.918.15.335.357.547.691.703.708.334 1.532.022 1.861-.703.106-.234.117-.362.117-1.952 0-1.673-.005-1.706-.134-1.98a1.311 1.311 0 0 0-.702-.691c-.278-.128-.735-.145-1.058-.045Z" fill="#1CA342"/>
    <path d="M31.68 47.833c-.272.09-.74.57-.824.854-.045.161-.067.747-.067 1.896 0 1.556.011 1.684.117 1.918.15.335.357.547.691.703.708.334 1.532.022 1.861-.703.106-.234.117-.362.117-1.952 0-1.673-.005-1.706-.134-1.98a1.311 1.311 0 0 0-.702-.691c-.278-.128-.735-.145-1.058-.045Z" stroke="#1CA342"/>
    <path d="M38.645 47.834c-.273.089-.74.568-.824.853-.045.162-.067.747-.067 1.896 0 1.556.011 1.684.117 1.918.15.335.357.547.69.703.709.335 1.533.022 1.862-.703.106-.234.117-.362.117-1.952 0-1.673-.005-1.706-.134-1.98a1.31 1.31 0 0 0-.702-.69c-.278-.13-.735-.146-1.059-.045Z" fill="#1CA342"/>
    <path d="M38.645 47.834c-.273.089-.74.568-.824.853-.045.162-.067.747-.067 1.896 0 1.556.011 1.684.117 1.918.15.335.357.547.69.703.709.335 1.533.022 1.862-.703.106-.234.117-.362.117-1.952 0-1.673-.005-1.706-.134-1.98a1.31 1.31 0 0 0-.702-.69c-.278-.13-.735-.146-1.059-.045Z" stroke="#1CA342"/>
    <path d="M45.61 47.833c-.273.09-.74.57-.824.854-.045.161-.067.747-.067 1.896 0 1.556.01 1.684.117 1.918.15.335.356.547.69.703.708.334 1.533.022 1.862-.703.106-.234.117-.362.117-1.952 0-1.673-.006-1.706-.134-1.98a1.312 1.312 0 0 0-.702-.691c-.279-.128-.735-.145-1.059-.045Z" fill="#1CA342"/>
    <path d="M45.61 47.833c-.273.09-.74.57-.824.854-.045.161-.067.747-.067 1.896 0 1.556.01 1.684.117 1.918.15.335.356.547.69.703.708.334 1.533.022 1.862-.703.106-.234.117-.362.117-1.952 0-1.673-.006-1.706-.134-1.98a1.312 1.312 0 0 0-.702-.691c-.279-.128-.735-.145-1.059-.045Z" stroke="#1CA342"/>
    <path d="M52.575 47.833c-.273.09-.741.57-.825.854-.044.161-.066.747-.066 1.896 0 1.556.01 1.684.117 1.918.15.335.356.547.69.703.708.334 1.533.022 1.862-.703.106-.234.117-.362.117-1.952 0-1.673-.006-1.706-.134-1.98a1.311 1.311 0 0 0-.702-.691c-.279-.128-.736-.145-1.059-.045Z" fill="#1CA342"/>
    <path d="M52.575 47.833c-.273.09-.741.57-.825.854-.044.161-.066.747-.066 1.896 0 1.556.01 1.684.117 1.918.15.335.356.547.69.703.708.334 1.533.022 1.862-.703.106-.234.117-.362.117-1.952 0-1.673-.006-1.706-.134-1.98a1.311 1.311 0 0 0-.702-.691c-.279-.128-.736-.145-1.059-.045Z" stroke="#1CA342"/>
    <path d="M59.54 47.833c-.273.09-.741.57-.825.854-.044.161-.067.747-.067 1.896 0 1.556.012 1.684.117 1.918.15.335.357.547.691.703.708.334 1.533.022 1.862-.703.105-.234.117-.362.117-1.952 0-1.673-.006-1.706-.134-1.98a1.311 1.311 0 0 0-.702-.691c-.279-.128-.736-.145-1.059-.045Z" fill="#1CA342"/>
    <path d="M59.54 47.833c-.273.09-.741.57-.825.854-.044.161-.067.747-.067 1.896 0 1.556.012 1.684.117 1.918.15.335.357.547.691.703.708.334 1.533.022 1.862-.703.105-.234.117-.362.117-1.952 0-1.673-.006-1.706-.134-1.98a1.311 1.311 0 0 0-.702-.691c-.279-.128-.736-.145-1.059-.045Z" stroke="#1CA342"/>
    <path d="M81.83 47.833c-.274.09-.742.57-.826.854-.044.161-.067.747-.067 1.896 0 1.556.012 1.684.118 1.918.15.335.356.547.69.703.708.334 1.533.022 1.862-.703.106-.234.117-.362.117-1.952 0-1.673-.006-1.706-.134-1.98a1.311 1.311 0 0 0-.702-.691c-.279-.128-.736-.145-1.059-.045Z" fill="#1CA342"/>
    <path d="M81.83 47.833c-.274.09-.742.57-.826.854-.044.161-.067.747-.067 1.896 0 1.556.012 1.684.118 1.918.15.335.356.547.69.703.708.334 1.533.022 1.862-.703.106-.234.117-.362.117-1.952 0-1.673-.006-1.706-.134-1.98a1.311 1.311 0 0 0-.702-.691c-.279-.128-.736-.145-1.059-.045Z" stroke="#1CA342"/>
    <path d="M20.2 54.86c-1.203.413-1.95 1.428-1.95 2.66a2.787 2.787 0 1 0 5.572 0c0-1.26-.819-2.336-2.056-2.699-.446-.128-1.12-.111-1.566.04Z" fill="#1CA342"/>
    <path d="M20.2 54.86c-1.203.413-1.95 1.428-1.95 2.66a2.787 2.787 0 1 0 5.572 0c0-1.26-.819-2.336-2.056-2.699-.446-.128-1.12-.111-1.566.04Z" stroke="#1CA342"/>
    <path d="M70.349 54.86c-1.204.413-1.95 1.428-1.95 2.66a2.787 2.787 0 1 0 5.572 0c0-1.26-.82-2.336-2.056-2.699-.446-.128-1.12-.111-1.566.04Z" fill="#1CA342"/>
    <path d="M70.349 54.86c-1.204.413-1.95 1.428-1.95 2.66a2.787 2.787 0 1 0 5.572 0c0-1.26-.82-2.336-2.056-2.699-.446-.128-1.12-.111-1.566.04Z" stroke="#1CA342"/>
    <path d="M1.032 6.009c-.273.089-.74.569-.824.853-.212.72.089 1.422.74 1.729l.28.134H4.32c2.992 0 3.098-.006 3.343-.117.335-.151.547-.357.703-.692.334-.708.022-1.534-.702-1.863-.246-.111-.346-.117-3.344-.111-2.09.005-3.154.028-3.288.067Z" fill="#1CA342"/>
    <path d="M1.032 6.009c-.273.089-.74.569-.824.853-.212.72.089 1.422.74 1.729l.28.134H4.32c2.992 0 3.098-.006 3.343-.117.335-.151.547-.357.703-.692.334-.708.022-1.534-.702-1.863-.246-.111-.346-.117-3.344-.111-2.09.005-3.154.028-3.288.067Z" stroke="#1CA342"/>
    <path d="M12.177 6.009c-.273.089-.741.569-.825.853-.212.72.09 1.422.741 1.729l.279.134h15.63c15.603 0 15.63 0 15.881-.117.335-.151.547-.357.703-.692.334-.708.022-1.534-.703-1.863-.25-.117-.273-.117-15.88-.111-11.229.005-15.687.022-15.826.067Z" fill="#1CA342"/>
    <path d="M12.177 6.009c-.273.089-.741.569-.825.853-.212.72.09 1.422.741 1.729l.279.134h15.63c15.603 0 15.63 0 15.881-.117.335-.151.547-.357.703-.692.334-.708.022-1.534-.703-1.863-.25-.117-.273-.117-15.88-.111-11.229.005-15.687.022-15.826.067Z" stroke="#1CA342"/>
    <path d="M1.032 11.585c-.273.09-.74.569-.824.853-.212.72.089 1.422.74 1.729l.28.134h15.63c15.602 0 15.63 0 15.881-.117.724-.33 1.036-1.155.702-1.863a1.311 1.311 0 0 0-.702-.691c-.25-.118-.273-.118-15.881-.112-11.228.006-15.686.022-15.826.067Z" fill="#1CA342"/>
    <path d="M1.032 11.585c-.273.09-.74.569-.824.853-.212.72.089 1.422.74 1.729l.28.134h15.63c15.602 0 15.63 0 15.881-.117.724-.33 1.036-1.155.702-1.863a1.311 1.311 0 0 0-.702-.691c-.25-.118-.273-.118-15.881-.112-11.228.006-15.686.022-15.826.067Z" stroke="#1CA342"/>
    <path d="M1.032 17.163c-.273.09-.74.569-.824.853-.212.72.089 1.422.74 1.73l.28.133h20.116l.278-.134a1.36 1.36 0 0 0 .808-1.26c0-.558-.3-1.02-.808-1.26l-.278-.135-10.059.006c-7.166.006-10.113.022-10.253.067Z" fill="#1CA342"/>
    <path d="M1.032 17.163c-.273.09-.74.569-.824.853-.212.72.089 1.422.74 1.73l.28.133h20.116l.278-.134a1.36 1.36 0 0 0 .808-1.26c0-.558-.3-1.02-.808-1.26l-.278-.135-10.059.006c-7.166.006-10.113.022-10.253.067Z" stroke="#1CA342"/>
    <path d="M1.032 22.737c-.273.09-.74.57-.824.854-.212.719.089 1.422.74 1.728l.28.134h4.485c4.391 0 4.491-.005 4.737-.117.334-.15.546-.357.702-.691.334-.709.022-1.534-.702-1.863-.245-.112-.34-.117-4.737-.112-3.104.006-4.547.023-4.68.067Z" fill="#1CA342"/>
    <path d="M1.032 22.737c-.273.09-.74.57-.824.854-.212.719.089 1.422.74 1.728l.28.134h4.485c4.391 0 4.491-.005 4.737-.117.334-.15.546-.357.702-.691.334-.709.022-1.534-.702-1.863-.245-.112-.34-.117-4.737-.112-3.104.006-4.547.023-4.68.067Z" stroke="#1CA342"/>
</svg><svg fill="none" viewBox="0 0 80 82" id="gear" xmlns="http://www.w3.org/2000/svg">
    <path d="M34.77.102C33.66.364 32.438 1.4 32.1 2.348c-.087.237-.636 2.334-1.223 4.668a333.17 333.17 0 0 1-1.135 4.442c-.025.113-.325.3-.65.425-.324.125-1.073.449-1.672.711l-1.086.5-3.868-2.322c-2.122-1.285-4.131-2.446-4.468-2.596-.4-.175-.861-.262-1.423-.274-1.46-.013-1.996.349-4.992 3.382-2.995 3.032-3.17 3.294-3.157 4.842 0 1.21-.112.973 2.895 5.965l2.234 3.72-.611 1.46a95.432 95.432 0 0 0-.712 1.71c-.087.211-.81.423-4.517 1.36-2.434.598-4.68 1.21-5.017 1.347-.362.163-.836.524-1.21.936C.5 33.697.463 33.934.513 38.552l.037 3.906.362.662c.412.736.961 1.273 1.672 1.635.25.124 2.509.748 5.017 1.385 2.509.624 4.555 1.148 4.568 1.16 0 .013.187.5.424 1.086.225.587.55 1.336.712 1.66.2.4.262.649.187.749-.075.087-.487.761-.936 1.522-.437.75-1.51 2.546-2.371 3.969-1.673 2.77-1.91 3.382-1.797 4.518.112 1.135.449 1.597 3.244 4.405 3.145 3.157 3.395 3.332 4.955 3.332 1.273 0 .91.163 6.052-2.908 3.333-1.996 3.77-2.221 3.994-2.084.137.088.874.4 1.622.7.762.299 1.398.548 1.41.56.026.026.575 2.11 1.211 4.656 1.21 4.817 1.423 5.403 2.197 6.052.948.8 1.248.886 3.494.924l2.072.05.062 1.11c.087 1.373.462 2.222 1.348 3.02 1.148 1.037-.3.974 19.344.937l17.41-.038.673-.374c.774-.424 1.473-1.198 1.785-1.972.2-.487.212-1.697.212-16.636.012-18.382.112-16.822-1.099-18.033-.499-.487-.885-.761-1.335-.911l-.649-.212.275-.524c.25-.5.262-.687.262-4.58 0-3.894-.013-4.081-.275-4.643-.35-.749-1.148-1.622-1.747-1.897-.262-.112-2.52-.736-5.03-1.373l-4.542-1.148-.3-.749c-.162-.399-.486-1.16-.723-1.672l-.437-.936 2.496-4.156c2.62-4.38 2.858-4.892 2.696-5.99-.188-1.298-.537-1.797-3.22-4.493-2.946-2.957-3.47-3.307-4.942-3.307-1.111 0-1.348.112-5.99 2.895l-3.782 2.284-1.086-.499c-.586-.274-1.31-.574-1.61-.661-.287-.088-.574-.213-.636-.287-.063-.075-.6-2.134-1.198-4.568-.6-2.434-1.223-4.68-1.385-4.992-.362-.736-1.086-1.41-1.86-1.772-.599-.275-.749-.287-4.368-.312-2.06-.013-3.956.025-4.218.1Zm7.75 2.683c.15.1.338.3.413.437.075.15.636 2.259 1.248 4.705.611 2.458 1.223 4.692 1.373 4.992.324.623.648.873 1.672 1.272.412.163 1.31.55 1.997.85 1.023.46 1.385.573 1.959.56.711 0 .774-.024 5.017-2.57 2.683-1.623 4.418-2.584 4.63-2.584.574 0 .948.313 3.345 2.709 2.233 2.258 2.333 2.383 2.333 2.857 0 .412-.362 1.086-2.321 4.356a294.165 294.165 0 0 0-2.558 4.33c-.325.637-.312 1.698.025 2.384.137.287.499 1.136.81 1.885.7 1.734.924 2.084 1.51 2.408.263.15 2.56.786 5.093 1.423 4.055 1.01 4.655 1.198 4.967 1.498l.337.337v3.606c0 3.919-.013 3.981-.712 4.256-.187.075-1.036.312-1.872.524l-1.522.374h-14.39l.063-.35c.05-.186.175-.76.3-1.272.311-1.335.311-5.628.012-7.051-1.236-5.703-4.855-10.271-10.022-12.667-1.297-.612-2.945-1.123-3.569-1.123-1.086 0-1.635 1.372-.848 2.109.15.125.748.387 1.335.574 5.441 1.684 9.347 5.965 10.583 11.606.162.711.224 1.572.224 2.995.013 2.01-.074 2.658-.561 4.33l-.25.85h-5.653c-4.855 0-5.728.024-6.24.199-.799.275-1.835 1.248-2.209 2.072l-.3.661-.037 13.815-.025 13.828h-1.622c-1.735 0-2.134-.087-2.421-.524-.1-.162-.7-2.309-1.323-4.78-1.236-4.88-1.286-5.054-1.698-5.541-.287-.35-.511-.462-3.144-1.56-1.748-.736-2.322-.836-3.058-.524-.225.087-2.184 1.235-4.355 2.546-2.172 1.298-4.094 2.396-4.268 2.446a1.208 1.208 0 0 1-.562-.025c-.15-.05-1.385-1.21-2.758-2.583-2.409-2.397-2.496-2.509-2.496-2.983 0-.412.374-1.123 2.52-4.68 2.41-4.019 2.522-4.23 2.572-4.942.037-.662 0-.874-.412-1.747a45.34 45.34 0 0 1-.836-1.997c-.45-1.173-.837-1.735-1.386-2.022-.224-.112-2.533-.736-5.129-1.398-4.418-1.123-4.755-1.223-4.992-1.547-.25-.337-.262-.5-.262-3.919v-3.556l.387-.337c.324-.3 1.023-.512 4.967-1.498 2.533-.624 4.742-1.223 4.93-1.31.599-.313.985-.824 1.397-1.86.225-.562.624-1.523.899-2.134.424-.961.486-1.198.437-1.822-.05-.674-.2-.961-2.434-4.692-2.845-4.768-2.658-4.418-2.658-5.005 0-.45.125-.599 2.546-3.02l2.546-2.546.549.063c.412.05 1.46.623 4.68 2.558 2.683 1.622 4.305 2.52 4.617 2.57.624.1 1.099-.024 2.596-.686a38.986 38.986 0 0 1 1.91-.798c.71-.25 1.41-.862 1.634-1.398.075-.187.637-2.384 1.26-4.892 1.05-4.218 1.161-4.58 1.498-4.905l.375-.337h3.532c2.982 0 3.569.025 3.806.2Zm34.046 43.53c.4.399.424.474.424 1.248v.823h-1.522c-.849 0-8.749 0-17.572.013H41.585c-.262-.013-.287-.063-.287-.799.012-.849.187-1.285.636-1.535.25-.137 3.42-.162 17.248-.175h16.96l.424.425Zm.4 18.358-.038 13.665-.35.337-.337.35h-34.22l-.361-.413-.362-.399V51.007H76.99l-.025 13.666Z" fill="#1CA342"/>
    <path d="M35.467 20.694c-1.597.312-2.546.649-2.845 1.01-.55.662-.35 1.498.461 1.922.35.175.45.175 1.336-.05.524-.15 1.285-.324 1.697-.399.961-.175 1.285-.35 1.51-.774.287-.549.212-.96-.25-1.422-.461-.462-.81-.512-1.909-.287ZM26.36 25.448c-.375.175-.7.911-.6 1.323.1.45 2.26 2.608 2.771 2.783.699.225 1.535-.412 1.535-1.173 0-.562-.274-.961-1.423-2.06-.96-.923-1.11-1.023-1.535-1.01-.262 0-.599.062-.748.137ZM36.802 28.233c-1.797.362-3.869 1.423-5.154 2.658-1.173 1.136-2.334 3.095-2.783 4.705-.312 1.148-.375 3.582-.125 4.73.624 2.758 2.246 5.092 4.555 6.54 1.373.86 2.172.798 2.583-.175.113-.275.125-.512.05-.787-.124-.461-.312-.661-.873-.948-1.835-.936-3.357-3.008-3.82-5.167-.773-3.681 1.361-7.438 5.018-8.773.549-.2 1.11-.287 2.209-.325 1.323-.05 1.572-.012 2.508.275 1.897.586 3.457 1.834 4.406 3.544.661 1.198.91 2.147.948 3.644.025.724.112 1.435.187 1.585.425.774 1.323.886 1.972.237.424-.424.424-.424.424-1.622 0-2.833-1.035-5.354-3.02-7.338-2.334-2.334-5.89-3.42-9.085-2.783ZM22.569 30.903c-.412.412-.475.936-.175 1.497.137.275.499.5 1.635.999.798.35 1.585.636 1.76.636 1.06 0 1.684-1.285 1.01-2.046-.374-.412-2.808-1.448-3.407-1.448-.337 0-.549.1-.823.362Z" fill="#1CA342"/>
    <path d="M37.941 35.843c-1.959.624-2.358 3.283-.66 4.48.598.425 1.596.562 2.295.338.849-.287 1.71-1.448 1.723-2.334 0-.537-.325-1.41-.662-1.772-.661-.712-1.784-1.011-2.696-.712ZM21.366 37.255c-.15.112-.337.399-.424.611-.112.337-.1.487.1.874.125.262.362.536.536.624.4.2 3.283.212 3.657.025.786-.4.961-1.386.35-1.997l-.362-.362h-1.797c-1.498 0-1.835.037-2.06.224ZM23.963 42.832c-1.46.6-1.885.961-1.885 1.623 0 .549.487 1.135 1.048 1.235.337.063.724-.037 1.835-.499 1.622-.661 1.71-.711 1.947-1.273.137-.337.137-.462-.013-.824-.399-.973-1.073-1.035-2.932-.262ZM28.256 47.013c-.486.2-2.396 2.284-2.496 2.72-.1.5.225 1.136.736 1.373.662.325 1.061.125 2.36-1.21 1.01-1.011 1.21-1.286 1.21-1.61 0-1.036-.886-1.66-1.81-1.273ZM32.455 50.223c-.449.424-1.397 2.646-1.422 3.32-.013.399.05.549.387.848.536.487 1.135.487 1.634.013.462-.425 1.423-2.659 1.436-3.32 0-.387-.075-.55-.4-.836-.536-.487-1.135-.487-1.635-.025ZM54.713 56.26c-.137.076-1.21 1.1-2.396 2.272l-2.147 2.134-.848-.873c-1.186-1.236-1.56-1.398-2.284-.961-.424.237-.624.649-.624 1.223 0 .362.162.586 1.285 1.71 1.735 1.76 2.01 1.971 2.559 1.971.424 0 .636-.174 3.357-2.907 2.895-2.883 2.908-2.908 2.908-3.445 0-.96-.974-1.572-1.81-1.123ZM59.94 58.744c-.811.325-1.036 1.36-.437 2.022l.362.412 5.404.037c3.906.025 5.503-.012 5.766-.112.873-.362 1.098-1.31.474-2.01l-.362-.411-5.479-.025c-3.007-.013-5.59.025-5.728.087ZM54.963 66.37c-.25.074-1.136.86-2.559 2.283l-2.171 2.184-.949-.923c-.524-.5-1.098-.961-1.285-.999-.836-.212-1.585.362-1.585 1.198 0 .512.063.587 1.585 2.135 1.71 1.722 2.047 1.921 2.733 1.56.2-.113 1.585-1.423 3.083-2.92l2.708-2.734v-.561c0-.3-.088-.65-.175-.762-.262-.35-.96-.574-1.385-.462ZM59.78 69.028a1.249 1.249 0 0 0-.275 1.96l.362.362h6.165l.362-.362c.6-.612.475-1.56-.262-1.947-.499-.262-5.89-.275-6.352-.013Z" fill="#1CA342"/>
</svg><svg fill="none" viewBox="0 0 75 81" id="guarantees" xmlns="http://www.w3.org/2000/svg">
    <path d="M32.406.135c-.855.233-1.554.75-2.396 1.76-3.133 3.768-6.396 5.827-11.393 7.2-3.431.932-6.306 1.281-11.808 1.41-3.962.104-4.26.143-4.959.816a3.698 3.698 0 0 0-.647.868l-.285.518v14.5c.013 15.628.013 15.77.712 19.266C3.197 54.228 7.38 61.595 13.114 66.71c.971.854 11.407 9.037 14.993 11.743 2.667 2.032 6.59 2.343 9.698.802.543-.271 2.24-1.476 4.078-2.913 1.748-1.36 3.185-2.46 3.198-2.46.026 0-.117.337-.298.738-.893 1.955-.052 4.221 1.93 5.205l.79.401h12.079c11.795 0 12.105 0 12.779-.258 1.903-.713 2.978-2.991 2.356-4.985-.246-.777-1.152-1.916-1.8-2.253l-.336-.181V43.78l.518-.298c.673-.375 1.372-1.32 1.631-2.214.609-2.02-.492-4.182-2.486-4.933-.686-.246-.984-.258-7.885-.258h-7.185v-7.42c0-6.99-.013-7.431-.246-7.949-.415-.906-.945-1.152-3.185-1.463-6.772-.958-12.287-2.706-17.078-5.438-2.719-1.553-3.366-1.54-6.331.104-2.797 1.54-4.48 2.266-7.47 3.237-2.978.958-6.332 1.709-9.737 2.149-1.774.233-2.175.401-2.667 1.14l-.35.543v5.399c0 5.295 0 5.425.272 5.684.143.142.48.298.738.35.402.064.518.012.868-.324l.388-.389v-9.956l1.593-.22c6.9-.971 12.818-2.875 17.737-5.697 1.904-1.1 1.93-1.088 4.144.168 4.764 2.732 11.782 4.894 18.255 5.658l.738.078v14.346h-3.47c-3.962 0-4.389.077-5.45.906-.933.738-1.477 1.89-1.477 3.146 0 1.424.713 2.719 1.93 3.47l.44.272v25.7l-4.48 3.483c-2.473 1.916-4.816 3.677-5.218 3.91-2.032 1.178-4.583 1.269-6.667.233-.803-.401-14.022-10.656-15.744-12.21-3.56-3.223-6.694-7.535-8.48-11.69-1.736-4.014-2.629-7.756-2.914-12.184-.194-3.043-.13-27.875.078-28.083.09-.09 1.657-.18 4.402-.258 6.266-.182 9.296-.648 13.452-2.072 4.273-1.476 7.574-3.69 10.086-6.784 1.023-1.243 1.554-1.632 2.253-1.632.802 0 1.165.26 2.356 1.683 1.437 1.722 2.395 2.603 4.13 3.768 2.408 1.618 5.231 2.861 8.351 3.677 3.742.971 5.684 1.204 11.018 1.36 3.794.116 4.286.155 4.428.35.13.167.169 2.265.169 9.425v9.218l.297.272c.44.414 1.243.388 1.658-.052l.31-.337v-9.464c0-9.464 0-9.477-.284-9.995a3.696 3.696 0 0 0-.648-.868c-.686-.66-1.01-.712-4.764-.802-5.348-.13-8.08-.44-11.394-1.295-5.179-1.347-9.128-3.69-11.652-6.94-.751-.97-1.528-1.657-2.253-1.98-.738-.324-2.072-.402-2.9-.169Zm39.36 38.53c1.203.726 1.022 2.487-.312 3.056-.35.156-2.434.182-11.717.182-7.406 0-11.471-.052-11.782-.13-.518-.155-1.048-.725-1.178-1.307-.168-.674.35-1.658 1.01-1.93.142-.064 5.502-.116 11.911-.116 11.342-.013 11.666 0 12.067.246Zm-3.613 7.73c-.078 2.357-.272 3.483-.88 4.96-.984 2.382-3.03 4.505-5.024 5.204-.401.142-.855.337-1.01.427-.608.389-.725 1.58-.181 2.072.13.116.621.362 1.087.53 2.577.933 4.622 3.354 5.593 6.617.311 1.035.337 1.36.363 3.534l.013 2.395-8.442.04-8.454.025v-2.136c0-2.408.181-3.573.79-5.088.427-1.075 1.243-2.383 2.045-3.289.7-.79 2.28-1.839 3.198-2.136.997-.311 1.347-.686 1.347-1.45 0-.751-.389-1.166-1.36-1.49-2.706-.88-5.1-3.896-5.826-7.327-.13-.596-.194-1.645-.194-2.991v-2.059h17l-.065 2.162Zm2.084 11.718v8.195l-.362-1.1c-.518-1.554-.829-2.214-1.619-3.431-.776-1.191-2.188-2.667-3.094-3.25-.337-.207-.609-.401-.609-.44 0-.04.246-.207.544-.389.868-.53 2.37-2.084 3.16-3.301.737-1.14 1.462-2.732 1.76-3.858.078-.337.169-.609.195-.609.025 0 .038 3.69.025 8.183ZM50.195 52.92l.272.53-.48.7c-.867 1.243-.84 1.282-.84-1.515v-2.512l.388 1.14c.207.621.505 1.372.66 1.657Zm2.512 3.483c.427.44 1.049.97 1.398 1.19.337.208.609.44.609.493 0 .051-.246.259-.544.453-1.955 1.295-3.858 3.949-4.713 6.59l-.298.92v-3.626l-.013-3.625.855-.971a32.348 32.348 0 0 0 1.32-1.593c.26-.336.505-.608.544-.608.04 0 .415.35.842.777Zm18.967 18.294c.48.233.907.958.907 1.515 0 .557-.428 1.282-.907 1.515-.258.13-2.926.168-12.04.168-11.316 0-11.73-.013-12.119-.246-.57-.35-.906-1.256-.712-1.852.181-.517.362-.75.79-1.048.297-.207 1.204-.22 12.04-.22 9.115 0 11.783.038 12.041.168Z" fill="#1CA342"/>
    <path d="M33.016 6.48c-1.566.686-1.113 3.055.596 3.055.906 0 1.554-.686 1.554-1.657 0-.609-.376-1.14-.984-1.398-.531-.22-.648-.22-1.166 0ZM6.718 16.073c-.777.336-1.165 1.385-.777 2.136.22.44.959.906 1.438.906.906 0 1.747-.997 1.553-1.851-.13-.596-.388-.945-.893-1.178-.518-.246-.777-.26-1.32-.013ZM59.05 16.06c-.584.258-.868.647-.933 1.268-.065.673.142 1.1.725 1.489.816.557 1.825.259 2.266-.66.375-.79.039-1.696-.764-2.072-.518-.246-.777-.259-1.295-.026ZM42.283 24.074a4.57 4.57 0 0 0-1.049.453c-.298.181-2.667 3.095-6.668 8.17-3.405 4.35-6.253 7.885-6.33 7.859-.066-.013-1.438-1.748-3.056-3.845-2.758-3.6-2.965-3.833-3.677-4.195-.635-.324-.907-.389-1.606-.376-1.01.013-1.605.246-2.343.907-.842.763-1.1 1.359-1.1 2.576 0 .764.064 1.152.245 1.489.246.453 7.652 10.215 8.714 11.484.776.932 1.63 1.334 2.81 1.334.944 0 1.63-.233 2.239-.738.414-.35 15.55-19.564 15.873-20.172.402-.738.402-2.37 0-3.12-.323-.622-1.19-1.424-1.773-1.67-.648-.272-1.632-.337-2.28-.156Zm1.786 2.628c.622.712.544.868-2.55 4.804-11.445 14.553-12.52 15.886-12.895 16.041-.842.337-.894.285-5.568-5.813-3.767-4.933-4.337-5.736-4.337-6.124 0-.816.92-1.411 1.644-1.062.22.104 1.593 1.787 3.625 4.441 1.8 2.357 3.393 4.376 3.548 4.493.324.272 1.01.298 1.333.065.13-.09 3.211-3.95 6.862-8.571 3.639-4.635 6.772-8.494 6.94-8.584.44-.22 1.036-.091 1.398.31Z" fill="#1CA342"/>
    <path d="M10.69 35.857c-.622.31-.673.582-.596 3.392.078 2.913.285 4.544.92 6.991.97 3.78 2.77 7.367 5.243 10.487 1.696 2.137 3.289 3.522 9.827 8.598 3.496 2.718 6.5 4.997 6.68 5.062.493.181 1.308.155 1.787-.052.233-.103 2.447-1.787 4.933-3.729 3.38-2.641 4.558-3.625 4.648-3.91.246-.764-.582-1.657-1.359-1.45-.168.039-2.279 1.618-4.7 3.509-2.421 1.877-4.44 3.418-4.493 3.392-.064-.013-2.731-2.072-5.955-4.557-5.93-4.597-7.95-6.345-9.465-8.222-2.24-2.77-4.013-6.266-4.894-9.646-.595-2.291-.777-3.703-.854-6.603l-.078-2.706-.362-.362c-.389-.389-.777-.453-1.282-.194ZM33.01 72.33c-.906.362-1.255 1.696-.634 2.434.7.828 1.696.867 2.382.077.7-.776.48-2.006-.427-2.434-.479-.22-.893-.246-1.32-.077Z" fill="#1CA342"/>
</svg><svg fill="none" viewBox="0 0 30 28" id="heart" xmlns="http://www.w3.org/2000/svg">
    <path d="M10.874 23.64v.001c.983.85 2.096 1.814 3.251 2.839a1.762 1.762 0 0 0 2.343 0 327.42 327.42 0 0 1 3.257-2.843l.006-.006c2.876-2.488 5.368-4.644 7.104-6.771 1.946-2.384 2.859-4.653 2.859-7.136 0-2.407-.813-4.633-2.294-6.264l-.074.067.074-.067A7.736 7.736 0 0 0 21.606.9c-1.674 0-3.207.538-4.554 1.596a9.311 9.311 0 0 0-1.755 1.833 9.315 9.315 0 0 0-1.755-1.833C12.195 1.438 10.662.9 8.988.9c-2.237 0-4.294.91-5.794 2.56C1.714 5.091.9 7.317.9 9.724c0 2.483.913 4.752 2.859 7.136l.077-.063-.077.063c1.736 2.127 4.23 4.285 7.107 6.774l.003.002v.001l.005.004Zm-5.671-7.992-.078.064.078-.064c-1.685-2.063-2.428-3.888-2.428-5.924 0-1.935.64-3.702 1.799-4.977A5.89 5.89 0 0 1 8.988 2.8c1.248 0 2.393.403 3.406 1.198.905.71 1.537 1.61 1.909 2.243.21.358.582.573.994.573.412 0 .784-.215.994-.573l-.086-.051.086.05c.372-.631 1.004-1.531 1.909-2.242 1.013-.795 2.158-1.198 3.406-1.198 1.706 0 3.1.593 4.416 1.95 1.435 1.478 1.797 3.033 1.797 4.974 0 2.036-.744 3.86-2.428 5.924-1.631 1.999-4.06 4.1-6.882 6.542l-.001.001c-.97.839-2.066 1.788-3.213 2.8a343.045 343.045 0 0 0-3.203-2.795l-.005-.004c-2.824-2.444-5.253-4.545-6.884-6.544Z" fill="#444" stroke="#444" stroke-width=".2"/>
</svg><svg fill="none" viewBox="0 0 24 24" id="heart-line" xmlns="http://www.w3.org/2000/svg">
    <path d="M12.001 4.529a5.998 5.998 0 0 1 8.242.228 6 6 0 0 1 .236 8.236l-8.48 8.492-8.478-8.492a6 6 0 0 1 8.48-8.464Zm6.826 1.641a3.998 3.998 0 0 0-5.49-.153l-1.335 1.198-1.336-1.197a4 4 0 0 0-5.686 5.605L12 18.654l7.02-7.03a4 4 0 0 0-.193-5.454Z" fill="#000"/>
</svg><svg fill="none" viewBox="0 0 24 24" id="id-card-line" xmlns="http://www.w3.org/2000/svg">
    <path d="M3 6h18v12H3V6ZM2 4a1 1 0 0 0-1 1v14a1 1 0 0 0 1 1h20a1 1 0 0 0 1-1V5a1 1 0 0 0-1-1H2Zm11 4h6v2h-6V8Zm5 4h-5v2h5v-2Zm-7.5-2a2.5 2.5 0 1 1-5 0 2.5 2.5 0 0 1 5 0ZM8 13.5A3.5 3.5 0 0 0 4.5 17h7A3.5 3.5 0 0 0 8 13.5Z" fill="#000"/>
</svg><svg fill="none" viewBox="0 0 76 85" id="quality" xmlns="http://www.w3.org/2000/svg">
    <path d="M36.468.163c-.67.241-.921.417-2.687 1.842-2.686 2.171-3.015 2.434-3.256 2.555-.329.186-.855.164-2.324-.077-3.421-.559-4.474-.69-5.186-.647-.987.077-1.777.472-2.522 1.272-.537.581-.647.811-1.447 2.873a363.69 363.69 0 0 1-1.195 3.103c-.176.46-.439.964-.581 1.107-.143.143-.746.428-1.327.647-2.061.745-4.254 1.612-4.824 1.897-.746.372-1.393 1.041-1.788 1.853-.493.997-.515 1.556-.131 3.892.658 4.013.713 4.44.526 4.846-.088.197-.998 1.381-2.017 2.642-1.03 1.25-1.974 2.434-2.094 2.632-.362.592-.592 1.677-.516 2.423.132 1.239.33 1.546 3.651 5.58 1.228 1.48 1.195 1.35.91 3.246-.131.877-.361 2.335-.515 3.245-.307 1.875-.285 2.62.12 3.509.472 1.03 1.393 1.831 2.621 2.291.285.11.515.209.515.22 0 .033-.153.307-2.357 4.122-.713 1.24-2.006 3.476-2.883 4.989-.867 1.502-2.15 3.728-2.851 4.934C.21 72.264.429 71.869.407 72.34c-.011.45.24.9.646 1.163.264.175.658.175 5.625 0 2.939-.1 5.69-.176 6.13-.176h.777l.746 1.393c.406.778 1.085 2.072 1.524 2.883.428.812 1.37 2.577 2.083 3.914.812 1.535 1.393 2.511 1.568 2.62.779.516 1.579.21 2.16-.832.384-.67 1.436-2.5 4.495-7.785 2.314-3.991 4.825-8.355 6.195-10.745.505-.877.954-1.634.998-1.688.044-.055.603.329 1.239.833 1.644 1.316 2.73 1.644 4.177 1.25.768-.198 1.064-.373 2.237-1.316.57-.46 1.063-.833 1.096-.833.044 0 .768 1.228 1.612 2.719.855 1.491 2.028 3.52 2.599 4.517.58.998 2.598 4.495 4.495 7.785 2.927 5.054 3.508 5.997 3.815 6.173.483.263 1.13.186 1.491-.165.242-.252 1.634-2.796 4.386-8.037.702-1.326 1.338-2.489 1.426-2.587a.47.47 0 0 1 .394-.143c.132.022 2.818.12 5.965.22 6.293.197 6.227.208 6.622-.439.406-.669.318-.943-1.173-3.53-.767-1.316-1.952-3.388-2.653-4.594-.691-1.206-1.513-2.643-1.831-3.18-.877-1.491-5.472-9.462-5.811-10.076-.165-.285-.253-.56-.198-.603.044-.044.428-.22.834-.395.931-.384 1.732-1.13 2.138-1.995.471-1.02.46-1.886-.077-5.088-.505-3.015-.526-3.431-.252-3.848.098-.154.975-1.261 1.94-2.445 2.04-2.5 2.303-2.884 2.478-3.596.176-.746.077-2.105-.197-2.708-.12-.275-1.173-1.667-2.325-3.092-1.853-2.314-2.094-2.654-2.094-3.005 0-.219.198-1.666.45-3.212.548-3.476.548-4.2-.011-5.252a4.827 4.827 0 0 0-.9-1.162c-.547-.483-.547-.483-5.251-2.303-.888-.34-1.689-.712-1.787-.822-.176-.186-.603-1.239-1.864-4.561-.877-2.303-1.458-3.026-2.873-3.563-.855-.318-1.579-.285-4.681.219-1.503.241-2.939.438-3.213.438-.515 0-.384.1-4.78-3.475C39.603.273 39.099.054 37.947.01c-.69-.033-1.074.01-1.48.153Zm1.743 2.555c.154.055 1.382.998 2.72 2.094 1.348 1.096 2.718 2.116 3.047 2.28.877.417 1.996.373 5.416-.197 2.939-.493 3.18-.493 3.663.022.12.132.646 1.349 1.162 2.708 1.524 3.98 1.7 4.298 2.675 4.912.428.274 2.522 1.13 5.866 2.38.548.208 1.02.657 1.13 1.096.065.252 0 .724-.68 4.879-.33 1.995-.297 2.61.164 3.618.12.274 1.13 1.623 2.258 2.993 1.119 1.382 2.062 2.632 2.095 2.774.12.494-.066.976-.691 1.744-3.76 4.627-3.892 4.824-4.046 5.942-.044.373.088 1.48.46 3.86l.516 3.344-.208.383c-.264.494-.57.647-3.388 1.71-2.95 1.108-3.706 1.503-4.287 2.205-.46.58-.56.811-2.073 4.758-.405 1.053-.833 2.028-.964 2.171-.428.46-.724.46-3.597-.011-1.765-.296-3.048-.45-3.771-.45-1.031-.01-1.14.011-1.81.351-.416.209-1.677 1.152-3.07 2.28-1.293 1.064-2.477 1.974-2.63 2.04-.549.209-.933.011-2.819-1.524-1.02-.822-2.17-1.754-2.565-2.072-1.535-1.25-2.171-1.338-5.745-.768-1.393.23-2.785.45-3.114.505-.483.088-.67.077-1.053-.099-.548-.241-.493-.131-1.798-3.563-1.184-3.06-1.283-3.279-1.842-3.827-.614-.625-1.041-.833-3.925-1.94-3.245-1.24-3.257-1.24-3.498-1.656-.274-.46-.252-.745.253-3.816.482-2.916.537-3.727.285-4.583-.198-.657-.614-1.25-2.84-3.969-1.568-1.94-1.645-2.05-1.689-2.587l-.043-.56 1.567-1.95c2.478-3.06 2.818-3.531 3.005-4.145.24-.845.208-1.645-.23-4.254-.538-3.246-.57-3.838-.275-4.255.252-.361.45-.45 3.958-1.787 3.87-1.48 3.63-1.195 5.778-6.896.702-1.864.8-2.05 1.316-2.259.417-.186.252-.197 4.638.505 2.423.394 3.07.383 3.99-.033.34-.165 1.657-1.13 3.115-2.303 1.381-1.118 2.61-2.05 2.719-2.083.35-.088.57-.077.855.033ZM16.01 52.45c1.48.57 1.337.373 2.477 3.388 1.58 4.145 1.82 4.55 3.213 5.23.669.33.8.362 1.776.351.581-.01 1.798-.142 2.741-.307 3.487-.592 3.805-.636 4.2-.46.186.087.471.252.613.372l.264.209-.549.975c-.306.538-2.192 3.816-4.199 7.28-2.006 3.465-4.21 7.292-4.912 8.498-.69 1.206-1.272 2.204-1.283 2.226-.033.033-.745-1.283-3.344-6.14-.976-1.853-1.677-3.037-1.886-3.213-.394-.329-.438-.329-6.61-.11-2.347.077-4.288.132-4.32.11-.045-.055.262-.603 3.913-6.907.987-1.7 3.016-5.208 5.241-9.079 1.24-2.149 1.667-2.806 1.798-2.752.088.033.483.187.867.33Zm45.633 1.513c.449.79 1.195 2.073 1.655 2.862 1.053 1.81 6.348 10.986 7.335 12.708.417.723.746 1.326.724 1.337-.011.011-2.303-.044-5.088-.142-2.785-.088-5.24-.132-5.449-.099-.493.099-.702.373-1.655 2.204-.406.778-1.053 1.995-1.426 2.686-.373.69-1.085 2.04-1.59 2.993-.504.954-.953 1.689-.997 1.645-.044-.044-.987-1.667-2.095-3.596-1.118-1.93-2.675-4.65-3.475-6.03-.811-1.393-2.116-3.663-2.917-5.044-.8-1.393-1.655-2.873-1.907-3.3-.241-.428-.45-.834-.45-.9 0-.164.647-.635.987-.712.274-.066.965.022 4.057.548.943.154 2.16.285 2.74.296.933 0 1.108-.022 1.69-.307 1.238-.603 1.841-1.447 2.696-3.815.867-2.347 1.568-4.035 1.788-4.233.131-.12.69-.394 1.227-.603 1.163-.46.922-.625 2.15 1.502Z" fill="#1CA342"/>
    <path d="M36.08 11.293c-10.099.778-18.442 8.793-19.572 18.782-.197 1.72-.208 3.65-.033 4.243.165.548.603.877 1.217.877.976.022 1.448-.69 1.327-1.974-.142-1.59.35-4.77 1.053-6.765.427-1.195 1.48-3.3 2.17-4.298 2.818-4.155 7.138-6.984 12.094-7.938.954-.186 1.754-.252 3.41-.274 2.412-.044 2.554-.076 2.883-.778.33-.69-.021-1.557-.745-1.765-.505-.165-2.456-.209-3.805-.11ZM45.346 13.068a1.285 1.285 0 0 0-.658 1.677c.198.472.241.505 1.601 1.217.581.296 1.36.757 1.732 1.009.9.603 1.217.713 1.7.548.57-.186.943-.68.943-1.25 0-.252-.077-.57-.176-.701-.504-.713-3.914-2.665-4.638-2.654a2.256 2.256 0 0 0-.504.154ZM52.483 18.078c-.701.198-1.173 1.01-.965 1.634.066.176.373.636.691 1.009 1.217 1.47 2.171 3.08 2.938 4.989.965 2.4 1.272 4.111 1.272 6.995-.01 3.256-.46 5.23-1.886 8.3-.47 1.02-.449 1.425.143 1.94.296.263.482.34.855.34.713 0 .998-.296 1.667-1.7 1.469-3.113 2.215-7.148 1.919-10.514-.384-4.451-1.974-8.475-4.693-11.874-.877-1.096-1.261-1.316-1.94-1.119ZM38.64 22.014c-.362.153-4.452 2.905-4.617 3.103-.219.263-.285 1.008-.131 1.392.077.176.296.428.493.548.614.373.976.296 2.182-.493.603-.395 1.108-.713 1.13-.713.01 0 .032 3.037.032 6.743v6.743h-1.48c-1.118 0-1.568.044-1.809.165-.603.307-.833 1.151-.493 1.809.35.68.219.658 5.186.658h4.539l.373-.373c.307-.307.372-.46.372-.822 0-.253-.076-.604-.164-.779-.285-.56-.647-.658-2.302-.658h-1.48v-8.113c0-8.782.01-8.651-.582-9.046-.34-.219-.932-.307-1.25-.164ZM19.746 40.6c-1.557.624-1.897.888-2.017 1.512-.143.713.592 1.568 1.337 1.535.604-.021 3.081-1.074 3.454-1.469.548-.592.318-1.721-.416-2.028-.57-.23-.757-.197-2.358.45ZM24.326 45.565c-.318.209-1.809 1.71-2.247 2.259-.45.581-.253 1.535.405 1.875.176.087.527.164.779.164.438 0 .515-.054 1.666-1.184.658-.647 1.272-1.337 1.36-1.535.164-.384.11-.943-.11-1.228-.416-.559-1.293-.712-1.853-.35ZM47.27 45.445c-.307.11-.647.504-.767.866-.209.636 0 .998 1.37 2.335 1.217 1.195 1.25 1.217 1.755 1.217.285 0 .625-.077.778-.175.526-.351.757-1.173.471-1.721-.186-.351-2.072-2.26-2.423-2.445-.296-.154-.866-.187-1.184-.077ZM29.448 48.966c-.175.11-.384.33-.46.472-.439.888-1.163 2.719-1.206 3.048-.1.8.723 1.546 1.546 1.392.69-.131.899-.46 1.896-2.905.34-.844.296-1.338-.164-1.798-.428-.417-1.13-.516-1.612-.209ZM41.697 49.097c-.735.45-.745 1.031-.01 2.84.635 1.612 1.04 2.094 1.699 2.094.745 0 1.36-.592 1.36-1.316 0-.35-.516-1.787-1.053-2.916-.417-.877-1.24-1.162-1.996-.702ZM35.62 50.336c-.482.406-.526.625-.526 2.38 0 1.787.076 2.116.592 2.456.384.252 1.173.23 1.513-.044.482-.373.548-.713.504-2.632l-.033-1.776-.361-.318c-.461-.417-1.24-.45-1.689-.066Z" fill="#1CA342"/>
</svg><svg fill="none" viewBox="0 0 27 27" id="search" xmlns="http://www.w3.org/2000/svg">
    <circle cx="11.152" cy="11.152" r="10.152" stroke="#444" stroke-width="2"/>
    <path stroke="#444" stroke-width="2" stroke-linecap="square" d="m25.012 25.453-6.586-6.586"/>
</svg><svg fill="none" viewBox="0 0 24 24" id="search-line" xmlns="http://www.w3.org/2000/svg">
    <path d="m18.031 16.617 4.283 4.282-1.415 1.415-4.282-4.283A8.96 8.96 0 0 1 11 20c-4.968 0-9-4.032-9-9s4.032-9 9-9 9 4.032 9 9a8.96 8.96 0 0 1-1.969 5.617Zm-2.006-.742A6.977 6.977 0 0 0 18 11c0-3.867-3.133-7-7-7s-7 3.133-7 7 3.133 7 7 7a6.977 6.977 0 0 0 4.875-1.975l.15-.15Z" fill="#000"/>
</svg><svg fill="none" viewBox="0 0 24 24" id="user" xmlns="http://www.w3.org/2000/svg">
    <path d="M18.559 19.549a7.003 7.003 0 0 0-13.118 0m13.118 0A9.976 9.976 0 0 0 22 12c0-5.523-4.477-10-10-10S2 6.477 2 12a9.977 9.977 0 0 0 3.441 7.549m13.118 0A9.961 9.961 0 0 1 12 22a9.961 9.961 0 0 1-6.559-2.451M15 9a3 3 0 1 1-6 0 3 3 0 0 1 6 0Z" stroke="#141718" stroke-width="1.5" stroke-linejoin="round"/>
</svg><svg fill="none" viewBox="0 0 24 24" id="user-star-line" xmlns="http://www.w3.org/2000/svg">
    <path d="M12 14v2a6 6 0 0 0-6 6H4a8 8 0 0 1 8-8Zm0-1c-3.315 0-6-2.685-6-6s2.685-6 6-6 6 2.685 6 6-2.685 6-6 6Zm0-2c2.21 0 4-1.79 4-4s-1.79-4-4-4-4 1.79-4 4 1.79 4 4 4Zm6 10.5-2.939 1.545.561-3.273-2.377-2.317 3.286-.477L18 14l1.47 2.977 3.285.478-2.377 2.318.56 3.272L18 21.5Z" fill="#000"/>
</svg><svg fill="none" viewBox="0 0 67 67" id="wallet" xmlns="http://www.w3.org/2000/svg">
    <path d="M44.575.12c-.203.048-4.664 1.652-9.917 3.56l-9.545 3.473-2.504.264c-1.374.143-5.138.535-8.36.874C6.26 9.13 4.122 9.36 3.702 9.448c-1.76.359-3.1 2.288-3.5 5.05-.094.657-.1 3.256-.087 24.626l.02 23.896.149.44a4.418 4.418 0 0 0 2.728 2.728l.44.148 27.537.02c24.2.014 27.591 0 28.024-.087 1.395-.291 2.6-1.374 3.08-2.776l.183-.541.02-8.644.014-8.638 1.273-.027c1.117-.02 1.306-.04 1.577-.17a2.438 2.438 0 0 0 1.063-.994l.183-.346V34.724l-.163-.318a2.306 2.306 0 0 0-1.009-1.008c-.29-.15-.42-.163-1.617-.183l-1.307-.027v-8.4c0-5.531-.027-8.557-.074-8.841-.15-.948-.765-1.99-1.51-2.566-.65-.5-1.658-.893-2.301-.893H58.2l-.04-2.492c-.028-2.233-.048-2.538-.176-3.012-.42-1.57-1.523-2.532-3.175-2.762-.447-.067-.799-.047-2.552.136-1.117.115-2.092.21-2.166.21-.115 0-.19-.156-.467-.935-.183-.507-.434-1.13-.562-1.38C48.399.965 47.053.126 45.556.058a4.593 4.593 0 0 0-.981.061Zm1.834 2.261c.684.38.684.386 2.518 5.429.921 2.525 1.672 4.61 1.672 4.637 0 .02-1.421.034-3.154.027l-3.154-.02-.163-.393c-.42-1.036-1.55-2.308-2.559-2.884-1.015-.582-1.929-.819-3.12-.819-2.01 0-3.703.833-4.949 2.444-.297.393-.785 1.26-.852 1.53l-.041.155h-7.981c-4.535 0-7.934-.027-7.873-.06.055-.034 3.67-1.354 8.022-2.945 4.36-1.584 10.675-3.886 14.046-5.118l6.126-2.233.548.02c.46.02.603.054.914.23Zm8.76 4.062c.352.182.534.385.724.798.149.332.156.4.176 2.79l.02 2.457h-1.618c-1.238 0-1.631-.02-1.658-.088-.535-1.422-2.078-5.754-2.058-5.781.02-.014.684-.102 1.482-.19 1.733-.19 2.539-.19 2.932.014ZM16.82 10.166c-.054.02-1.51.555-3.236 1.178l-3.134 1.144h-3.37c-2.77 0-3.433.02-3.751.101a7.79 7.79 0 0 1-.426.102c-.068 0 .196-.434.426-.684.474-.521.427-.515 4.454-.948 8.374-.914 9.342-1.008 9.037-.893Zm22.454.331A4.2 4.2 0 0 1 41.698 12c.17.21.304.406.304.433 0 .034-1.597.055-3.553.055h-3.56l.08-.156c.142-.278.67-.846 1.002-1.09 1.002-.738 2.126-.988 3.304-.745Zm19.657 4.197c.433.203.846.596 1.063 1.002l.183.345.02 8.577.014 8.583-8.543.014-8.55.02-.385.19c-.474.23-.887.683-1.05 1.15-.115.325-.121.69-.121 4.888v4.535l.175.373c.251.541.488.778.996 1.028l.453.224 8.509.02 8.516.014v8.461c0 8.3 0 8.462-.136 8.82a2.074 2.074 0 0 1-.954 1.097l-.366.203-27.476.02-27.476.014-.345-.156c-.501-.23-.846-.562-1.07-1.029l-.19-.406V39.456c0-26.061-.054-23.557.522-24.193.338-.38.69-.589 1.124-.677.155-.027 12.543-.047 27.53-.04l27.246.006.311.142Zm4.921 20.741c.122.075.278.23.352.352.13.217.136.352.136 3.649v3.425l-.156.23a1.105 1.105 0 0 1-.386.345c-.223.115-.832.122-9.808.122h-9.565l-.264-.149a1.012 1.012 0 0 1-.4-.426c-.128-.271-.135-.42-.135-3.581 0-3.182.007-3.303.136-3.568.08-.148.236-.331.358-.399.21-.135.406-.135 9.863-.135 9.504 0 9.646 0 9.87.135Z" fill="#1CA342"/>
    <path d="M4.727 18.85a1.353 1.353 0 0 0-.359.447.931.931 0 0 0 .115 1.05c.319.372.434.4 1.862.4 1.185 0 1.327-.014 1.53-.136.359-.217.5-.508.467-.968-.02-.346-.054-.42-.27-.643l-.251-.25-1.442-.021c-1.354-.014-1.449-.007-1.652.122ZM10.924 18.878c-.25.169-.467.575-.467.866 0 .285.264.704.535.853.243.142.352.15 1.57.15 1.47 0 1.611-.041 1.889-.488.284-.467.115-1.124-.352-1.408-.203-.122-.345-.136-1.577-.136-1.327 0-1.361.007-1.598.163ZM17.16 18.864c-.46.318-.595.887-.317 1.368.264.467.44.514 1.909.514 1.408 0 1.61-.047 1.881-.42.204-.27.23-.839.055-1.123-.291-.454-.427-.488-1.943-.488-1.3 0-1.374.007-1.584.15ZM23.383 18.871c-.65.433-.588 1.435.102 1.767.19.088.467.108 1.496.108s1.306-.02 1.496-.108c.69-.332.751-1.334.101-1.767-.223-.149-.29-.156-1.597-.156s-1.374.007-1.598.156ZM29.628 18.85c-.352.217-.5.515-.467.935.027.413.19.67.528.84.196.1.426.121 1.516.121 1.47 0 1.645-.047 1.91-.514.277-.481.141-1.05-.319-1.368-.21-.142-.284-.149-1.584-.149-1.239 0-1.38.014-1.584.136ZM35.855 18.85c-.305.19-.488.515-.488.88 0 .366.183.691.488.88.203.123.345.136 1.543.136 1.157 0 1.354-.013 1.557-.128.257-.136.541-.603.541-.88-.006-.298-.236-.725-.487-.874-.223-.142-.325-.149-1.584-.149-1.225 0-1.367.014-1.57.136ZM42.095 18.844c-.36.217-.501.46-.501.846 0 .406.169.724.487.92.203.123.345.136 1.55.136 1.266 0 1.34-.007 1.55-.156.36-.243.501-.48.501-.846 0-.379-.176-.71-.474-.9-.189-.115-.345-.129-1.556-.129-1.199 0-1.368.014-1.557.129ZM48.4 18.776c-.63.258-.813 1.185-.325 1.645.338.312.42.325 1.8.325 1.252 0 1.327-.007 1.537-.156.365-.243.5-.48.5-.852 0-.244-.047-.4-.169-.576-.277-.413-.426-.447-1.902-.44-.717 0-1.367.027-1.441.054ZM54.477 18.85a1.354 1.354 0 0 0-.359.447.931.931 0 0 0 .115 1.05c.319.372.434.4 1.862.4 1.185 0 1.327-.014 1.53-.136.325-.197.487-.508.487-.934 0-.325-.027-.386-.264-.643l-.27-.285-1.442-.02c-1.361-.014-1.456-.007-1.659.122ZM4.695 58.274c-.481.332-.583 1.03-.217 1.47.318.371.433.399 1.828.399 1.076 0 1.306-.02 1.51-.122.351-.176.54-.501.54-.948 0-.345-.02-.386-.297-.663l-.291-.298H6.353c-1.394 0-1.422 0-1.658.162ZM10.945 58.247a1.093 1.093 0 0 0-.366.454c-.223.507-.081.947.42 1.286.21.149.284.156 1.516.156 1.097 0 1.327-.02 1.53-.122.65-.325.731-1.178.17-1.706-.177-.17-.19-.17-1.612-.19-1.347-.013-1.448-.006-1.658.122ZM17.153 58.267a.996.996 0 0 0-.325 1.334c.27.48.48.542 1.922.542 1.03 0 1.307-.02 1.496-.109.71-.338.758-1.374.081-1.787-.203-.122-.345-.135-1.584-.135-1.3 0-1.374.007-1.59.155ZM23.383 58.268c-.65.433-.588 1.435.102 1.766.338.163 2.653.163 2.992 0 .69-.331.751-1.333.101-1.766-.223-.15-.29-.156-1.597-.156s-1.374.007-1.598.156ZM29.63 58.247c-.678.413-.63 1.449.08 1.787.19.088.468.109 1.49.109 1.455 0 1.652-.055 1.922-.528a.997.997 0 0 0-.318-1.348c-.217-.148-.291-.155-1.59-.155-1.24 0-1.382.013-1.585.135ZM35.856 58.247c-.677.413-.643 1.428.054 1.774.203.101.433.122 1.516.122 1.185 0 1.293-.014 1.537-.15.291-.162.535-.575.535-.906 0-.278-.21-.644-.474-.826-.21-.142-.284-.15-1.584-.15-1.239 0-1.381.014-1.584.136ZM41.892 58.41c-.278.277-.298.318-.298.663 0 .447.19.772.541.948.203.101.434.122 1.51.122 1.394 0 1.51-.028 1.827-.4.373-.447.258-1.178-.236-1.482-.224-.142-.325-.15-1.645-.15h-1.408l-.291.299ZM48.265 58.24c-.494.332-.63 1.009-.284 1.456.318.42.427.447 1.889.447 1.252 0 1.327-.007 1.536-.156.643-.433.657-1.354.027-1.747-.19-.115-.345-.128-1.59-.128-1.246 0-1.402.013-1.578.128ZM54.445 58.274c-.481.332-.583 1.03-.217 1.47.318.371.433.399 1.828.399 1.076 0 1.306-.02 1.51-.122.351-.176.54-.501.54-.948 0-.345-.02-.386-.297-.663l-.291-.298h-1.415c-1.394 0-1.422 0-1.658.162ZM47.328 37.398c-.663.17-1.3.745-1.51 1.367-.25.759 0 1.666.617 2.207.805.71 2.146.643 2.856-.142.393-.433.528-.812.522-1.435 0-.65-.183-1.076-.637-1.483-.507-.46-1.245-.663-1.848-.514Z" fill="#1CA342"/>
</svg><svg viewBox="0 0 497 497" id="website" xmlns="http://www.w3.org/2000/svg">
    <path d="M497 128.5v312c0 11.046-8.954 20-20 20H20c-11.046 0-20-8.954-20-20v-312z" fill="#faf8f8"/>
    <path d="M290.498 294.5c0-23.196-18.804-42-42-42a41.823 41.823 0 0 0-19.482 4.782c-13.386 7.021-19.327 21.053-19.327 37.218 0 23.196 15.613 36.457 38.809 36.457 16.214 0 30.282-3.645 37.282-17.099a41.814 41.814 0 0 0 4.718-19.358z" fill="#dc4955"/>
    <path d="M286.468 312.47c-6.73 14.21-21.2 24.03-37.97 24.03-23.2 0-42-18.8-42-42 0-16.77 9.82-31.24 24.03-37.97-2.59 5.45-4.03 11.54-4.03 17.97 0 23.2 18.8 42 42 42 6.43 0 12.52-1.44 17.97-4.03z" fill="#d82f3c"/>
    <path d="M429.496 294.5c0-23.196-18.804-42-42-42a41.823 41.823 0 0 0-19.482 4.782c-13.386 7.021-19.327 21.053-19.327 37.218 0 23.196 15.613 36.457 38.809 36.457 16.214 0 30.282-3.645 37.282-17.099a41.814 41.814 0 0 0 4.718-19.358z" fill="#b7e546"/>
    <path d="M425.466 312.47c-6.73 14.21-21.2 24.03-37.97 24.03-23.2 0-42-18.8-42-42 0-16.77 9.82-31.24 24.03-37.97-2.59 5.45-4.03 11.54-4.03 17.97 0 23.2 18.8 42 42 42 6.43 0 12.52-1.44 17.97-4.03z" fill="#abd641"/>
    <path d="M497 148.5v-20l-276.011-12.798L0 128.5v312c0 11.046 8.954 20 20 20h15c-8.28 0-15-6.72-15-15v-291a6 6 0 0 1 6-6z" fill="#f0e9e6"/>
    <path d="M497 56.5V129H0V56.5c0-11.046 8.954-20 20-20h457c11.046 0 20 8.954 20 20z" fill="#5d748a"/>
    <g fill="#3f597d">
        <path d="M227.758 108.5c-8.255 0-14.947-6.716-14.947-15s6.692-15 14.947-15h208.315c8.255 0 14.947 6.716 14.947 15s-6.692 15-14.947 15z"/>
        <ellipse cx="160.869" cy="93.5" rx="14.947" ry="15"/>
        <path d="m171.361 104.184 12.874-12.869-13.139 1.179zM150.592 82.608l12.562-12.516-2.693 10.408z"/>
        <ellipse cx="98.034" cy="93.5" rx="14.947" ry="15"/>
        <path d="m108.553 104.157 12.382-12.499-12.674.836zM87.757 82.608l12.371-12.459L97.626 80.5z"/>
        <ellipse cx="32.947" cy="93.5" rx="14.947" ry="15"/>
        <path d="M43.769 103.846 56.49 90.66l-13.139 1.381zM22.67 82.608 34.292 70.57l-1.753 9.93z"/>
    </g>
    <ellipse cx="173.849" cy="80.5" fill="#b7e546" rx="14.947" ry="15"/>
    <path d="m217.514 82.577 12.971-12.991-3.025 14.276zM446.83 103.915l13.149-13.179-10.185 3.381z" fill="#3f597d"/>
    <ellipse cx="110.946" cy="80.5" fill="#ffbf54" rx="14.947" ry="15"/>
    <ellipse cx="45.495" cy="80.5" fill="#dc4955" rx="14.947" ry="15"/>
    <path d="M240.737 95.5c-8.255 0-14.947-6.716-14.947-15s6.692-15 14.947-15h208.315c8.255 0 14.947 6.716 14.947 15s-6.692 15-14.947 15z" fill="#faf8f8"/>
    <path d="m135.893 215 226.628 2c5.523 0 10-4.477 10-10l3.479-7v-30c0-5.523-4.477-10-10-10H142l-6.107 5c-5.523 0-10 4.477-10 10v30c0 5.523 4.477 10 10 10z" fill="#aad8de"/>
    <path d="M376 200v10c0 5.523-4.477 10-10 10H132c-5.523 0-10-4.477-10-10v-40c0-5.523 4.477-10 10-10h10v33a7 7 0 0 0 7 7z" fill="#94ccd4"/>
    <path d="M151.5 294.5c0-23.196-18.804-42-42-42a41.823 41.823 0 0 0-19.482 4.782c-13.386 7.021-19.327 21.053-19.327 37.218 0 23.196 15.613 36.457 38.809 36.457 16.214 0 30.282-3.645 37.282-17.099A41.814 41.814 0 0 0 151.5 294.5z" fill="#ffbf54"/>
    <path d="M147.47 312.47c-6.73 14.21-21.2 24.03-37.97 24.03-23.2 0-42-18.8-42-42 0-16.77 9.82-31.24 24.03-37.97-2.59 5.45-4.03 11.54-4.03 17.97 0 23.2 18.8 42 42 42 6.43 0 12.52-1.44 17.97-4.03z" fill="#ffa442"/>
    <path d="M149.5 374h-70a7.5 7.5 0 0 1 0-15h70a7.5 7.5 0 0 1 0 15zM149.5 404h-80a7.5 7.5 0 0 1 0-15h80a7.5 7.5 0 0 1 0 15zM149.5 434h-80a7.5 7.5 0 0 1 0-15h80a7.5 7.5 0 0 1 0 15zM288.5 374h-70a7.5 7.5 0 0 1 0-15h70c4.143 0 7.5 3.358 7.5 7.5s-3.357 7.5-7.5 7.5zM288.5 404h-80a7.5 7.5 0 0 1 0-15h80c4.143 0 7.5 3.358 7.5 7.5s-3.357 7.5-7.5 7.5zM288.5 434h-80a7.5 7.5 0 0 1 0-15h80c4.143 0 7.5 3.358 7.5 7.5s-3.357 7.5-7.5 7.5zM427.5 374h-70c-4.143 0-7.5-3.358-7.5-7.5s3.357-7.5 7.5-7.5h70c4.143 0 7.5 3.358 7.5 7.5s-3.357 7.5-7.5 7.5zM427.5 404h-80c-4.143 0-7.5-3.358-7.5-7.5s3.357-7.5 7.5-7.5h80c4.143 0 7.5 3.358 7.5 7.5s-3.357 7.5-7.5 7.5zM427.5 434h-80c-4.143 0-7.5-3.358-7.5-7.5s3.357-7.5 7.5-7.5h80c4.143 0 7.5 3.358 7.5 7.5s-3.357 7.5-7.5 7.5z" fill="#f0e9e6"/>
</svg></svg>